<?xml version="1.0" encoding="UTF-8" standalone="no"?>
<!-- Generator: Adobe Illustrator 25.4.1, SVG Export Plug-In . SVG Version: 6.00 Build 0)  -->
<svg version="1.1" x="0px" y="0px" viewBox="0 0 648.93055 354.21101" xml:space="preserve" width="648.93054" height="354.21103" id="svg72585" xmlns="http://www.w3.org/2000/svg" xmlns:svg="http://www.w3.org/2000/svg"><defs id="defs13"/>
<g id="g72556"><path id="path63096" d="M 46.166328,354.11247 C 38.388847,354.11247 30.711078,353.2254 23.033308,351.54986 15.554962,349.8743 8.2760371,347.21312 1.2962468,343.56633 V 316.6589 C 15.355538,325.13523 30.312232,329.3734 46.166328,329.3734 55.140344,329.3734 61.920712,327.89497 66.50743,324.83955 71.293573,321.88269 73.586932,317.64452 73.586932,312.32217 73.586932,308.28113 72.390397,305.12714 69.997326,302.95878 67.803677,300.5933 64.712627,298.81918 60.923599,297.53787 57.13457,296.05944 52.846984,294.77813 48.060842,293.59539 40.283361,291.82127 33.403282,289.65291 27.520317,287.38599 21.63735,285.02049 16.552075,282.26076 12.463911,279.20534 8.3757484,275.95279 5.2846984,272.10887 3.1907613,267.67358 1.0968242,263.13973 0,257.71882 0,251.50942 0,242.63883 2.1936484,235.04956 6.6806564,228.64303 11.267376,222.23649 17.74861,217.40696 26.024647,213.95729 34.300683,210.40905 44.172102,208.63494 55.6389,208.63494 63.117247,208.63494 70.495882,209.522 77.774806,211.19755 85.053731,212.8731 91.534965,215.14003 97.31822,217.99833 V 244.61008 C 91.534965,241.06184 84.954019,238.40066 77.575384,236.42943 70.29646,234.45818 63.017535,233.47256 55.6389,233.47256 47.562285,233.47256 41.380185,234.85243 36.893177,237.61217 32.505881,240.37191 30.411944,244.21582 30.411944,249.34105 30.411944,252.98784 31.508768,255.9447 33.602705,258.11307 35.696642,260.18287 38.687981,261.95699 42.47701,263.43542 46.465462,264.71673 51.05218,265.99803 56.336879,267.3779 63.017535,269.05345 69.299347,270.92613 75.082602,272.99593 80.865857,274.96717 85.951132,277.52978 90.338429,280.58521 94.825437,283.73919 98.215621,287.68167 100.60869,292.51121 103.10147,297.34075 104.39772,303.25447 104.39772,310.25237 104.39772,319.5172 102.10436,327.40216 97.517642,334.10438 92.930922,340.60947 86.250266,345.63613 77.575384,349.18436 68.900502,352.43691 58.430816,354.11247 46.166328,354.11247 Z" fill="#000000"/><path id="path63098" d="M 124.57864,351.1556 V 211.49323 H 175.01955 C 193.0554,211.49323 206.92913,215.43571 216.64073,223.41924 226.35235,231.40277 231.20815,242.73739 231.20815,257.62026 231.20815,267.3779 229.02799,275.75566 224.56858,282.65501 220.20826,289.45579 213.86599,294.67957 205.54175,298.32637 197.11843,301.8746 186.91132,303.64872 174.92046,303.64872 H 154.50626 V 351.35273 H 124.57864 Z M 154.50626,279.89527 H 173.33488 C 182.25372,279.89527 188.99238,278.12116 193.55089,274.57292 198.3076,270.92613 200.58685,265.30809 200.58685,257.62026 200.58685,249.93242 198.2085,244.31439 193.55089,240.6676 188.99238,237.02079 182.25372,235.24668 173.53308,235.24668 H 154.50626 Z" fill="#000000"/><path d="M 316.35363,208.53638 C 326.96153,208.53638 336.47889,210.21193 345.00485,213.6616 353.62997,217.01271 360.96626,221.94081 367.01375,228.34734 373.16039,234.55675 377.91907,242.24458 381.19066,251.21373 384.46226,260.08431 386.14762,270.13764 386.14762,281.27514 386.14762,292.31408 384.46226,302.36741 381.19066,311.33656 377.91907,320.3057 373.16039,327.99353 367.01375,334.40007 360.96626,340.8066 353.62997,345.63613 345.00485,349.08581 336.47889,352.43691 326.96153,354.21103 316.35363,354.21103 305.74574,354.21103 296.12924,352.53547 287.50413,349.08581 278.97816,345.73469 271.64186,340.8066 265.49523,334.40007 259.44774,327.99353 254.7882,320.3057 251.51661,311.33656 248.24501,302.36741 246.55965,292.31408 246.55965,281.27514 246.55965,270.03907 248.24501,260.08431 251.51661,251.21373 254.7882,242.24458 259.44774,234.65531 265.49523,228.34734 271.64186,221.94081 278.97816,217.11127 287.50413,213.6616 296.0301,210.21193 305.74574,208.53638 316.35363,208.53638 Z M 316.35363,327.89497 C 324.38391,327.89497 331.22451,326.12086 336.97458,322.47406 342.72466,318.7287 347.08678,313.40635 350.1601,306.40845 353.13427,299.50912 354.7205,291.13134 354.7205,281.17657 354.7205,271.32038 353.23341,262.84404 350.1601,255.9447 347.18592,249.04536 342.72466,243.72301 336.97458,240.07622 331.22451,236.42943 324.38391,234.65531 316.35363,234.65531 308.32336,234.65531 301.48275,236.42943 295.73269,240.07622 289.98261,243.72301 285.62049,249.04536 282.54717,255.9447 279.573,262.84404 277.98677,271.22182 277.98677,281.17657 277.98677,291.13134 279.47386,299.50912 282.54717,306.40845 285.52134,313.30779 289.98261,318.63014 295.73269,322.47406 301.48275,326.12086 308.32336,327.89497 316.35363,327.89497 Z" id="path63100" fill="#000000"/><path id="path63102" d="M 437.48032,300.39617 V 351.1556 H 407.6846 V 211.49323 H 458.86197 C 477.27394,211.49323 491.42938,215.33716 501.22931,223.02499 511.12822,230.71283 516.17666,241.75178 516.17666,256.04326 516.17666,265.30809 513.9989,273.19305 509.54439,279.69814 505.18887,286.20324 499.05154,291.2299 490.93444,294.77813 496.7748,304.04296 502.61515,313.30779 508.35652,322.67118 514.09789,331.93601 519.83926,341.39796 525.58063,351.1556 H 490.83545 C 481.43148,334.00582 471.63156,317.05315 461.63366,300.39617 460.54478,300.39617 459.65388,300.39617 458.66399,300.39617 Z M 437.48032,276.74129 H 457.08016 C 466.38514,276.74129 473.41337,275.06573 478.26383,271.81318 483.1143,268.46208 485.49004,263.13973 485.49004,255.9447 485.49004,248.74968 483.1143,243.52589 478.26383,240.07622 473.51235,236.72512 466.58312,234.951 457.27814,234.951 H 437.48032 Z" fill="#000000"/><path id="path63104" d="M 529.05864,211.49323 H 648.93053 V 237.71073 H 604.26648 V 351.1556 H 573.72269 V 237.71073 H 529.05864 Z" fill="#000000"/></g>
<path fill="#000000" d="M 603.21927,0 V 158.58939 H 444.62989 V 0 Z M 404.58246,0 V 158.58939 H 245.99307 V 0 Z M 206.24547,0 V 158.58939 H 47.656073 V 0 Z M 531.20648,33.739891 C 524.06996,33.739891 517.62727,34.797154 511.8784,36.918287 506.35496,38.89769 501.31285,42.023395 497.08334,46.090041 492.93086,50.140696 489.70691,55.04426 487.63405,60.462204 485.45345,66.045872 484.36315,72.303545 484.36315,79.228614 484.36315,86.325489 485.42041,92.708712 487.51511,98.371675 489.60981,104.04125 492.63623,108.82536 496.58114,112.74384 500.52605,116.65571 505.3498,119.64908 511.05902,121.73057 516.76824,123.80545 523.19112,124.84949 530.32764,124.84949 535.69323,124.84949 540.82097,124.25478 545.68438,123.07197 550.16142,122.04134 554.48129,120.41916 558.53012,118.24821 V 101.24611 C 550.86298,106.01739 542.00112,108.51924 532.97079,108.46192 526.92456,108.46192 521.78364,107.31876 517.54798,105.03904 513.35461,102.8071 509.9632,99.320975 507.8476,95.067729 505.62734,90.706521 504.5106,85.433424 504.5106,79.235222 504.5106,73.037021 505.66699,67.777138 507.97314,63.455578 510.20119,59.215243 513.67396,55.75862 517.92463,53.55035 522.24619,51.270627 527.47303,50.127462 533.59853,50.127462 538.04566,50.127462 542.28792,50.722172 546.31873,51.898377 550.34955,53.087798 554.08299,54.819065 557.52571,57.098788 V 39.733248 C 553.63634,37.737775 549.51151,36.239247 545.24826,35.272922 540.64102,34.230663 535.93009,33.716341 531.20648,33.739891 Z M 324.8724,34.791525 H 291.39681 V 123.99805 H 326.94067 C 333.97145,123.99805 339.99783,122.96062 345.01323,120.87913 350.02203,118.79764 353.88765,115.84392 356.59685,112.02456 359.3061,108.19198 360.66072,103.61932 360.66072,98.293359 360.66072,92.888104 359.26645,88.295619 356.47131,84.509299 353.68281,80.722976 349.6652,77.960877 344.40532,76.209786 348.20485,74.386009 351.07927,71.914657 353.01541,68.789125 354.95812,65.670199 355.92286,61.989605 355.92286,57.753947 355.92286,50.346501 353.21363,44.670323 347.79516,40.718803 342.37668,36.767283 334.73797,34.791525 324.8724,34.791525 Z M 126.13537,34.691428 H 92.659804 V 123.89796 H 128.20364 C 135.23445,123.89796 141.26084,122.86052 146.27623,120.77903 151.28501,118.69755 155.15062,115.74382 157.85986,111.92446 160.56909,108.09188 161.92373,103.51922 161.92373,98.193262 161.92373,92.788007 160.52945,88.195522 157.73432,84.409202 154.94578,80.622879 150.92818,77.86078 145.6683,76.109689 149.46784,74.285912 152.34228,71.81456 154.27838,68.689028 156.2211,65.570102 157.18587,61.889508 157.18587,57.65385 157.18587,50.246404 154.47662,44.570226 149.05815,40.618706 143.63969,36.667186 136.00096,34.691428 126.13537,34.691428 Z M 325.48031,85.447619 C 336.56175,85.447619 342.09915,89.524688 342.09915,97.672217 342.09915,101.5048 340.64541,104.43209 337.73795,106.46732 334.82388,108.50916 330.65429,109.52677 325.24241,109.52677 H 309.4694 V 85.447619 Z M 126.74331,85.347522 C 137.82475,85.347522 143.36215,89.424591 143.36215,97.57212 143.36215,101.4047 141.90841,104.33199 139.00095,106.36722 136.08686,108.40906 131.91729,109.42668 126.50542,109.42668 H 110.73237 V 85.347522 Z M 323.18076,49.262808 C 332.80846,49.262808 337.619,52.798028 337.619,59.868473 337.619,63.529244 336.38333,66.377245 333.9186,68.412475 331.45386,70.454314 327.87238,71.471929 323.18076,71.471929 H 309.47599 V 49.269415 H 323.18076 Z M 124.44376,49.162711 C 134.07144,49.162711 138.88201,52.697931 138.88201,59.768376 138.88201,63.429147 137.64633,66.277148 135.18158,68.312378 132.71683,70.354217 129.13536,71.371832 124.44376,71.371832 H 110.73237 V 49.169318 H 124.43714 Z" id="path1019"/></svg>