<?xml version="1.0" encoding="UTF-8"?>
<svg height="411.49" viewBox="0,0,264.583,108.873" width="1000" xmlns="http://www.w3.org/2000/svg">
 <metadata/>
 <g fill="#000000" transform="translate(201.09 -112.08)">
  <g transform="matrix(.10898 0 0 .10898 -179.4 96.78)">
   <path d="m300.484 140.344c-275.866 0-499.484 223.617-499.484 499.484 0 275.866 223.617 499.516 499.484 499.516 275.866 0 499.516-223.65 499.516-499.516-.00003-275.866-223.65-499.484-499.516-499.484zm-.22932 61.5878c242.151 0 438.453 196.302 438.453 438.453s-196.302 438.453-438.453 438.453c-242.151 0-438.453-196.302-438.453-438.453s196.302-438.453 438.453-438.453z"/>
   <path d="m51.5444 469.085v340.076h138.376c62.8918 0 111.218-39.2666 111.218-101.456 0-54.8495-42.8166-75.7726-42.8166-75.7726s32.8578-20.9838 32.8578-67.6483c0-54.2039-42.7936-95.199-105.911-95.199zm76.5261 66.469h40.8838c29.0575 0 41.7356 14.9363 41.7356 33.3819 0 20.0253-14.3554 32.6612-39.8028 32.6612h-42.8166zm0 134.183h40.8838c29.0575 0 41.7356 14.9363 41.7356 33.3819 0 20.0253-14.3554 32.6612-39.8028 32.6612h-42.8166z"/>
   <path d="m403.774 808.099v-261.027h-76.5261v-78.6227h237.965v78.6227h-79.671v261.027z"/>
  </g>
  <path d="m-81.554 175.962v7.98545s4.88662 1.95849 10.7327 1.95849c8.45047 0 13.9144-3.76602 13.9144-11.8367 0-11.0788-15.1733-10.8388-15.1733-15.9364 0-1.79371 1.48348-2.65699 4.64556-2.65699 4.14803 0 8.58927 1.89499 8.58927 1.89499v-8.11023s-3.64321-1.63156-9.27488-1.63156c-6.76808 0-13.5532 3.23157-13.5532 11.0482 0 11.7649 15.0855 10.4932 15.0855 16.3167 0 2.30164-1.58712 3.16387-4.97977 3.16387-4.89984 0-9.98628-2.19577-9.98628-2.19577z"/>
  <path d="m-52.7315 148.075v37.1199h9.23318v-12.103h1.78703c9.9446 0 13.9421-5.65438 13.9421-12.7646 0-8.69049-6.27412-12.2523-12.8594-12.2523zm9.23318 7.48636h1.62205c2.5295 0 5.12007.74713 5.12007 4.8408 0 3.81326-2.02178 5.20341-5.12007 5.20341h-1.62205z"/>
  <path d="m-9.84988 147.638c-8.63206 0-14.7829 6.22596-14.7829 19.1446 0 10.9548 3.76048 19.0393 14.6827 19.0393 10.1403 0 14.6776-8.77585 14.6776-19.2118 0-13.737-6.28664-18.972-14.5775-18.972zm-.00463 7.93502c4.44483 0 5.16759 5.45856 5.16759 11.2018 0 6.03471-1.03082 11.2096-5.29358 11.2096-4.77393 0-5.20707-6.67736-5.20707-11.3594 0-5.30148.80586-11.0519 5.33306-11.0519z"/>
  <path d="m34.0866 159.949c0-7.79545-5.35137-11.8742-12.8279-11.8742h-12.103v37.1199h9.23318v-13.1011h1.49557l7.11376 13.1011h9.85705l-8.99478-15.1644c3.43069-1.52211 6.22606-4.64482 6.22606-10.0813zm-15.6977-4.38787h1.62204c2.5295 0 5.12007.98201 5.12007 4.54001 0 3.13579-2.02186 4.62511-5.12007 4.64639h-1.62204z"/>
  <path d="m45.7142 185.195v-29.6959h-8.54694v-7.42398h26.3271v7.42398h-8.54694v29.6959z"/>
 </g>
</svg>
