<svg xmlns="http://www.w3.org/2000/svg" width="420" height="237">
  <path fill="#000000" d="M0 226.538h4.17V0H0zm0 0"/>
  <path d="M88.379 63.435s-.374 2.13-.35 2.314l-.64-.119c-.013.018.397-1.868.492-2.272a1.351 1.351 0 0 0-.742.072l-.006-.006.255-.54 1.738.314.119.593c-.149-.148-.617-.308-.866-.356m-1.519.119c-.06.492-.29 1.495-.201 1.957l-.641-.089c.279-.723.474-1.951.427-2.728l.647.095c-.107.22-.184.474-.232.765m-1.708 1.625c-1.643.309-1.643-2.467-.326-2.853 1.655-.344 1.66 2.474.326 2.853m-1.418-2.189c-.083.315-.314.528-.694.647.166.546.267.724.546 1.317l-.006.012-.433-.065c-.09-.054-.635-.819-.801-1.234-.095.344-.19.777-.148 1.085l-.742-.112c.137-.214.712-2.474.694-2.711.635.077 1.786.19 1.584 1.062m-3.185 1.275c-.386.13-.938-.018-1.341-.095l.546-2.764c1.791-.119 2.533 2.2.795 2.859m-2.545-.237c-.202-.042-1.281-2.243-1.281-2.243s-.261 1.709-.333 1.827l-.492-.065.564-2.687.545.071c0 .071.86 1.887.86 1.887s.285-1.472.309-1.602l.421.119zM75.75 62.29c-.587 1.987-2.877.901-2.195-.866.582-1.922 2.871-.908 2.195.866m-2.39-2.136c-.101.09-.445 2.51-.422 2.747l-.646-.13c.113-.208.267-1.893.267-1.893l-1.115 1.732-.659-1.957s-.26 1.405-.273 1.856l-.64-.083c.207-.332.605-2.818.605-2.818l.664.12c.018.135.516 1.82.516 1.82s.878-1.47.931-1.548l.772.142zm16.022 1.709c-.807 0-1.578-.012-1.952-.048-4.265-.41-8.477-1.631-12.73-2.307-1.228-.19-2.23-.374-3.096-.374-1.804 0-3.031.783-4.485 3.88-.623 1.18 1.454 2.301 1.91 2.354-1.702-1.459-1.109-1.892.238-1.892 1.856 0 5.148.825 5.795.908 3.897.617 7.83 1.732 11.787 2.153.142.018.273.024.403.024 2.907 0 2.77-3.174 4.77-4.758-.357.036-1.537.06-2.64.06m-14.462-1.08c-1.009-.279-1.4 1.81-.552 2.165 1.032.273 1.406-1.803.552-2.165m7.77 1.53-.296 1.074c.83.154 1.186-.937.296-1.074m2.54.38c-.974-.237-1.288 1.78-.481 2.106.99.231 1.287-1.774.48-2.106m-4.97-.86a22.82 22.82 0 0 0-.422 2.106c1.27.267 1.667-1.857.421-2.106M49.14 60.262l.48 2.456-.557.106-.499-2.45c-.35.066-.545.066-1.014.273l-.018-.551 2.438-.315.172.463c-.225-.077-1.002.018-1.002.018m-1.78 2.883-1.69.385c.03-.255-.534-2.622-.677-2.835l1.774-.41-.136.6c-.25-.066-.534-.066-.866 0l.207.86.979-.226.166.416c-.196-.03-.789.124-1.062.172l.214.901c.486-.112.884-.279 1.204-.498l.006.006zm-4.905.878c-1.228.03-1.406-1.732-1.697-2.604l.6-.113c.284.76.2 2.527 1.47 2.295.92-.409.178-1.868.083-2.574l.588-.083c.225 1.169.753 3.197-1.044 3.079m-1.733.267-1.69.373c.035-.255-.51-2.628-.653-2.847l1.78-.392-.142.6c-.25-.072-.54-.072-.866-.006l.195.86.985-.22.16.421c-.196-.035-.789.113-1.062.16l.208.902c.486-.107.89-.267 1.204-.486l.012.006zm-3.167.688c.035-.837-.243-2.16-.617-2.907l.824-.172c-.04.836.238 2.153.617 2.9zm-.837-.51c-.35.836-1.405 1.026-2.224 1.168.041-.255-.463-2.675-.617-2.895 1.424-.605 3.452-.017 2.841 1.726m13.602-5.362c-6.46.012-12.896 2.77-19.361 2.77-.777 0-1.549-.041-2.326-.13 2 1.584 1.863 4.751 4.775 4.751.125 0 .256-.006.392-.018 3.962-.42 7.895-1.536 11.793-2.159.67-.095 3.89-.89 5.783-.89.682 0 1.186.107 1.335.38.207.374-1.074 1.453-1.086 1.495-.006.012.006.018.018.018.125 0 .836-.41 1.364-.76 2.112-1.512-2.307-5.457-2.687-5.457m-14.67 3.963c-.26-.16-.58-.208-.966-.149.083.582.29 1.65.463 2.213 1.073-.154 1.4-1.495.504-2.064m25.471-4.793c.807-.718 1.364-.967 2.403-1.216-.285.646-.558 1.257-.849 1.91-.522-.232-1.032-.463-1.554-.694m-.207-15.583h11.412c.932 8.725-4.182 11.644-11.412 14.681zm16.858-4.675c-.261-.563-.872-3.725-1.756-3.037 4.034 7.54 1.34 17.452-5.665 22.227-2.052 1.24-4.609 3.298-7.035 1.928 1.566-6.116 9.094-3.536 10.725-15.198-.202-.095-.279-.16-.463-.19a19.752 19.752 0 0 1-1.252 4.699c.653-1.738.238-7.166.362-7.469-.07-.089-.142-.118-.362-.397.042.658-.006.896 0 1.762H60.915V30.436H72.12v6.721c-.006.036.041.356.065.469.16-.243.172-.232.279-.315v-7.219H48.968l-.024 6.086h.35v-5.742h11.277v11.906H49.697c-.035.035.006-.184-.035-.155 0-.03-.071.19-.071.155h-.303c-.006-.552.006-.896.006-.914l-.35-.012c-.249.896.493 8.364 1.72 9.675-2.455-2.379-3.226-6.602-2.77-9.782 0 0-.225-.178-.474-.403-.771 4.478.92 8.898 4.063 12.107.273.29.576-.024.908-.107-.066-.071-.214-.184-.32-.326.124.124.237.243.32.326l-.172-.48c-2.468-1.887-2.871-7.267-2.925-9.735h11.277s-.012 14.93-.018 14.967c-2.402-.12-4.022-2.723-6.335-2.753 3.328 1.975 9.408 6.727 13.252 4.645.03.035.023.03.053.065-.403.504-1.827 1.46-2.462 1.216-1.05-.629-2.657.516-1.922 1.685.101.136.155.26.048.439-4.159-.392-7.896-2.871-11.395-4.995-.036.036-.03.03-.06.065 1.34 1.816 6.134 4.064 6.134 4.064v2.693s.302.207.504.338v-2.913c1.257.433 3.808 1.234 3.808 1.234l.006 1.815.487-.308-.03-1.364.682-.184a.9.9 0 0 0 .653-.973.503.503 0 0 1-.28-.593c.102-.528.742-.54 1.003-.22.522.232 1.032-.397 1.543-.546.723-.433 1.613-.824 1.951-1.655a.697.697 0 0 1 .35-.433c1.46-.83 2.871-1.744 4.064-2.942 5.083-4.3 6.863-11.691 5.166-18.02m-10.695 7.515c-.054-.047-.184.006-.196.042 0 .272-.29.19-.374.38.054.112.137.207.261.195.154-.018.142.178.285.184.664-.303 1.46-.231 2.029-.748-.214-.183-.261-.433-.309-.694-.385.03-.76-.023-1.097.16-.03.179.089.268.178.422-.273.118-.516.178-.777.06m-.76-8.673c-.498-.024-.884-.066-.747.528.03.148.083.581.166.682.035.053.035.118-.012.154-.202.113-.973-.196-.878-.457 0-.22-.22-.267-.279-.112-.035.065-.095.065-.166-.024-.142-.202-.338.077-.26.225.029.066-.007.13-.078.143-.214.083-.202.373.089.385.64.297 1.198.6 1.946.493l-.013.006c.807-.066.392-.214.356-.783-.142-.605.896-1.003-.124-1.24m1.525-1.14.273.564s.587.261.67.338c.326.244.273.908-.024.837-.486-.202-.777-.89-1.115-1.311-.089-.071-.32-.765-.474-.593-2.005.45.361.967 0 1.708-.072.107-.297.629-.202.706.166.208.546.362.741.623.327.32.036.688-.367.385-.232-.172-.505.077-.267.309.012.047-.143.112-.172.13-.238.326.154.309.367.149.113-.06 0 .284.196.23.362-.082.931-.266 1.032-.841.226-.522-.302-.44-.433-.896-.13-.19-.136-.884.149-.629.26.338.617.528.943.231.302-.284.03-.972-.125-1.275-.29-.605-.623-1.186-.605-1.91.41-.48.884.38 1.169-.96-.95.064-1.88.7-1.412 1.767.285.599.225.551-.344.439m-2.059.403c.113-.107.451-.439.493-.51.03-.077.041-.083.285-.1.658-.096.99-.363 1.174-1.069.09-.213-.03-.67-.16-.77-.053-.036-.077-.108-.041-.131.118-.018.38-.119.42-.261-.07-.137-.243-.036-.474-.107-.172-.077-.623-.22-.807-.119-.13.16-.895.172-.759.404.03.083.09.279.09.279l.35.041.005.255-.338.071c-.208.303.498.327.682.09.125-.15.326-.167.315-.007-.095.202-.433.309-.63.404-.296.047-.373.628-.598.818-.647.119-.872.107-1.513-.409-.231-.267-.415-.071-.237.142-.113.036-.706-.296-.44.273l.042.054c-.29.415.143.272.386.403.522.208 1.085.362 1.756.249m-1.804-2.586c.196.124.338.688.451.765.22.29.676 1.056 1.127.902v-.013c.13-.053.261-.444.267-.498a.825.825 0 0 0-.16-.148c-.421-.368-.676-.73-.688-1.068-.018-.107.243-.255.22-.356-.007-.385-.327.048-.452-.018-.07-.112-.302-.427-.45-.273-.09.042.023.273-.054.327-.03.041-.053.047-.154.047-.338-.006-.386.208-.107.332m-12.8 6.366a1.28 1.28 0 0 1-.137-.178c-.012.16.071.35.041.51-.023.124-.059.314-.094.433.201.196.326.22.545.136-.023-.314-.1-.682-.356-.901m4.971.794c-.041.202.143.285.178.445-.237.155-.492.16-.741.19-.13-.13-.184-.362-.41-.296-.13.03-.059.166-.16.225-.249-.024-.249-.024-.29.231.077.048.16.095.237.143-.19.907 2.272-.036 2.64-.303-.119-.202-.273-.344-.32-.581-.102-.392-.831-.071-1.134-.054m-4.27-1.548c-.398.718-.28 1.37.189 1.976.872.03 1.228-1.163 1.085-1.887.095-.065.178-.124.267-.19-.023-.094-.047-.172-.07-.26l-.44-.018c-.314-.41-.504-.416-.884-.048-.255-.1-.255-.1-.433.13.066.131.149.232.285.297m7.16 1.068c-.255.119-.6.243-.8-.065.444-.184.996-.137 1.304-.558.226-.273.202-.83-.231-.973-1.121-.314-2.308.255-3.447.35-2.135.582-.61-.456-2.301-.445.605 1.732 2.42.617 3.683.493-.089.201-.296.279-.38.462.446-.083 1.033.084 1.365-.26.172-.475 1.305-.534 1.038.112-1.067 1.044-4.401.065-5.884.736-.226.676-.617 1.127-1.27 1.31-.528-.326-.765.048-1.299-.1-.053-.06-.1-.119-.16-.16-.012-.006-.03-.018-.035-.03l-.066-.036c.006.013.006.018.006.03.013.309-.065.611-.184.896.689.273 1.448-.06 2.13-.243.273-.09.433-.368.736-.362.723.053 1.133-.552 1.75-.724.765-.148 1.542-.267 2.319-.255.901 1.222 1.062.184 1.862.6-.017.118-.041.236-.065.361.077.03.142.053.208.071-.077.309.373.48.433.095.006-.041-.012-.1.053-.113.48-.26-.255-1.524-.765-1.192m-7.599-3.102c-.03-.315-.107-.688-.356-.908-.279-.285-.374-.682-.089-.99-.142-.137-.332-.03-.468-.22-.178-.208-.291.03-.333.243-.504.077-.213.237-.1.51.166.463.765 1.572 1.346 1.365m4.615-.107c-.035.202.148.285.178.445-.231.154-.486.16-.736.196-.13-.137-.183-.374-.415-.303-.13.03-.06.172-.154.225-.255-.023-.255-.023-.29.232.076.047.154.1.23.142-.19.908 2.279-.035 2.646-.302-.118-.202-.273-.344-.32-.582-.1-.397-.836-.071-1.139-.053m-4.277-1.554c-.391.723-.279 1.37.19 1.981.878.03 1.234-1.169 1.091-1.892.095-.066.178-.125.267-.184-.023-.095-.047-.172-.065-.261l-.445-.018c-.314-.41-.504-.421-.884-.053-.26-.095-.26-.095-.433.13a.592.592 0 0 0 .28.297m7.177 1.073c-.261.119-.605.244-.807-.07.445-.179 1.003-.137 1.305-.553.225-.278.208-.83-.225-.978-1.127-.315-2.32.255-3.459.356-2.135.58-.61-.457-2.301-.451.605 1.738 2.426.623 3.69.492-.09.208-.297.285-.38.469.445-.09 1.032.083 1.364-.267.178-.475 1.305-.528 1.038.118-1.068 1.038-4.407.066-5.89.736-.226.676-.617 1.127-1.27 1.31-.45-.278-.694-.053-1.08-.064.019.124.054.243.09.367.03.13.041.255.053.386.451-.047.902-.22 1.323-.332.279-.09.439-.368.741-.362.724.053 1.133-.552 1.75-.724.766-.148 1.543-.267 2.326-.255.901 1.222 1.061.184 1.868.6l-.071.361c.077.03.142.054.208.071-.077.309.373.48.433.095.012-.041-.013-.107.053-.112.48-.261-.255-1.525-.76-1.193m-7.396-3.351c-.024-.315-.107-.682-.35-.902-.28-.29-.368-.682-.09-.99-.142-.13-.326-.024-.468-.214-.178-.208-.285.03-.326.243-.498.071-.208.237-.101.504.172.457.76 1.56 1.335 1.359m4.579-.113c-.035.202.148.285.178.445-.231.148-.48.154-.73.19-.13-.13-.184-.368-.415-.297-.13.03-.053.166-.154.22-.25-.018-.25-.018-.29.237.076.047.16.095.237.136-.19.902 2.26-.035 2.621-.302-.118-.202-.272-.338-.32-.57-.1-.397-.824-.07-1.127-.059m-4.241-1.542c-.392.718-.273 1.364.19 1.963.866.036 1.222-1.15 1.08-1.868.094-.066.177-.125.266-.184-.024-.101-.047-.178-.071-.261l-.433-.018c-.32-.41-.504-.415-.884-.053-.255-.095-.255-.095-.427.13a.58.58 0 0 0 .279.29m-1.833 2.629c.107.006.22-.12.332-.006-.012.059-.024.112-.03.178.694.302 1.466-.042 2.154-.226.278-.089.433-.362.735-.356.712.048 1.121-.551 1.738-.724.76-.142 1.53-.266 2.308-.249.89 1.216 1.05.184 1.845.594-.018.118-.042.23-.066.361.077.024.143.048.208.072-.077.302.368.474.433.094.006-.047-.018-.106.047-.112.475-.261-.249-1.519-.753-1.187-.261.119-.6.238-.8-.07.444-.179.99-.131 1.292-.547.226-.272.208-.824-.225-.972-1.115-.309-2.296.255-3.423.356-2.117.575-.61-.457-2.29-.445.606 1.72 2.409.61 3.666.486-.094.202-.296.279-.38.463.44-.09 1.027.083 1.353-.261.172-.475 1.3-.528 1.032.112-1.056 1.033-4.371.066-5.848.73-.22.67-.611 1.115-1.252 1.3-.528-.327-.765.047-1.293-.096-.149-.166-.297-.344-.522-.166v.243c-.25-.077-.528.273-.261.427m11.36 13.75c.29.446.373 1.151.871 1.412.226 0 .576.208.712-.065-.148-.528-.8-.836-.712-1.441.036-.143-.017-.28-.136-.404-.255.072-.789-.504-.593.184-.154.054-.25.16-.142.315m1.536-2.337c-.042-.689-.837-1.128-.593-1.816a.303.303 0 0 0-.09-.385c-.23.06-.23.06-.409-.048-.296-.148-.338.178-.314.392-.054.024-.113.053-.19.089.202.587.825 2.07 1.596 1.768m0 8.191c-.255-.498-.659-.955-.843-1.47.226-.321.125-.73-.296-.47-.107-.213-.267-.254-.463-.201-.06.136-.089.273.06.374.012.006 0 .041-.006.065-.048.018-.09.03-.137.047-.1.273.166.433.267.641.297.475.736 1.608 1.418 1.014m2.918-4.187c-.16 0-.201.213-.083.314.113.124.22-.012.35.024.006.07.006.13.012.19.688.041 1.727-.576 2.088-1.128-.142-.225-.284-.444-.427-.664-.373.119-.795.113-1.02.445.136.142.255.267.38.41-.25.136-.54.373-.813.148-.113-.101-.427-.054-.35.142.012.03-.006.071-.012.1a.475.475 0 0 1-.125.019m1.038 2.776c-.373.095-.747.124-.984.51.095.124.184.249.284.374-.183.468-.646.391-1.08.409.042.148.066.225.09.326-.184.095-.255.261-.214.492.048.013.107.036.16.054.125-.148.339-.303.392-.024.789-.255 1.489-.735 1.869-1.47-.226-.173-.416-.375-.517-.671m2.913-3.12c-1.281-.433-3.298 2.355-4.146 1.536-.208-.45-.843-.397-1.24-.279.48.344.741 1.11 1.47.86.825-.16 1.472-.824 2.184-1.133.018.243-.226.344-.326.57.492-.154.93-.29 1.287-.6-.06-1.346 1.868-.403.018.428.326.006.557.154.783-.119.42-.38.445-.925-.03-1.263m-5.125-2.112c-.13-.071-.297-.077-.44-.065-.242-.63-.675-.392-1.025-.018-.522-.202-.44.26-.166.516-.261.64-.077 1.584.599 1.856.712-.296.907-1.162.866-1.862.225-.036.403-.285.166-.427m-1.85 5.98c.67 1.613 1.684-.44 1.435-1.312.462-.38.332-.605-.232-.646-.195-.427-.623-.469-.913-.107-.107.13-.261.083-.398.095-.29.136-.13.45.125.522-.142.486-.208.973-.018 1.447m.178-9.111c-.225.652.006 1.518.611 1.874.694-.308 1.133-1.216.89-1.97.166-.141.374-.207.308-.438-.106-.267-.516-.071-.623-.374-.26-.362-.605-.065-.818.172-.154.018-.315-.065-.457.012-.154.28.267.445.09.724m6.47 6.893c-1.429-.184-1.215.8-1.915.569.124-.16.474-.25.362-.48-1.05.456-2.154.783-3.198 1.257-.534.564-.356 1.685-1.56 1.792-.041.58-.86.978-1.37.717-.202.19-.113.238-.083.416-.172.16-.41.522-.036.516.119-.024.208-.196.333-.143-.013.077-.018.149-.03.238.1 0 .231.03.267-.013.166-.207.397-.035.587-.201.617-.41 1.495-.79 1.448-1.65 1.085-.48 1.714-2.242 3.132-1.619.7.38.89-.759 1.518-.783.178.416.267.38.492.244.392.302.327-.173.48-.398.019-.213-.2-.469-.426-.463m-8.062-4.454c.143.041.09.201.155.285.717.047 1.441-.143 2.165-.232.545 0 .522-.48.92-.546.96.054 1.56-.794 2.46-.93.725-.208 1.703-.475 2.344.035.154.172.374.201.61.16.303-.054.671-.119.831.237l-.178.178c.036.065.072.142.107.22.149-.007.172.112.232.213.083.13.272.136.302 0 .036-.172.214-.089.267-.237.03-.44-.065-.99-.51-1.21-.22-.208-1.08.213-1.103-.214.64.142 1.874-.688 1.026-1.234-1.43-.332-3.002.362-4.455.522-.57.13-.285-.8-1.548-.551.812 1.696 2.562.492 3.927.48.006.154-.261.142-.196.332.397-.118 1.068.09 1.293-.302.125-.487 1.139-.374.842.184-.759.486-1.892.267-2.788.362-1.091.094-2.29.118-3.31.504-.201.634-.486 1.287-1.216 1.435-.51-.498-1.257.09-1.803-.41-.184.036-.214.143-.285.28-.273.1-.362.255-.089.439m7.563 1.346c.837-.012 2.777-.931 1.365-1.696-.79-.13-1.572.255-2.331.433-3.061 1.216-1.27-.273-3.168-.113.64 1.625 2.26.789 3.47.41.042.177-.184.219-.154.397.41-.083.795-.166 1.18-.243.166-.795 1.62-.807.955-.006-1.672.73-3.648.593-5.398 1.091-1.174 3.067-3.209.979-3.191 1.857-.457.041-.45.486.018.45.012.89 2.272-.148 2.687-.42.1-.214.196-.41.29-.617.689.338 1.17-.653 1.762-.825.594-.119 1.365-.7 1.869-.16.563.617 1.406-.326 1.898.296-.184.487.06.273.142.576-.006.273.451.267.457-.006-.006-.119.012-.196.13-.243.25-.38-.284-.801-.474-1.122-.41-.397-1.091.362-1.507-.059m-31.047-31c-.255.28-.682-.13-.415-.397.249-.273.676.13.415.397m-.777 1.65-.172.089c-.16-.327-.427-.961-.433-1.513 0-.125.196-.136.196-.012 0 .385.148.896.409 1.435m2.183-.557-.25.03c-.628-.51-1.405-.742-2.152-.611-.013-.072-.024-.137-.03-.202.854-.142 1.744.154 2.432.783m-.688-.931c-.255.278-.682-.13-.415-.398.255-.273.676.137.415.398m-1.442-.149c-.26.28-.682-.13-.42-.397.254-.273.681.13.42.397m2.682.943c-.255.28-.683-.13-.422-.397.256-.273.683.13.422.397m-.582-.48c-.255.273-.682-.13-.415-.403.25-.267.676.136.415.403m-5.493 1.24c.374.012.38-.576.006-.576-.373-.012-.38.576-.006.576m1.685.634.19-.059c-.125-.344-.392-.979-.783-1.37-.09-.09-.232.041-.142.13.266.273.533.736.735 1.3m-1.892 1.132.196-.16c.077-.806.456-1.518 1.073-1.963-.047-.06-.089-.113-.13-.16-.694.51-1.104 1.352-1.14 2.283M66.84 31.6h4.034v9.396h-8.761V31.6zm4.876 9.396c0-.184-.201-.314-.373-.255v.036c-.32 1.441-.16-4.479-.19-4.26l.29.12v-.69l-.29.12V31.7c.041-.22.38-.03.196.112v.036c.403.13.516-.516.089-.522l.267-.463-.06-.06c-.006 0-.486.262-.486.262-.006-.404-.682-.303-.558.083h.042c.142-.172.356.136.118.184h-4.028l.125-.273h-.73l.125.273H62.23c-.243-.036-.035-.362.113-.184h.041c.13-.386-.545-.487-.551-.083-.006 0-.487-.261-.487-.261l-.065.06.267.462c-.427.006-.315.652.089.522v-.036c.314-1.435.166 4.455.196 4.253l-.291-.118v.688l.29-.119c-.029-.1.12 5.665-.195 4.26v-.036c-.404-.125-.516.516-.09.522l-.266.463.065.06s.48-.262.487-.256c0 .397.682.297.551-.089h-.041c-.066.095-.232.047-.226-.065 0-.06.048-.107.107-.119h4.034l-.13.279h.729l-.125-.279h4.022c.066.012.113.06.113.119 0 .112-.166.16-.225.065h-.048c-.124.392.552.486.558.089.006-.006.48.261.486.255l.065-.06-.267-.462a.272.272 0 0 0 .28-.267m-8.981-4.312v.083c.017-.16.278-.042.148.07l.041.036c.267.03.303-.367.036-.38v-.005l.32-.142v-.095l-.32-.143v-.012c.267-.018.231-.415-.036-.386l-.041.042c.13.113-.13.231-.148.071 0 .012 0 .09.006.095h-.006v-3.464h.278v-.261h2.984c.166.03.024.26-.077.136l-.047.042c-.03.26.415.278.409.017l.16.32h.1l.155-.32c0 .261.439.244.41-.017l-.042-.042c-.107.119-.25-.107-.083-.136h2.995v.26h.273c-.03-.059.107 4.254-.142 3.299l-.047-.042c-.261-.03-.303.374-.03.386v.012l-.326.142v.095l.326.137v.012c-.273.012-.231.415.03.38l.047-.036c.25-.985.113 3.429.142 3.304h-.273v.261h-2.99c-.171-.024-.035-.261.078-.142l.041-.036c.036-.255-.397-.285-.409-.03h-.006l-.148-.308h-.107l-.148.309h-.006c-.013-.256-.433-.226-.41.03l.048.035c.106-.119.249.118.07.142h-2.977v-.261h-.279zm4.152-4.49zm3.363 3.724zm-4.164 4.485h-.006.006zm.813 0h-.006.006m3.078.255h.546v-8.72h-8.061v8.72zm-5.243-10.743c.195-.789.468-2.141.913-2.811l-.86-.291c.006.854-.445 2.183-.736 2.996.327.041.327.041.683.106m-4.693-1.59c-.006-.533.066-1.476-.16-1.933h1.104c-.172.492-.499 2.776.45 2.663.368.006.742-.249.73-.64-.012-.546.077-1.555-.16-2.023h1.103c-.255.86-.255 2.36 0 3.22h-.937c.024-.064.036-.171.036-.32-.961.683-2.249.345-2.166-.966m-2.36.883c1.245-.486.166-2.414-.938-1.957-1.234.469-.172 2.414.938 1.957m1.898.499.006.012c-.499.403-1.127.237-1.661-.048-1.554.872-3.221-1.168-1.981-2.473 1.31-1.56 3.903.207 2.651 1.928.41.314.736.504.985.581m-7.273.433c.006-.006 1.026 0 1.032 0-.391-.617-.7-1.127-.7-1.127.356-.208 1.116-.51 1.454-.487l-.813-.617-2.485 1.483.284.961h.012c.202-.391.505-.712.837-.895.077.136.213.38.38.682M48.605 34.7c-1.495-.095-1.804-2.675 0-2.283v-.63c-2.338-.136-2.302 3.572 0 3.495zm-.665.98c-.528-.422-1.216.337-1.761.456-.926.06-.19-1.103.373-1.187l.006-.012-.45-.332c-.843.427-1.484 2.254-.125 2.296.29.012 1.032-.498 1.27-.552.64-.124.438.736.053.943.19-.012.391-.035.57.012.355-.504.586-1.227.064-1.625M67.89 58.286l1.791-1.038c-.23-.172-1.625-2.45-1.672-2.728l-1.697.984.077.694h.012c.267-.332.647-.64 1.133-.925l.528.866c-.279.142-.866.504-1.091.54l.314.38.99-.57.505.825c-.332.184-.64.284-.931.296zm7.1-6.305.309-.593-2.574-1.726-.28.54c.096.124 1.774 1.115 1.774 1.115s-2.764.361-2.894.575l2.568 1.762.303-.433c-.13-.083-1.543-1.003-1.543-1.003s2.26-.255 2.337-.237m1.317-2.569.57-1.933c-.29.017-2.895-.736-3.126-.908l-.54 1.833.546.463.006-.006c-.042-.422.017-.896.172-1.424l.984.285c-.095.29-.267.943-.403 1.115l.492.071.315-1.068.943.273c-.107.356-.267.635-.469.837zm-5.498 6.964c2.004-.878 1.554-2.87-.706-1.957-.95-.273.249-1.234.878-1.026l.017-.012-.48-.564c-.712.314-1.845 1.27-1.24 2.082.415.54 1.264-.035 1.815-.03.92.167-.07 1.122-.634 1.068l-.013.012M47.004 42.211l.047-.7c-.937.172-2.45.172-3.38-.006l-.048.7c.937-.178 2.45-.178 3.38.006m.315 11.437.552.765c.587-.718 1.803-1.596 2.67-1.928l-.552-.765c-.214.35-.688.694-1.056.95l-.849-1.175c.356-.267.831-.611 1.234-.706l-.557-.766c-.588.724-1.798 1.602-2.67 1.934l.558.765c.214-.35.682-.694 1.044-.949l.854 1.175c-.362.273-.83.61-1.228.7m-2.017-5.274c.694-1.263 3.008-.51 2.053.926-.718 1.222-2.996.534-2.053-.926m-.183 1.697c1.583 1.518 4.075-.914 2.432-2.474-1.584-1.536-4.117.914-2.432 2.474m-1.169-4.206.184.712 3.28-.41-.16-.64c-.166-.035-2.213.338-2.213.338s1.94-2.266 1.893-2.533l-3.31.368.07.575 1.947-.272s-1.62 1.827-1.691 1.862m42.401 4.71c-.089.101-.676 1.774-.872 1.709-.083-.137-.267-.226-.421-.178-.09-.042-.119-.167-.077-.28.112-.112.658-1.82.913-1.702.071.16.267.261.433.22.048.06.06.148.024.231M84.754 56.4c.054-.42-.492-.652-.712-.29.06-.16-.148-1.762.149-1.762.124.089.29.107.421.012.095.012.166.107.166.213v1.733c0 .035-.012.065-.024.094m.86 3.014c-.51 2.942-4.288.03-1.583-1.21.124.279.557.296.682.006.522.154.901.634.901 1.204m.392-9.847c-.83-.516-1.287 1.768-1.596 2.16-.142.337-.012.693.291.806l-.611 1.263c-.326-.053-.611.196-.611.576.125.492-.368 2.634.504 2.657v.593c-2.1.374-1.785 3.684.374 3.63 2.141.054 2.48-3.226.397-3.624v-.569c.327.053.611-.196.611-.575-.112-.48.333-2.545-.433-2.652l.463-.96c.789.426 1.246-1.804 1.542-2.184.143-.314.036-.67-.243-.783l.356-.73c-.1-.13-.303-.433-.498-.753zm.492-1.24v.006a6.5 6.5 0 0 1-.184-.338.471.471 0 0 0 .184.332M60.707 2.604c-.107.824-.54 1.46-1.074 1.56v.208h1.044a.909.909 0 0 0-.13.13c-1.863.415-2.053 3.263-.273 3.927-.694-.67-.16-1.964.818-1.928.985-.035 1.519 1.258.819 1.928 1.785-.67 1.59-3.512-.273-3.927-.036-.047-.083-.089-.13-.13h1.043v-.208c-.533-.1-.966-.736-1.067-1.56.824.107 1.459.534 1.56 1.074h.207V.753h-.207c-.101.54-.736.967-1.56 1.074.1-.825.534-1.46 1.067-1.56V.059h-2.918v.208c.534.1.967.735 1.074 1.56-.825-.107-1.466-.534-1.56-1.074h-.214v2.925h.214c.094-.54.735-.967 1.56-1.074m.901 5.422c.718-1.335-1.744-1.335-1.026 0a1.023 1.023 0 0 1 1.026 0m-.973 1.358a1.03 1.03 0 0 1 .914 0c.925-1.424-1.833-1.424-.914 0m.457 1.572c.836.012.836-1.3 0-1.287-.836-.012-.836 1.299 0 1.287m0 1.62c.836.011.836-1.306 0-1.294-.836-.012-.836 1.305 0 1.293m0 1.614c.836.012.836-1.3 0-1.287-.836-.013-.836 1.299 0 1.287m-1.815.006h.795c0-1.519-.149-4.372-1.092-6.442-.213-.475-.943-.137-.723.326.658 1.436 1.02 3.607 1.02 6.116m2.841 0h.79c.005-2.51.367-4.68 1.02-6.116.219-.463-.51-.8-.718-.326-.95 2.07-1.092 4.923-1.092 6.442m-6.424-5.523c.771.012.771-1.198 0-1.186-.771-.012-.771 1.198 0 1.186m-5.06 3.66c.771.012.771-1.204 0-1.192-.77-.006-.77 1.204 0 1.192m6.537-4.194c.771.012.771-1.204 0-1.192-.771-.012-.771 1.204 0 1.192m-8.388 6.745c.772.012.772-1.204 0-1.192-.77-.012-.77 1.204 0 1.192m.86-1.323c.772.006.772-1.204 0-1.192-.77-.012-.77 1.198 0 1.192m4.645-4.188c.771.012.771-1.198 0-1.186-.77-.012-.77 1.198 0 1.186m-6.222 6.91c.77.013.77-1.203 0-1.191-.771-.013-.771 1.204 0 1.192m3.677-5.066c.772.012.772-1.204 0-1.192-.77-.012-.77 1.204 0 1.192m1.222-.99c.772.012.772-1.199 0-1.187-.77-.012-.77 1.198 0 1.186m18.982 2.735c-.012.771 1.199.771 1.187 0 .012-.771-1.198-.771-1.187 0m-.397-.629c.771.012.771-1.204 0-1.192-.771-.006-.771 1.204 0 1.192m1.258 1.958c-.013.77 1.204.77 1.186 0 .012-.771-1.198-.771-1.186 0m.717 1.394c-.012.77 1.204.77 1.193 0 .006-.771-1.205-.771-1.193 0m-3.084-4.467c.77.012.77-1.204 0-1.192-.771-.012-.771 1.204 0 1.192M67.9 9.372c.772.012.772-1.198 0-1.186-.77-.012-.77 1.198 0 1.186M65.02 8.138c.771.012.771-1.204 0-1.192-.777-.012-.777 1.204 0 1.192m1.477.534c.771.012.771-1.198 0-1.186-.771-.012-.771 1.198 0 1.186m2.729 1.554c.77.013.77-1.198 0-1.186-.771-.012-.771 1.198 0 1.186m-19.813 5.82 1.086-.344c1.673-3.038 4.46-5.286 7.765-6.116a8.611 8.611 0 0 0-.255-.807c-3.761.973-6.887 3.672-8.596 7.267m22.28-.35 1.08.35c-1.708-3.595-4.835-6.294-8.595-7.267-.09.255-.172.522-.25.807 3.305.83 6.093 3.078 7.765 6.11M50.183 58.203c.422.795 2.86 2.954 3.524 1.934-1.192-.605-3.21-2.094-2.438-3.98-1.75-1.074-.202-2.794 1.163-1.335 1.453-.901 3.066-.255 4.502.736.516-1.11-1.987-1.88-2.569-2.207-.735-.249-3.055.279-3.832.309a.993.993 0 0 0-.866 1.073c.119.564.107 3.02.516 3.47m2.7-.498c1.898.006 1.648-3.001-.22-2.687.866.469 1.62 1.708.273 2.07-.51.107-1.032-.439-1.4-.712a1.35 1.35 0 0 0 1.346 1.33m.22-1.258c.492-.588-1.228-1.359-1.483-1.685-.202-.125-.457-.095-.593.083-.487.558 1.198 1.347 1.435 1.655.208.16.493.136.64-.053m10.577 8.5c-.64.065-.972.498-1.305.937-.302-.184-.694-.373-1.061-.373a.849.849 0 0 0-.558.19c1.174.462.753 2.23-.386 2.236-1.133-.006-1.554-1.774-.385-2.237a.834.834 0 0 0-.552-.19c-.368 0-.76.19-1.062.374-.338-.439-.67-.872-1.31-.937.355 3.239 1.832 4.864 3.31 4.864 1.482 0 2.96-1.625 3.31-4.864m-.534.7c-.457 2.568-1.685 3.731-2.777 3.731-1.091 0-2.313-1.163-2.77-3.731.137.124.273.297.427.498l.238.315.332-.208a3.09 3.09 0 0 1 .415-.214 1.577 1.577 0 0 0-.124 1.015c.142.77.753 1.31 1.488 1.317.73-.006 1.341-.546 1.483-1.317a1.618 1.618 0 0 0-.124-1.015c.124.054.267.125.41.214l.331.208.244-.315c.154-.201.284-.373.427-.498m-6.17-6.982c.155-.712-.967-.937-1.103-.22-.154.712.967.938 1.103.22m3.832 1.904c.16-.712-.967-.943-1.097-.225-.16.712.961.943 1.097.225m-.812 3.453c-.125.575.777.759.89.184.124-.576-.784-.76-.89-.184m.13-18.17c-.427-.035-.878-.118-1.293-.16-.807.706.1 1.103.706 1.05.516.136 1.21-.546.587-.89m-6.697 1.893c.884 1.12 1.756 2.271 2.622 3.404.13.018.368.072.368.072l-3.132-4.159s-.054.422.142.683m3.85 3.375-3.838-5.096s-.077.244-.107.35c.285.374 3.678 4.876 3.678 4.876zm-.374 2.046c-.065-.023-.13-.041-.213-.07-.101.278-.261.788-.013.966l1.252.534 1.602-1.192.433-6.437-.469.036c-.13.012-1.002 7.439-1.46 7 .09-.487 1.158-7 1.158-7s-.315-.047-.475-.065c-.024.148-.06.344-.06.344l-1.767-2.332-.231.113 1.892 2.492-.119.444c-.178-.112-2.005-2.657-2.189-2.888l-.373-.03 2.467 3.215-.13.433-2.764-3.636-.356-.006 2.99 3.95-.155.564-3.286-4.467-.44.013 3.637 4.798-.13.445-4.01-5.243-.071.403s3.737 4.911 3.968 5.232c-.196.605-.047.658.214 1.157.142.557-.244 1.43-.902 1.227m-4.312-2.313c.45.261.949.546 1.4.8-1.116 1.36.883 1.946.777.624.747.32 3.69 1.222 2.509-.534-3.856.124-5.82-3.921-3.69-7.012 1.3.588 5.855-1.631 5.475.63.244.248.309.272.849.272 1.322-3.031-3.221-2.13-4.853-1.774-1.453.433-2.788-1.696-4.075-.528-.51.451-.178 1.454.516 1.49.617.017.79-.831.243-1.092 1.199-.404.623 1.518.19 2.01-1.376-.711-1.601 1.501-.243.92.06.398.077.79-.018 1.169-1.483-.32-1.085 1.803.024.949.32.308.468.777.504 1.234-1.483.213-.297 2.117.392.842m-15.637-31.03c-.018-.29.19-.86.19-.86-.29.119-.89.356-1.186.475 0 0 .545.267.73.492-.25.09-.487.13-.837-.03l.463.914c.094-.403.308-.64.462-.67.499.759-.741 1.601-1.275.949-.154-.273.03-.57.35-.344-.048-.564-.54-.564-.688-.142.012-.582-.137-.932-.748-1.104-.154.582.036.926.617 1.175-.326-.042-.688.284-.237.694.006-.368.308-.41.475-.16.266.676-.534.937-1.187.249.149-.054.303-.03.51.017l-.623-.788c.03.278.013.48-.047.605-.13-.16-.178-.291-.231-.594l-.475.416c.451.284.961.735 1.584 1.625.83-.813 4.17-2.207 5.457-2.171-.16-1.074-.1-1.75.036-2.272l-.629.024c.166.26.225.385.231.593-.124-.053-.273-.184-.445-.403l.09.996c.118-.178.213-.297.355-.362 0 .95-.759 1.311-1.032.635-.047-.297.202-.475.457-.214.047-.605-.439-.593-.647-.338.25-.575.149-.967-.361-1.275-.327.54-.196.896.22 1.31-.398-.2-.76.137-.404.576.077-.38.409-.29.486.012.06.843-1.418 1.08-1.584.184.137-.083.457-.053.807.172l-.297-.978c-.142.35-.344.486-.587.593m-3.506-.718c.374.006.386-.582.006-.582-.367-.006-.38.582-.006.582m.908-1.14c.374.013.38-.575.006-.575-.374-.012-.38.576-.006.576m-1.21 2.574c.38.012.385-.575.012-.575-.374-.012-.386.575-.012.575m.065-.753c.374.012.38-.576.006-.576-.368-.012-.38.576-.006.576m1.661-3.974h-.006l-.575.041.302.76.404-.475c.03.012.053.023.077.035l.06 1.015c.106.89 1.464.344.919-.368l-.653-.777c.018-.024.024-.054.036-.077l.623.065-.303-.76-.45.368c-.025-.017-.048-.023-.072-.035l-.054-.736c-.19.078-.563.226-.747.297l.469.57a.288.288 0 0 0-.03.077m1.679 3.025c.243-.226-.125-.6-.362-.368-.243.231.119.605.362.368m-.32-.67c.243-.226-.125-.6-.362-.368-.243.231.118.605.362.368m44.085-7.866c.125-.463-.528-1.074-.996-.89.06.51.593.955.996.89M74.48 36.042c.451-.26.914-.462 1.317-.783-.095-.136-.16-.237-.267-.385-.385.38-1.293.504-1.05 1.168m2.533-1.02c.226.391.457.777.676 1.157.878 0 .13-.736-.07-1.05-.113-.125-.363-.125-.546-.178zm4.366-23.55c-.338-.723-.51-.812-1.228-.735.297.712.724.979 1.228.735m-.469.445c.25.849.582 1.027 1.454.902-.279-.694-.73-.973-1.454-.902m-1.815 10.108c-.955-.445-1.732.125-2.693-.089.273 1.335 1.857.362 2.693.09m2.747-8.768c-.048.842.658 1.329 1.827 1.27-.303-.855-.908-1.318-1.827-1.27m3.114 2.96c.024-.036.054-.071.077-.107-.694-.99-.985-1.192-2.207-1.198.018 1.198 1.258 1.198 2.13 1.305M72.724 34.221c.238-.646 1.466-2.23.801-2.723-.302.178-.949.101-.884.582-.006.706-.006 1.412-.006 2.111.03.013.06.018.09.03m-3.761-4.431c.273-.024.51-.041.753-.06.261-.978-.296-1.085-.96-1.607-.274.807-.986 1.204-1.389 1.886.653-.047 1.032-.255 1.406-.765.065.19.13.368.19.546m7.61 7.29c-1.63 2-1.643 2.29.843 3.15-.024-.225-.036-.374-.054-.546-.486-.142-.967-.326-1.4-.617.315-.391.605-.753.908-1.127-.083-.255-.178-.522-.297-.86m1.027 5.861c-.457-.036-.89-.071-1.389-.113.018.25.036.433.054.63.273.07.51.13.765.189.077 1.453-.724 1.477-1.803.872-.32 1.833 2.64 1.649 2.373-1.578m6.097-25.068c.558 0 1.353.35 1.81.03.012-1.756-2.13-1.525-3.352-1.56.368.658.83 1.304 1.542 1.53m4.675 2.183c.51 1.21 1.323.92 1.856 1.714-.45-.148-.836-.273-1.222-.403-.03 1.287 1.596 1.423 2.492 1.922-.142-2.088-1.157-2.877-3.126-3.233m.332 6.643-.095.018c-.267 1.18.552 2.213 1.068 3.215.884-1.583.854-3.375-.57-4.627-.439.837.166 1.638.38 2.433-.024.012-.053.023-.083.035a66.549 66.549 0 0 1-.7-1.074m.332-7.681-.018.1a64.045 64.045 0 0 0-1.127-.059c.415 1.335 1.964.688 2.936 1.293-.557-1.067-.96-2.111-2.26-2.32.137-.634-.035-1.233-.427-1.47.006.557-.225.96-.735 1.174-.25 1.104.901 1.05 1.631 1.282M40.36 29.208c-1.174.072-1.002-1.411-1.352-2.242-.214.244-.392.445-.582.659.244.824.487 1.649.748 2.527.195-.137.362-.255.534-.38.824.581 1.577.178 1.85-.73.244.066.463.167.641-.012-.386-.795-.76-1.56-1.139-2.349-.231.054-.457-.284-.735-.017.26.735 1.233 2.2.035 2.544m48.908-6.5c-.427.818.795 1.156.813 1.927-.326-.255-.6-.474-.908-.718-.385 1.507 1.394 1.993 1.946 3.18.718-2.2.326-3.536-1.85-4.39M49.524 57.165c.498-.462-.178-.73-.445-1.091-4.449-4.14-6.11-9.527-5.718-15.506-.107-.053-.244-.119-.463-.231-.747 6.34 1.702 12.741 6.626 16.828M34.713 29.707c.267.652.67 1.412 1.335 1.684-.338-1.293.528-2.414.937-3.582.006 2.687-1.519 4.146 2.165 5.137-.979-1.584-.332-3.506-.955-5.131-.587-.339-1.258-.428-1.661-.92-.107-.237-.308-.32-.522-.368-.694-.154-1.335-.38-1.685-.96-.504.16-.812.142-1.275-.054-.041.575.445 1.15 1.092.931-.517.754-.232 1.43-.042 2.207.368-.777.931-1.24 1.566-1.637-.486.824-1.347 1.655-.955 2.693m7.23-5.339c.185.89-.07 1.631-.652 2.331.878 1.566 2.355 2.753 3.014 4.45 1.459-2.735-.101-3.649-2.112-5.15 1.293.47 2.592.908 3.31 2.136.154-2.343-.884-3.512-3.156-3.874l.018-.094c.95-.042 1.892-.042 2.776.54-.231-.73-.824-1.804-1.679-1.709.309-.647.303-1.074-.012-1.46-.142.452-.427.73-.895.748.1.813-.166 1.483-.611 2.082m-7.723.593c.023-.308.041-.599.065-.93-.35-.06-.67-.114-1.032-.179.427-.314.931-.391 1.346-.231-.356 1.495.28 2.55 1.875 2.634.492-.73.931-.843 1.406-.327-2.112-.22-.546 2.011.534 1.258.284-.415 1.198-.777.93-1.364-1.672-1.222-1.553.58-1.868-2.438l-.213-.018c-.154.57-.718 1.014-1.18.474-.16-.184-.303-.35-.564-.397 1.145-.914 2.509.41 2.426-1.744 1.281 1.601 1.388-.178 2.657-.202-.059 1.27-.32 1.169-1.411 1.098.35.272 1.714 1.63.919 1.761-.332-.854-.884-1.678-1.827-1.85-.765.759-.391 1.613-.273 2.491.676-.231 1.258-.67 1.97-.611.237.7-.884 1.086-.25 1.78 1.092.178 2.278.183 1.928-1.365-.356-.207-.706-.356-1.073.036.017-.6.605-.7 1.061-.588 1.009-1.073.67-2.485-.409-3.345.285-.421.587-.718 1.103-.819-.172.362-.54.499-.622.83.237.291.462.57.688.843.575-.26.73-1.168.314-2.094-.712.184-1.97.777-1.97.777-.616-.231-.35.071-.266.368-1.964.362-3.897.878-5.458 2.183-.284.202-.409.083-.504-.314-.184-.291-.273.207-.296.326 0 0-1.18.29-1.697.73.362.599.878 1.548 1.69 1.227m46.785 19.053c-.545.084-.67.32-.57.855-.616 1.322-.628 2.924-1.678 4.045 2.254-.634 1.756-1.489 2.302-3.197-.113 2.32.006 2.29.848 3.873-1.732 1.222-4.568.202-5.517 2.569.261.302.605-.006.955.077-.225.273-.32.593-.682.83.083-.225.13-.367.178-.51-.652-.22-1.18 1.27-1.667 1.75 4.633-.937-.563-2.295 8.572-3.357 1.613-.765-1.525-1.952 1.643-3.957.285-1.097.457-2.23 1.05-3.215.142-.326-.083-.783-.38-1.014-1.388.979-2.052-.6-5.054 1.251M44.84 54.366c.433.077.907.16 1.328-.03-.652-1.103-1.293-2.195-1.957-3.322-1.157 1.424-3.162.552-4.425-.32-1.026-.76 1.192-1.94.48-4.461.99 1.59-.807 2.972 1.964 3.862-.801-1.193-.694-2.729-.991-4.093-.041-.238-.154-.469.036-.706.094-.326.112-.771-.333-.819-3.096-1.773-2.467-.913-5.487-1.329-.735 1.311.837 2.474.588 3.755-.22.63.73.6.717 1.21.208.95.107 2.284-.978 2.652-.54.326-.107 1.014.361 1.174-.96 1.733-.225 2.011 1.246 2.877.006-.67.018-1.251.297-1.82 2.023 1.346-.99 1.571 3.02 3.203-.404-.677-.392-1.406-.458-2.077.38.09.754.172 1.127.261.44 1.863 1.442 2.023 3.215 1.857-.634-.629-.812-1.447-1.275-2.1.534.178 1.068-.19 1.525.226m41.66-6.033.053.089.017-.036zm.622-.279a.378.378 0 0 1 .214.214.2.2 0 0 0 .195-.095c.036-.107 1.092-1.495.973-1.59-.118-.042-.225-.119-.26-.243-.102-.095-.25-.143-.35.006-.036.172-1.217 1.506-.92 1.678.053 0 .1.006.148.03m12.813-10.197c-.742.226-1.05.842-1.329 1.548-1.868-2.918-5.416-4.93-5.961-8.494.42-2.847 4.2-2.2 3.428.771 1.958-1.05 1.015-3.013-.83-3.357 2.005.16 3.102 1.856 4.472-.961-1.186.427-2.995.124-3.618.03 2.497-.339 3.856-.315 3.779-3.418-.849 1.863-3.204 1.893-4.918 2.498.113-.825-.148-1.329-.807-1.596.677 4.526-7.913 3.055 1.525 12.83-1.157-.64-2.503-.426-3.625-1.138.872 2.355 2.35 1.951 4.277 2.77-2.07-.012-2.71 2.01-1.18 2.978-.398-1.56 1.744-2.634 2.817-1.412 2.45 3.15-2.034 7.522-6.014-.368.03.433-.273.825-.694.694l-.451 1.246c.913.338-.487 2.1-.582 2.604-.16.338-.516.439-.777.255l-.445.914c.552.504-.925 1.94-1.097 2.384-.172.255-.475.344-.694.208l-.16.332c.03.042.053.071.06.065 1.008 1.193 1.464 2.106 1.197 3.376.813-.7 1.18-2.64.528-3.696.736.771 1.81 1.317 2.23 2.302.428 1.791.102 3.565-1.114 4.976-.516.522-.38.79-.445 1.43-.344 1.008-1.549 1.091-2.005 1.946-.32.747-.849 1.358-1.074 2.147 1.37-.22 1.133-2.13 2.426-2.515-.522.8-1.032 1.53-1.394 2.462 1.086-.285 3.126-.576 2.782-2.1-.255-.706.427-1.169.398-1.845.854-.309.658-.653 1.067-1.323.19.403.202.748.172 1.186-.1-.219-.172-.355-.243-.516-.605.825-.1 1.626-.184 2.51 2.984-2.676-.984-2.658 2.118-8.59.712-1.18-2.029-1.05-2.23-3.719-.196-1.157.818-2.1 1.038-3.203 1.192 2.13 5.362 2.052 4.793 4.769.842-.635.8-1.791.474-2.663 4.307-1.549.908-5.511 2.29-8.317m-10.155 6.828c.017-.166.913-1.65.682-1.78a.386.386 0 0 1-.421-.207c-.22-.09-.783 1.524-.884 1.625.284-.178.646.113.551.445a.241.241 0 0 0 .072-.083m.89-4.265a.236.236 0 0 0 .065.178c.16-.137.415-.084.533.083.184-.054.125-.63.16-.766a8.614 8.614 0 0 0-.664-.652zm-23.29 27.79c2.89-.575.327-4.027-3.238-2.622-.314 1.37-.593 2.664-1.75 3.69 2.296.1 4.514-.047 6.656-.955 1.061-.64 1.061-2.948 2.212-4.194-1.31-.26-.7 4.218-3.88 4.081m-10.855-2.568c-3.553-1.412-6.133 2.034-3.232 2.616-3.186.136-2.569-4.342-3.886-4.075 1.151 1.24 1.151 3.553 2.213 4.187 2.141.914 4.366 1.062 6.655.955-1.15-1.026-1.435-2.319-1.75-3.683m18.917-35.378c-.1-.118-.124-.279-.035-.403-.155-.03-.41 1.382-.463 1.465.107.1.196.196.279.297.13.035.362.112.41-.078l.32-1.251c-.155.136-.392.148-.51-.03m15.167 6.11a.376.376 0 0 0-.403.498.142.142 0 0 1-.077-.03l-1.258-.853a.21.21 0 0 1-.06-.262c.238-.006.493-.13.457-.415.101.119 1.454.843 1.34 1.062m-4.62-4.366-.225.285c-1.394-1.59-6.098-3.41-8.127-3.114 0 0 .024-.238.041-.362l-.017.006.77-.492-.658-.546c.006-.077-.42-2.753-.42-2.753l1.162-.03s-.415.487-.433.873a.558.558 0 0 1 .16.19c.231-.095.486-.582.486-.582l.107 1.584s-.326-.457-.558-.54a.411.411 0 0 1-.083.16c.333 1.044 1.869 1.11 1.869.208-.054-.463-.57-.385-.54.107-.842-.67.297-1.732.76-.665-.06-.61-.007-.96.474-1.269.314.403.273.777-.071 1.376 1.032-.955 1.423.665.457.908.468-.854-.89-.587-.386.308.45.694 1.56.593 1.946-.166a.592.592 0 0 1-.054-.142c-.385-.077-.96.255-.96.255l.533-1.46s.226.624.546.82a.44.44 0 0 1 .213-.113c.06-.386-.326-.985-.326-.985l1.792.688s-.706.184-.938.498a.467.467 0 0 1 .077.226c.374.07.973-.232.973-.232l-.64 1.418s-.184-.623-.516-.824a.419.419 0 0 1-.149.065c-.255.824.493 1.62 1.305 1.418.985-.297.208-1.424-.06-.48-.533-.825.902-1.733.968-.357.178-.658.409-.967.925-1.044.13.54-.077.83-.558 1.24 1.104-.469 1.157 1.068.09.985.367-.344.041-.736-.32-.433-.641.664.557 1.619 1.488 1.144 0-.059.018-.118.042-.172-.231-.16-.783-.178-.783-.178l1.145-.848s-.137.516-.024.783a.445.445 0 0 1 .25.03c.248-.25.26-.914.26-.914l.854 1.062s-2.147.99-2.527 1.281l-.593-.059.29.836zm-6.317-7.765c.355.13.7.32 1.055-.041-.344 0-.45-.243-.551-.475-.166-1.186 1.762-.765 2.485-.682 1.81 1.104 4.894.404 3.82-2.218.837.516.552 1.951-.083 2.509-1.678.908-3.262.225-4.935 1.999-.255-.813-1.216-.765-1.566.13-.314.018-.398.013-.7.036-.06-.475.32-.813.475-1.258m4.478-4.543c-.54.367-1.02.907-1.566.172-.124.03-.231.047-.356.07.807-1.25.742-1.031 1.922-.242m1.821-2.866c.398.44.57.92.57 1.466-.38-.137-.552-.552-.57-1.466m-16.68 7.1 2.023-.717.741 1.495-1.406.896zm-1.305-.349c-.255 1.542-3.725.878-3.387-.653.255-1.548 3.725-.877 3.387.653m-6.893.67-2.165-1.524 2.165-1.53 2.165 1.524zm-4.971.19c-2.195.445-2.663-1.975-.457-2.379 2.201-.444 2.664 1.976.457 2.38m-4.585 1.162-1.406-.896.741-1.495 2.023.718zm26.693-4.864c.178-.018.32-.036.51-.054-.332-.243-.006-.581.273-.344.664.522-.67 1.364-.783.397m13.424 17.351-.184-.024-.498-1.346c.231-.297.356-.777-.012-1.02-.48-.19-1.845-1.75-2.255-.742-.172.065-1.257.125-1.34.326a12.551 12.551 0 0 1-1.281-2.663c.213-1.127 3.197-2.533 3.197-2.533s-.848-1.222-1.186-1.904c-.149.332-.291.19-.617.338 1.66-2.948 2.01-6.822-.184-9.604-.226-.48-.119-1.115-.338-1.59-.38-.504-.647-1.488-1.317-1.595-.006.878-.095 1.732.326 2.545.45.563-.611 1.044-.943.593.635-.071.741-.202.522-.558-2.735-.61-4.265 1.311-6.875 1.614-.232-.006-.44.077-.57.29-1.607 2.166 2.005.689 2.32 2.124-.605.498-.688.172-1.252.024-.813.03-1.602.285-.587.973-.623.972-.587 1.317-1.85 1.4.545.77.432 1.886.574 2.758-.901.172-1.512.605-1.53 1.56-.403.095-.836-.119-1.127.32-.564-.468-1.21-.557-1.886-.563a14.738 14.738 0 0 0-1.993-1.264c.172-.634.332-1.234.486-1.791.255-.16 1.157-.736 1.394-.89-.125-.243-.6-1.204-.73-1.465 1.614-5.552 2.136-5.86 2.954-5.98l.042-.16-2.984-.955-.053.196c.753.552 1.003 1.46.659 2.521-.801-.344-1.252-1.097-1.169-1.773-.012-.006-.196-.054-.196-.054l-.996 3.31s.142.048.154.048c.397-.564 1.08-.884 1.868-.754-.919 2.942-5.077 2.023-4.33-.468.528-1.033 1.53-.374 1.05.705 2.331-.818.955-4.17-1.038-2.17.658-1.353 1.032-2.409.202-3.714-1.074.688-1.347 1.94-1.14 3.6-1.316-3.007-3.612.09-1.743 1.662-.344-2.237 2.414-.76.552 1.038-1.78 1.257-3.969-.184-4.028-2.409 1.026.095 1.809.706 1.916 1.466l.19.006.124-3.79s-.213-.013-.231-.013c-.16.765-.99 1.418-2.047 1.435.071-1.168.742-2.076 1.608-2.224v-.22h-4.378v.22c.872.148 1.542 1.056 1.614 2.224-1.056-.017-1.893-.67-2.053-1.435l-.231.012.13 3.79.19-.005c.1-.76.89-1.37 1.916-1.466-.065 2.225-2.254 3.672-4.034 2.409-1.862-1.798.896-3.275.558-1.038 1.863-1.572-.433-4.669-1.744-1.661.202-1.661-.071-2.913-1.145-3.601-.83 1.305-.457 2.36.208 3.713-2-1.999-3.37 1.359-1.044 2.171-.48-1.08.522-1.738 1.056-.705.741 2.49-3.417 3.404-4.337.468.79-.13 1.477.19 1.869.754.012 0 .16-.048.16-.048l-1.002-3.31s-.178.048-.196.054c.089.676-.368 1.43-1.163 1.773-.344-1.062-.1-1.97.653-2.52l-.054-.197-2.983.955.041.16c.819.12 1.34.428 2.954 5.98-.13.267-.605 1.216-.723 1.465.225.148 1.144.73 1.388.89.142.51.29 1.05.439 1.625.006-.006.012-.006.023-.012-.012.024-.018.03-.023.012-4.016 1.875-3.103 3.15-6.193 2.782-.28.64-.534 1.276-1.163 1.709-.119-.98-.558-1.738-1.133-2.432-.285-.333-.676.035-1.097.07-.843 1.828-1.424.173-2.901 1.128.06.854.19 1.702.658 2.491-1.097-.077-2.005-.374-2.734-.89-3.286 3.666-6.715 7.19-9.52 11.23-1.502 1.975-5.512.824-4.456-1.905.487-1.993 3.364-1.572 3.186.41 1.423-1.584.51-3.156-1.667-2.806 1.993-.86 3.191.77 4.995-1.477-1.377.035-2.545-.398-3.916-.083 1.739-1.038 4.117.504 5.6-2.367-1.287.142-2.456.682-3.79.878 8.014-7.64.302-8.014 1.281-11.318-.623.534-.985 1.062-.694 1.773-1.797-.747-4.46-.528-5.184-2.71-.178 3.108 1.186 2.888 3.535 3.523-1.086-.124-2.153-.136-3.168-.51.208 1.394 1.264 1.69 2.51 1.554-1.217.676-.938 2.408.296 3.008-.789-4.497 5.938-2.955 2.865 1.174-1.424 2.124-3.488 3.707-5.22 5.564-.332-.57-.67-1.133-1.43-1.056 1.323 1.525-.166 3.186-.521 4.758-.51 1.945 1.21 3.6 3.054 3.826-.735.872-.794 1.643-.23 2.355.557-2.854 4.697-2.213 5.089-5.303.07-.362.243-.647.652-.813-1.868 2.106 2.616 6.578-1.596 7.1-.605.018-.753.647-.42 1.098-1.745-.09-2.22.575-2.486 2.218.765-.196 1.483-.385 2.2-.57-.759 1.988-2.479-.118-2.194 3.423a20.428 20.428 0 0 0 2.01-1.097c.624 1.987-3.161 1.127-.32 4.295.178-.588.938-1.804 1.323-2.07-.35.996-.267 2.153.854 2.598.054-.267.095-.505.143-.736.053 0 .041 0 .095-.006.16.659.183 1.584.824 1.964a.616.616 0 0 1 .397.42c.113.369.457.47.79.51.415.09.521-.385.83-.575.089.522.706.606 1.008 1.05.232-2.58-3.185-1.643-2.402-3.345.302 1.038 1.27.813 1.952 1.234.26.433.901.789 1.227.19.32.243.605.456.89.67-.67-3.067-2.254-1.169-3.256-2.776.694.03 1.441 1.061 2.194.356.404.42.712.907 1.02 1.394.125-.973-.243-1.72-1.014-2.266-.866-.534-2.046.415-2.788-.647-1.014-1.258-.99-3.013-.456-4.46.48-1.122 1.833-1.537 2.455-2.593-.172.931-.089 2.557.973 2.86-.26-1.733.973-3.293 1.222-4.972.32-.42.338-.753.048-1.21-.528-.86-.67-1.892-1.252-2.74-.896-1.264-2.005-1.3-.172-2.628-1.115 1.732-.202 1.103.76 2.729.177-.546.996-1.264-.03-1.264-1.62-.795 2.105-2.853 2.948-2.907.824-.065 1.987.03 2.616-.794-.392-.748-.771-.849-.107-1.626-.45-.267-.848-.581-.925-1.174-.433.148-.813.284-1.258.439.41-.463 1.602-1.388 1.732-.362.03.581.605.682 1.05.83-.326.475-.866.95-.374 1.507.344.362.564 1.044 1.092 1.133.142-.54.285-1.056.427-1.584 1.174 1.234-1.186 1.922 2.046 3.031-.118-.664-.22-1.31-.136-1.999 1.56 1.3-.67 2.118 2.924 2.545-.403-.474-.498-1.002-.64-1.53.599.095 1.08.67 1.465 1.097.374.564.647.872 1.489.32.035.101.047.238.118.291.38.29.226.64.22 1.02h.107c.498-.504.534-1.08.373-1.708-.344-1.192-1.797-.243-2.301-1.46.682.47 1.364.742 2.118.35.42.398.599.689.8 1.246.344-1.28-.047-2.586-1.406-2.2-.415.148-.593.118-1.014-.25.629.214 1.044-.106 1.447-.391.084.107.137.237.196.243.38.018.623.25.86.528.125-1.091-.96-1.981-2.058-1.702-.273 1.346-1.4.587-2.296.403-1.388-.813-2.117-2.367-3.345-3.381.124-1.507-1.133-2.705-2.64-2.622 1.359-.587 2.972.575 3.079 1.993.053.581.403.95.77 1.382 4.592-9.236 19.416-11.65 27.922-5.79.724.665 1.513 1.205 2.266 1.905.29-.878.119-1.928 1.436-1.394l.243-.166c-.267-.748.29-1.59 1.074-1.643v.581a.668.668 0 0 0-.558.741c.267-.053.504.291.362.517a.674.674 0 0 0 .783-.113c.22.006.439.03.652.053-.296.706-1.334.95-1.922.433.113.155-.391 1.72-.415 1.91a.496.496 0 0 1-.498.368c.089.154.166.279.255.421.368-.207.89-.195.842-.723.071-.303-.118-1.679.309-1.554.172.522-.154 1.127.231 1.643 1.228-.303.688-1.418 2.177-1.709.593-.053 1.839-.338 2.16.255-1.3-.35-2.984.006-3.27 1.495-1.352.32-2.485 1.281-3.926 1.281-1.145.066-1.453 1.442-1.5 2.385-.19 1.08-.25 2.2-.736 3.203-.238.386-.036.825.095 1.18.438.232.747 1.75.812 2.296 0 .991 1.697 1.323 2.39 1.94.196-1.24-2.158-.89-1.832-2.628.42 1.151 1.334 1.388 2.337 1.952-.314-1.163-.41-3.097-2.029-2.853-.629-.872.29-.92-.006-1.958.463.148.688.309.807.6-.142-.048-.267-.09-.469-.155.054.736.694.914 1.18 1.418-.076-1.204-.189-1.97-1.31-2.557-.635-.581.1-1.922.06-2.723-.024-.237 1.5-.996 1.731-.925 1.127.142 2.308-.036 3.4.25 1.085.343.154-2.018 1.91-.778-1.276-.374-.499 1.014-1.418 1.086-.641.006-1.187-.054-1.857-.078 2.313 5.143 7.439 3.637 8.844 8.228 1.18-1.044.38-1.026.048-2.112 2.663 1.774-2.48 3.832-.546 6.94-.124-.35 1.086-1.803 1.222-2.105.22-.327.593-.344.836-.107l.386-.8c-.718-.392.581-2.077.676-2.552.13-.29.44-.427.676-.308l.362-.997c-.676-.183-.172-1.827-.225-2.283-.95-.86-1.732-1.94-2.468-2.937l.451-.077a.58.58 0 0 0 .22.6c.332.13 1.583 1.34 1.975 1.05l.196.533c-.315.09-.368.534-.374.83.166.143.35.274.516.428.024-.113.006-.6.1-.67a.395.395 0 0 0 .588.041c.148.077-.041 1.139-.024 1.275.184.196.362.404.528.623-.07-.492.528-2.355-.302-2.444M289.47 229.884c-1.94 4.852-3.595 6.697-7.28 6.697-.972 0-1.945-.101-2.864-.44v-3.784c.777.243 1.601.582 2.426.582 1.696 0 2.622-.778 3.399-2.284l1.696-4.265-9.953-24.95h4.662l7.332 20.53h.095l7.04-20.53h4.367zm-19.137-16.408c0-4.42-1.946-8.98-7.136-8.98-5.291 0-7.427 4.318-7.427 9.122 0 4.515 1.65 9.563 7.089 9.563 5.433 0 7.474-4.995 7.474-9.705m4.075 10.92c0 8.204-3.69 12.327-11.65 12.327-4.71 0-10.143-1.94-10.387-7.373h4.123c.148 2.96 3.838 4.075 6.507 4.075 5.386 0 7.522-3.885 7.522-9.515v-1.649h-.095c-1.406 3.055-4.61 4.562-7.818 4.562-7.474 0-11.211-5.873-11.211-12.718 0-5.92 2.865-13.252 11.602-13.252 3.156 0 5.974 1.412 7.474 4.176h.048v-3.589h3.885zm-37.679-.919c4.318 0 7.812-3.399 7.812-9.467 0-6.068-3.494-9.515-7.812-9.515-4.324 0-7.818 3.447-7.818 9.515 0 6.068 3.494 9.467 7.818 9.467m0-22.624c7.96 0 12.184 5.778 12.184 13.157 0 7.326-4.223 13.103-12.184 13.103-7.96 0-12.184-5.777-12.184-13.103 0-7.38 4.223-13.157 12.184-13.157m-20.12-8.975h4.128v34.654h-4.129zm-16.064 31.6c4.318 0 7.812-3.4 7.812-9.468s-3.494-9.515-7.812-9.515c-4.325 0-7.819 3.447-7.819 9.515 0 6.068 3.494 9.467 7.819 9.467m0-22.624c7.96 0 12.184 5.778 12.184 13.157 0 7.326-4.224 13.103-12.184 13.103-7.961 0-12.184-5.777-12.184-13.103 0-7.38 4.223-13.157 12.184-13.157m-36.588.587h3.885v3.98h.095c1.75-3.108 4.514-4.567 8.156-4.567 6.603 0 8.637 3.79 8.637 9.177v16.502h-4.122v-16.989c0-3.108-1.94-5.048-5.096-5.048-5 0-7.427 3.352-7.427 7.866v14.171h-4.128zm-25.756-9.562h4.122v13.246h.101c1.311-3.055 4.947-4.271 7.907-4.271 6.602 0 8.643 3.785 8.643 9.177v16.502h-4.123v-16.989c0-3.108-1.945-5.048-5.101-5.048-5 0-7.427 3.352-7.427 7.866v14.171h-4.122zm-7.931 17.618c-.635-3.156-2.77-5-6.217-5-5.967 0-7.812 4.757-7.812 9.805 0 4.662 2.088 9.176 7.332 9.176 4.027 0 6.353-2.284 6.892-6.116h4.218c-.92 6.164-4.704 9.752-11.063 9.752-7.67 0-11.745-5.29-11.745-12.812 0-7.522 3.88-13.448 11.84-13.448 5.724 0 10.191 2.67 10.826 8.643zm-24.98 2.088c-.243-3.933-3.108-7.089-7.23-7.089-4.271 0-6.947 3.203-7.184 7.089zm3.98 6.988c-1.114 5.581-5.047 8.541-10.724 8.541-8.014 0-11.798-5.581-12.042-13.204 0-7.569 4.954-13.056 11.799-13.056 8.88 0 11.597 8.305 11.354 14.373h-18.78c-.15 4.366 2.325 8.251 7.811 8.251 3.447 0 5.778-1.601 6.508-4.905zm-35.187-22.814h-11.55v-3.88h27.714v3.88H78.698v30.774h-4.615zm-36.79 3.446c0-1.987-1.506-3.69-3.98-3.69-1.945 0-3.98 1.169-3.98 3.69 0 2.088 1.845 4.129 3.346 6.02 1.993-1.31 4.615-3.007 4.615-6.02m-5.974 10.582c-3.25 1.798-6.015 3.738-6.015 7.819 0 3.494 3.251 5.872 6.603 5.872 3.15 0 5.676-1.601 7.373-4.128zm10.245 12.428c-2.088 3.25-6.021 4.9-9.806 4.9-9.366 0-10.825-6.65-10.825-9.462 0-5.392 3.69-8.156 8.108-10.487-1.94-2.717-3.837-4.657-3.837-8.157 0-3.737 2.77-7.136 7.818-7.136 4.318 0 8.393 2.385 8.393 7.089 0 4.176-3.155 7.04-6.501 8.98l6.258 7.623a18.755 18.755 0 0 0 1.121-5.392h3.927c-.385 4.176-.872 5.392-2.325 8.548l6.744 7.812h-5.386zm357.656-72.992h3.885v3.98h.095c1.75-3.108 4.514-4.561 8.156-4.561 6.602 0 8.643 3.784 8.643 9.17v16.503h-4.129v-16.989c0-3.102-1.94-5.042-5.095-5.042-5 0-7.427 3.345-7.427 7.86v14.17h-4.128zm-15.892 22.037c4.319 0 7.812-3.399 7.812-9.467 0-6.063-3.493-9.515-7.812-9.515-4.324 0-7.818 3.452-7.818 9.515 0 6.068 3.494 9.467 7.818 9.467m0-22.624c7.96 0 12.184 5.777 12.184 13.157 0 7.331-4.223 13.11-12.184 13.11-7.96 0-12.184-5.779-12.184-13.11 0-7.38 4.224-13.157 12.184-13.157m-20.12.587h4.122v25.092h-4.123zm4.128-4.514h-4.129v-5.048h4.129zm-12.398 4.514h4.995v3.642h-4.995v15.577c0 1.946.534 2.23 3.103 2.23h1.892v3.643h-3.15c-4.27 0-5.973-.872-5.973-5.481v-15.969h-4.271v-3.642h4.27v-7.527h4.13zm-15.001 12.13c-3.204 2.38-12.523.054-12.523 6.217 0 2.717 2.332 3.69 4.859 3.69 5.433 0 7.664-3.352 7.664-5.683zm6.703 12.867c-.73.439-1.75.682-2.966.682-2.136 0-3.494-1.168-3.494-3.885-2.278 2.717-5.339 3.885-8.833 3.885-4.561 0-8.298-1.993-8.298-7.041 0-5.677 4.223-6.94 8.494-7.717 4.514-.92 8.447-.534 8.447-3.69 0-3.642-3.013-4.176-5.588-4.176-3.494 0-6.062 1.068-6.258 4.757h-4.129c.244-6.21 5.001-8.4 10.63-8.4 4.514 0 9.42 1.027 9.42 6.9v12.907c0 1.94 0 2.818 1.311 2.818.386 0 .825-.1 1.264-.243zm-33.177.095h-4.42l-9.319-25.092h4.61l7.04 20.922h.096l6.845-20.922h4.318zm-26.231-3.055c4.318 0 7.812-3.399 7.812-9.467 0-6.063-3.494-9.515-7.812-9.515-4.324 0-7.818 3.452-7.818 9.515 0 6.068 3.494 9.467 7.818 9.467m0-22.624c7.96 0 12.184 5.777 12.184 13.157 0 7.331-4.224 13.11-12.184 13.11-7.96 0-12.184-5.779-12.184-13.11 0-7.38 4.223-13.157 12.184-13.157m-36.588.587h3.886v3.98h.094c1.75-3.108 4.515-4.561 8.157-4.561 6.602 0 8.642 3.784 8.642 9.17v16.503h-4.128v-16.989c0-3.102-1.94-5.042-5.096-5.042-5 0-7.426 3.345-7.426 7.86v14.17h-4.129zm-25.756 0h3.88v3.98h.1c1.744-3.108 4.514-4.561 8.157-4.561 6.596 0 8.636 3.784 8.636 9.17v16.503h-4.122v-16.989c0-3.102-1.946-5.042-5.102-5.042-5 0-7.426 3.345-7.426 7.86v14.17h-4.123zm-10.232-9.562h4.609v34.654h-4.61zm-25.97 29.268h5.392v4.9c0 3.69-1.608 6.507-5.345 7.622v-2.426c2.136-.777 2.96-3.109 2.818-4.71h-2.865zm-7.8-9.562c-.244-3.933-3.103-7.083-7.232-7.083-4.27 0-6.94 3.197-7.183 7.083zm3.98 6.987c-1.116 5.582-5.048 8.548-10.725 8.548-8.008 0-11.793-5.582-12.036-13.204 0-7.575 4.947-13.056 11.793-13.056 8.88 0 11.602 8.298 11.36 14.367h-18.787c-.148 4.366 2.331 8.25 7.818 8.25 3.44 0 5.772-1.6 6.501-4.905zm-29.452-9.075c-.629-3.156-2.764-4.995-6.21-4.995-5.974 0-7.819 4.751-7.819 9.8 0 4.662 2.088 9.176 7.332 9.176 4.028 0 6.359-2.284 6.893-6.116h4.223c-.925 6.163-4.71 9.758-11.069 9.758-7.67 0-11.745-5.297-11.745-12.819 0-7.521 3.88-13.441 11.84-13.441 5.73 0 10.197 2.67 10.826 8.637zm-42.882-8.056h3.88v3.98h.1c1.745-3.108 4.515-4.561 8.151-4.561 6.602 0 8.643 3.784 8.643 9.17v16.503h-4.129v-16.989c0-3.102-1.94-5.042-5.095-5.042-5 0-7.427 3.345-7.427 7.86v14.17h-4.123zm-7.764 10.144c-.244-3.933-3.109-7.083-7.231-7.083-4.271 0-6.94 3.197-7.184 7.083zm3.98 6.987c-1.115 5.582-5.048 8.548-10.725 8.548-8.008 0-11.798-5.582-12.036-13.204 0-7.575 4.948-13.056 11.793-13.056 8.88 0 11.597 8.298 11.354 14.367h-18.78c-.15 4.366 2.33 8.25 7.811 8.25 3.447 0 5.778-1.6 6.508-4.905zm-30.697-17.13h4.122v25.09h-4.122zm4.122-4.515h-4.122v-5.048h4.122zm-12.231 12.57c-.63-3.156-2.765-4.995-6.211-4.995-5.973 0-7.818 4.751-7.818 9.8 0 4.662 2.088 9.176 7.332 9.176 4.027 0 6.359-2.284 6.892-6.116h4.224c-.925 6.163-4.71 9.758-11.069 9.758-7.67 0-11.745-5.297-11.745-12.819 0-7.521 3.885-13.441 11.846-13.441 5.724 0 10.19 2.67 10.82 8.637zm-26.777-7.475c-.534-5-3.784-7.088-8.59-7.088-3.932 0-7.77 1.412-7.77 5.926 0 8.542 22.185 2.52 22.185 16.158 0 7.38-7.23 10.34-13.542 10.34-7.765 0-14.32-3.833-14.32-12.232h4.366c0 5.825 4.858 8.352 10.096 8.352 4.176 0 8.785-1.311 8.785-6.312 0-9.514-22.179-3.25-22.179-15.968 0-6.988 6.21-10.144 12.57-10.144 7.088 0 12.522 3.352 12.765 10.968zm279.112-52.8h3.886v5.292h.095c1.993-4.075 4.757-6.02 9.224-5.872v4.365c-6.65 0-9.076 3.737-9.076 10.15v11.164h-4.129zm-15.826 22.038c4.319 0 7.812-3.393 7.812-9.462 0-6.068-3.493-9.514-7.812-9.514-4.318 0-7.812 3.446-7.812 9.514 0 6.069 3.494 9.462 7.812 9.462m0-22.618c7.96 0 12.184 5.777 12.184 13.156 0 7.326-4.223 13.104-12.184 13.104-7.96 0-12.184-5.778-12.184-13.104 0-7.379 4.224-13.156 12.184-13.156m-21.894 4.223h-4.224v-3.642h4.224v-3.737c0-4.075 2.426-6.21 6.94-6.21.777 0 1.892.141 2.67.385v3.594c-.73-.243-1.602-.338-2.332-.338-1.987 0-3.156.629-3.156 2.812v3.494h4.858v3.642h-4.858v21.456h-4.122zm-23.787-3.642h5v3.642h-5v15.577c0 1.946.534 2.236 3.108 2.236h1.892v3.643h-3.155c-4.271 0-5.968-.878-5.968-5.487v-15.969h-4.27v-3.642h4.27v-7.522h4.123zm-31.368 0h3.88v3.98h.1c1.744-3.108 4.515-4.561 8.157-4.561 6.596 0 8.637 3.784 8.637 9.17v16.509h-4.123v-16.99c0-3.108-1.946-5.047-5.102-5.047-5 0-7.426 3.345-7.426 7.86v14.177h-4.123zm-7.765 10.143c-.243-3.927-3.102-7.082-7.23-7.082-4.272 0-6.94 3.203-7.184 7.082zm3.98 6.994c-1.115 5.582-5.047 8.542-10.724 8.542-8.008 0-11.793-5.582-12.036-13.204 0-7.57 4.947-13.056 11.793-13.056 8.886 0 11.602 8.298 11.36 14.366h-18.787c-.142 4.366 2.331 8.252 7.818 8.252 3.44 0 5.772-1.602 6.501-4.9zm-61.632-17.137h3.886v3.69h.095c1.892-2.866 4.561-4.271 8.109-4.271 3.102 0 5.872 1.168 6.892 4.27 1.697-2.716 4.61-4.27 7.86-4.27 5 0 8.346 2.088 8.346 7.278v18.4h-4.122v-16.454c0-3.109-.825-5.582-4.853-5.582-4.033 0-6.554 2.52-6.554 6.406v15.63h-4.129v-16.454c0-3.251-1.014-5.582-4.704-5.582-4.858 0-6.697 4.46-6.697 6.406v15.63h-4.129zm-8.073 0h5v3.642h-5v15.577c0 1.946.534 2.236 3.109 2.236h1.892v3.643h-3.156c-4.27 0-5.967-.878-5.967-5.487v-15.969h-4.271v-3.642h4.27v-7.522h4.123zm-22.624 0h3.88v5.291h.1c1.988-4.075 4.752-6.02 9.218-5.872v4.365c-6.65 0-9.075 3.737-9.075 10.15v11.164h-4.123zm-9.497 12.136c-3.203 2.38-12.522.048-12.522 6.211 0 2.723 2.331 3.69 4.852 3.69 5.44 0 7.67-3.352 7.67-5.677zM130.49 122c-.73.44-1.744.683-2.96.683-2.135 0-3.494-1.169-3.494-3.885-2.283 2.716-5.338 3.885-8.832 3.885-4.562 0-8.305-1.993-8.305-7.035 0-5.683 4.224-6.947 8.495-7.724 4.514-.919 8.447-.533 8.447-3.69 0-3.635-3.008-4.17-5.582-4.17-3.494 0-6.069 1.068-6.258 4.752h-4.129c.243-6.21 5-8.393 10.63-8.393 4.514 0 9.42 1.02 9.42 6.892v12.914c0 1.94 0 2.812 1.31 2.812.386 0 .825-.095 1.258-.243zm-37.982-21.935c-5.581 0-7.663 4.804-7.663 9.461 0 4.906 2.23 9.515 7.907 9.515 5.635 0 7.521-4.805 7.521-9.705 0-4.71-2.426-9.271-7.765-9.271m-11.644-3.061h4.123v3.399h.095c1.364-2.764 4.514-3.98 8.014-3.98 7.717 0 11.55 6.115 11.55 13.204 0 7.13-3.785 13.056-11.455 13.056-2.527 0-6.312-.973-8.11-3.933h-.094v12.961h-4.123zm-7.83 10.143c-.243-3.927-3.108-7.082-7.237-7.082-4.265 0-6.94 3.203-7.177 7.082zm3.98 6.994c-1.115 5.582-5.048 8.542-10.73 8.542-8.008 0-11.793-5.582-12.036-13.204 0-7.57 4.953-13.056 11.792-13.056 8.886 0 11.603 8.298 11.36 14.366h-18.78c-.149 4.366 2.325 8.252 7.812 8.252 3.446 0 5.772-1.602 6.501-4.9zm-49.282 4.075h7.67c3.156 0 11.645-.872 11.645-13.637 0-8.251-3.055-13.252-11.55-13.252h-7.765zm-4.614-30.774H35.01c10.677 0 16.65 5.392 16.65 16.502 0 11.603-5.095 18.158-16.65 18.158H23.117zm0 0"/>
</svg>
