<?xml version="1.0" encoding="UTF-8" standalone="no"?>
<!-- Created with Inkscape (http://www.inkscape.org/) -->

<svg
   width="400"
   height="242"
   viewBox="0 0 400 242"
   version="1.1"
   id="svg5"
   inkscape:version="1.1.2 (b8e25be833, 2022-02-05)"
   sodipodi:docname="GDS.svg"
   xmlns:inkscape="http://www.inkscape.org/namespaces/inkscape"
   xmlns:sodipodi="http://sodipodi.sourceforge.net/DTD/sodipodi-0.dtd"
   xmlns="http://www.w3.org/2000/svg"
   xmlns:svg="http://www.w3.org/2000/svg">
  <sodipodi:namedview
     id="namedview7"
     pagecolor="#ffffff"
     bordercolor="#666666"
     borderopacity="1.0"
     inkscape:pageshadow="2"
     inkscape:pageopacity="0.0"
     inkscape:pagecheckerboard="0"
     inkscape:document-units="px"
     showgrid="false"
     fit-margin-top="0"
     fit-margin-left="0"
     fit-margin-right="0"
     fit-margin-bottom="0"
     inkscape:zoom="1.2208333"
     inkscape:cx="252.69625"
     inkscape:cy="230.17065"
     inkscape:window-width="2560"
     inkscape:window-height="1369"
     inkscape:window-x="-8"
     inkscape:window-y="-8"
     inkscape:window-maximized="1"
     inkscape:current-layer="layer1" />
  <defs
     id="defs2" />
  <g
     inkscape:label="Layer 1"
     inkscape:groupmode="layer"
     id="layer1"
     transform="translate(-451.28532,-794.78032)">
    <path
       style="clip-rule:nonzero;fill:#000000;fill-opacity:1;fill-rule:nonzero;stroke:none;stroke-width:4.25812"
       d="m 451.28532,795.04645 h 5.40581 v 228.65775 h -5.40581 z m 0,0"
       id="path5507" />
    <path
       id="path5525"
       style="clip-rule:nonzero;fill:#000000;fill-opacity:1;fill-rule:nonzero;stroke:none;stroke-width:4.25812"
       d="m 527.68198,879.54355 c 12.60804,0 24.56736,0.8982 35.22931,2.4451 3.09378,-12.87414 6.68657,-20.19278 10.54549,-25.46557 l -7.20219,-2.57812 c 0.78175,3.72585 0.78175,5.40581 0,7.71784 -1.14773,-1.16434 -2.31203,-3.34331 -3.21024,-6.57015 l -3.3433,11.70983 c 2.06255,-1.41382 3.72585,-2.4451 5.65534,-2.4451 -3.34331,7.20219 -7.45172,8.99861 -10.16295,8.48299 -3.21024,-0.63208 -4.75713,-3.59279 -4.24147,-6.03789 0.78175,-3.59279 4.37454,-4.491 6.0545,-0.38238 3.21024,-6.55354 -2.19558,-8.61605 -5.78837,-6.68661 5.40582,-5.40581 6.03785,-10.29597 1.66331,-16.08437 -6.03789,4.64067 -6.17095,9.26473 -3.34331,15.81824 -3.59279,-4.10841 -8.9986,-1.92944 -7.06912,4.77378 2.57817,-3.99199 5.92143,-1.54689 5.40582,2.31203 -0.39899,3.34326 -4.75713,5.90482 -10.16295,5.52223 -7.71784,-0.64868 -8.10039,-6.03789 -8.36652,-10.54549 1.92944,-0.38238 5.27274,1.41382 8.23346,5.53887 l 1.03127,-12.35851 c -3.09378,3.34326 -6.03789,3.99199 -9.26473,4.12505 1.03123,-3.3433 5.92143,-8.88218 5.92143,-8.88218 h -15.30263 c 0,0 4.8902,5.53888 5.92147,8.88218 -3.22689,-0.13285 -6.05453,-0.78179 -9.26473,-4.12505 l 1.03123,12.35851 c 2.96076,-4.12505 6.30402,-5.92142 8.2335,-5.53887 -0.26613,4.5076 -0.64872,9.78035 -8.36657,10.54549 -5.40581,0.51566 -9.64728,-2.17897 -10.16294,-5.52223 -0.51562,-3.72586 2.82769,-6.30402 5.40586,-2.31203 1.92944,-6.57016 -3.47638,-8.74912 -7.06917,-4.77378 2.69459,-6.55351 2.69459,-11.17757 -3.3433,-15.81824 -4.37454,5.7884 -3.74247,10.67856 1.66335,16.08437 -3.47638,-1.92944 -8.99861,0.13285 -5.78841,6.68661 1.67996,-4.10845 5.27275,-3.21024 6.05454,0.38238 0.51562,2.4451 -1.03128,5.40581 -4.25812,6.03789 -2.69458,0.51562 -6.80303,-1.2808 -10.1463,-8.48299 1.91279,0 3.45973,1.03128 5.6553,2.4451 l -3.47637,-11.70983 c -0.89817,3.22684 -1.92944,5.40581 -3.2102,6.57015 -0.78179,-2.31203 -0.64873,-4.12505 0,-7.71784 l -7.20223,2.57812 c 3.85892,5.27279 7.45171,12.59143 10.54549,25.46557 10.79502,-1.5469 22.75434,-2.4451 35.49545,-2.4451 m -42.44815,-31.63648 c 2.71123,1.14769 5.78841,-0.13286 6.9527,-2.82769 1.14774,-2.71119 -0.13285,-5.80501 -2.82764,-6.95271 -2.71124,-1.16434 -5.78837,0.24953 -6.81964,2.96072 -1.28076,2.56156 0,5.65534 2.69458,6.81968 m 9.3978,-14.15493 c 2.69463,1.16434 5.78841,-0.13286 6.9361,-2.82765 1.16434,-2.71123 -0.11625,-5.78841 -2.82765,-6.95275 -2.69462,-1.14769 -5.7884,0.26614 -6.81968,2.96076 -1.28076,2.71119 0,5.78836 2.71123,6.81964 m 14.13833,-8.48299 c 2.71119,1.14769 5.78836,-0.13285 6.9527,-2.82765 1.14769,-2.71123 -0.13285,-5.7884 -2.8443,-6.9527 -2.69458,-1.14774 -5.77175,0.24952 -6.80303,2.96071 -1.28075,2.56152 0,5.78837 2.69463,6.81964 m 21.73967,-16.98258 6.68661,3.47637 v -9.91346 l -6.68661,2.19562 c -0.24953,-0.26613 -0.38238,-0.51566 -0.64869,-0.64873 l 2.57817,-8.61605 h -9.64733 l 2.69462,8.48299 c -0.24952,0.26613 -0.51565,0.39898 -0.63207,0.64872 l -6.68657,-2.06255 v 9.91346 l 6.68657,-3.60944 c 0.24953,0.26614 0.38238,0.51562 0.63207,0.78175 l -3.85892,11.69323 c -0.11624,0.64868 -0.24952,1.1643 -0.24952,1.79637 0,3.22685 2.31203,5.80501 5.27274,6.18761 h 1.79638 c 2.96071,-0.51566 5.27274,-3.09383 5.27274,-6.18761 0,-0.63207 -0.11624,-1.28076 -0.24952,-1.79637 -0.13286,-0.63208 0,0 0,0 l -3.85893,-11.69323 c 0.38238,-0.13285 0.64869,-0.39898 0.89821,-0.64868 m 39.48748,39.6205 c -2.71123,1.14769 -5.78836,-0.13286 -6.95271,-2.82769 -1.16434,-2.71119 0.13286,-5.80501 2.82765,-6.95271 2.71123,-1.16434 5.78841,0.24953 6.81964,2.96072 1.16434,2.56156 0,5.65534 -2.69458,6.81968 m -9.3978,-14.15493 c -2.69459,1.16434 -5.78837,-0.13286 -6.9361,-2.82765 -1.1643,-2.71123 0.11625,-5.78841 2.82769,-6.95275 2.69458,-1.14769 5.78836,0.26614 6.80299,2.96076 1.2974,2.71119 0,5.78836 -2.69458,6.81964 m -30.85473,10.41242 c -2.71124,1.16434 -5.78841,-0.11624 -6.95275,-2.82765 -1.1643,-2.69458 0.13285,-5.92147 2.82769,-6.93609 2.71123,-1.16434 5.78836,0.24952 6.81964,2.94411 1.14769,2.57816 0,5.67194 -2.69458,6.81963 m 16.71644,-18.89541 c -2.71123,1.14769 -5.7884,-0.13285 -6.9527,-2.82765 -1.14773,-2.71123 0.13285,-5.7884 2.82765,-6.9527 2.71123,-1.14774 5.78836,0.24952 6.81964,2.96071 1.28075,2.56152 0,5.78837 -2.69459,6.81964" />
    <path
       id="path5575"
       style="clip-rule:nonzero;fill:#000000;fill-opacity:1;fill-rule:nonzero;stroke:none;stroke-width:4.25812"
       d="m 629.27811,921.45943 v 7.33529 h 0.13285 c 1.28076,-2.57816 2.82765,-4.5076 4.62403,-5.65529 1.79641,-1.16434 4.24151,-1.68 7.08581,-1.68 v 5.53892 c -2.06255,0 -3.85892,0.24953 -5.40581,0.89817 -1.41387,0.51565 -2.71124,1.41382 -3.60944,2.44509 -0.89821,1.1477 -1.54689,2.4451 -1.92949,3.97539 -0.38238,1.54689 -0.64868,3.35991 -0.64868,5.40581 v 14.15493 h -5.2561 v -32.41831 z m 0,0 m -58.51591,32.41831 -11.82625,-32.41831 h 5.90478 l 8.88218,27.01246 h 0.13286 l 8.73247,-27.01246 h 5.53888 l -11.70984,32.41831 z m 0,0 m 42.69763,-2.71123 c -2.31203,1.81302 -5.40581,2.71123 -8.9986,2.71123 -2.57817,0 -4.75713,-0.38238 -6.57016,-1.16434 -1.79637,-0.76514 -3.45972,-1.92948 -4.75708,-3.34331 -1.28081,-1.41382 -2.17897,-3.21019 -2.8277,-5.13968 -0.63203,-2.0625 -1.03123,-4.12505 -1.03123,-6.5535 0,-2.32868 0.39899,-4.50765 1.1643,-6.43709 0.76514,-1.92948 1.79642,-3.60944 3.09382,-5.15633 1.28076,-1.53024 2.94407,-2.56151 4.75709,-3.34326 1.79642,-0.76514 3.85892,-1.14774 6.03789,-1.14774 2.82765,0 5.13968,0.51566 7.06916,1.66335 1.92944,1.16435 3.34327,2.57817 4.50761,4.37454 1.16434,1.81303 1.92948,3.74251 2.31203,5.78841 0.38238,2.0625 0.64868,4.12505 0.51562,5.92143 h -23.78557 c 0,1.41382 0.11624,2.69462 0.51561,3.85892 0.38238,1.14769 1.01463,2.31203 1.79642,3.21024 0.7651,0.89821 1.79637,1.67996 3.07713,2.31203 1.29741,0.51562 2.8443,0.91482 4.50765,0.91482 2.19557,0 3.99199,-0.51562 5.40581,-1.54689 1.41383,-1.03128 2.82765,-2.57817 3.34327,-4.64068 h 5.13968 c -0.7651,3.34327 -2.82765,6.0545 -5.27275,7.71785 m -1.28076,-19.92669 c -0.51561,-1.03127 -1.16434,-2.06255 -1.92944,-2.82765 -0.78179,-0.78179 -1.81302,-1.41382 -2.82769,-1.81302 -1.03123,-0.51566 -2.31199,-0.63207 -3.6094,-0.63207 -1.28075,0 -2.56151,0.24952 -3.59279,0.63207 -1.03127,0.51562 -2.06254,1.03123 -2.82764,1.92944 -0.78179,0.91482 -1.43048,1.67996 -1.81307,2.8443 -0.38238,1.01462 -0.7651,2.17896 -0.7651,3.3433 h 18.26334 c -0.13285,-1.16434 -0.38238,-2.32868 -0.89821,-3.47637 m 194.32669,-9.78039 v 4.62406 h -6.30402 v 20.32589 c 0,0.64868 0,1.16434 0.13285,1.54689 0.11625,0.38238 0.24953,0.64868 0.63208,0.89821 0.26613,0.26613 0.64868,0.38238 1.16434,0.38238 0.51561,0.13285 1.16434,0.13285 2.0625,0.13285 h 2.4285 v 4.62406 h -3.97539 c -1.28075,0 -2.57816,-0.11624 -3.47633,-0.24952 -0.8982,-0.13286 -1.79641,-0.51562 -2.31203,-1.03128 -0.64872,-0.51561 -1.03127,-1.14769 -1.28076,-2.0625 -0.26613,-0.89821 -0.39898,-2.0459 -0.39898,-3.59279 v -20.84155 h -5.65534 v -4.62406 h 5.40581 v -8.9986 h 5.27275 v 8.9986 z m 0,0 m 39.48743,99.93277 c -2.4451,1.7964 -5.40581,2.6946 -9.01525,2.6946 -2.56152,0 -4.75713,-0.3823 -6.5535,-1.1477 -1.79642,-0.7817 -3.47638,-1.9294 -4.75713,-3.3433 -1.28076,-1.4138 -2.19558,-3.2268 -2.82765,-5.1563 -0.64868,-2.0459 -1.03128,-4.1084 -1.03128,-6.5535 0,-2.312 0.38238,-4.491 1.16434,-6.4371 0.76515,-1.92942 1.79638,-3.72584 3.07718,-5.13966 1.29736,-1.41383 2.96071,-2.56152 4.75709,-3.34331 1.79641,-0.7651 3.85892,-1.14769 6.05453,-1.14769 2.82765,0 5.13968,0.51566 7.06912,1.66335 1.92949,1.1643 3.34331,2.57816 4.491,4.37454 1.16434,1.79641 1.92948,3.72587 2.31203,5.78837 0.39899,2.0625 0.64869,4.1084 0.51562,5.9215 h -23.78557 c 0,1.4138 0.13286,2.6945 0.51562,3.8589 0.38238,1.1477 1.03127,2.312 1.79641,3.2102 0.78175,0.8982 1.92944,1.6633 3.09378,2.3121 1.1477,0.6486 2.69459,0.7651 4.491,0.7651 2.19558,0 3.99199,-0.499 5.40582,-1.5303 1.41382,-1.0313 2.32863,-2.5782 2.82764,-4.6407 h 5.13968 c -0.8982,3.4764 -2.42845,6.0545 -4.74048,7.8509 m -1.2974,-19.9433 c -0.51562,-1.0146 -1.1477,-2.04588 -1.92944,-2.82763 -0.76515,-0.76514 -1.79642,-1.41382 -2.8277,-1.79642 -1.14769,-0.51561 -2.31198,-0.64868 -3.59279,-0.64868 -1.29736,0 -2.57812,0.26613 -3.74246,0.64868 -1.03127,0.51566 -2.0459,1.16434 -2.82765,1.92949 -0.76514,0.76514 -1.41386,1.79636 -1.79641,2.82766 -0.51562,1.0313 -0.76514,2.1956 -0.76514,3.3433 h 18.26338 c 0,-1.2808 -0.26614,-2.4451 -0.78179,-3.4764 m -34.46417,-3.72584 c -1.28076,-1.03127 -3.09378,-1.66331 -5.27275,-1.66331 -1.92944,0 -3.47637,0.38238 -4.75713,1.03124 -1.28076,0.63207 -2.31203,1.53028 -3.09378,2.69462 -0.76514,1.16429 -1.28076,2.44509 -1.66331,3.85889 -0.3828,1.4139 -0.51566,2.9607 -0.51566,4.491 0,1.4305 0.13286,2.8443 0.51566,4.2581 0.38238,1.4138 0.89817,2.5616 1.66331,3.5928 0.78175,1.0313 1.67996,1.9295 2.8443,2.5782 1.14769,0.6487 2.56151,1.0312 4.24147,1.0312 2.56156,0 4.62406,-0.6486 6.03789,-1.9294 1.41382,-1.2974 2.31203,-3.2269 2.69458,-5.5389 h 5.40585 c -0.63207,3.8589 -2.0459,6.8197 -4.37458,8.8822 -2.31203,2.0459 -5.52223,3.0771 -9.64728,3.0771 -2.42849,0 -4.491,-0.3823 -6.42048,-1.1477 -1.92944,-0.7817 -3.47633,-1.7964 -4.64067,-3.2102 -1.28076,-1.4138 -2.17897,-3.0938 -2.82765,-5.0233 -0.63208,-1.9294 -0.89821,-4.125 -0.89821,-6.437 0,-2.3121 0.26613,-4.491 0.89821,-6.5535 0.64868,-2.06256 1.54689,-3.72591 2.82765,-5.2728 1.2974,-1.54689 2.84429,-2.69458 4.77373,-3.60944 1.92949,-0.89816 4.10845,-1.28075 6.55355,-1.28075 1.79637,0 3.47633,0.26613 5.13968,0.64872 1.67996,0.38238 2.96071,1.03123 4.12506,1.92944 1.14769,0.89821 2.17896,2.06255 2.94406,3.34331 0.78179,1.28076 1.29741,2.96072 1.43047,4.75712 h -5.40581 c -0.39899,-1.9295 -1.29741,-3.47636 -2.57816,-4.50764 m -30.60525,-17.74772 h 5.27275 v 5.27275 h -5.27275 z m 5.27275,43.99506 h -5.27275 v -32.41829 h 5.27275 z m 0,0 m -25.7317,0 -11.82625,-32.41829 h 5.92147 l 8.86553,27.01249 h 0.13286 l 8.74907,-27.01249 h 5.52228 l -11.69319,32.41829 z m 0,0 M 733.3193,991.55211 v 7.33529 h 0.13285 c 1.28076,-2.57816 2.82765,-4.50764 4.62407,-5.65534 1.81302,-1.16429 4.12505,-1.81302 7.08577,-1.67995 v 5.53888 c -2.06251,0 -3.85893,0.24952 -5.40582,0.8982 -1.41382,0.51562 -2.69458,1.41383 -3.60943,2.44511 -0.89817,1.1477 -1.53025,2.4451 -1.92944,3.9753 -0.38238,1.5469 -0.63208,3.36 -0.63208,5.4058 v 14.155 h -5.27275 v -32.41829 z m 0,0 m -14.52083,29.84009 c -2.4451,1.7964 -5.40586,2.6946 -9.01525,2.6946 -2.56156,0 -4.75713,-0.3823 -6.55355,-1.1477 -1.79637,-0.7817 -3.47633,-1.9294 -4.75709,-3.3433 -1.28076,-1.4138 -2.19561,-3.2268 -2.82769,-5.1563 -0.64868,-2.0459 -1.03123,-4.1084 -1.03123,-6.5535 0,-2.312 0.38238,-4.491 1.1643,-6.4371 0.76514,-1.92942 1.79641,-3.72584 3.07717,-5.13966 1.29741,-1.41383 2.96072,-2.56152 4.75713,-3.34331 1.79638,-0.7651 3.85892,-1.14769 6.0545,-1.14769 2.82769,0 5.13972,0.51566 7.06916,1.66335 1.92948,1.1643 3.34331,2.57816 4.5076,4.37454 1.14774,1.79641 1.91284,3.72587 2.31204,5.78837 0.38238,2.0625 0.63207,4.1084 0.51565,5.9215 h -23.80225 c 0,1.4138 0.13285,2.6945 0.51565,3.8589 0.38238,1.1477 1.03124,2.312 1.79638,3.2102 0.78175,0.8982 1.81302,1.6633 3.09378,2.3121 1.28076,0.6486 2.69462,0.7651 4.491,0.7651 2.19561,0 3.99198,-0.499 5.40581,-1.5303 1.41382,-1.0313 2.32868,-2.5782 2.82769,-4.6407 h 5.15629 c -0.89817,3.4764 -2.4451,6.0545 -4.75709,7.8509 m -1.29741,-19.9433 c -0.51566,-1.0146 -1.14769,-2.04588 -1.92948,-2.82763 -0.7651,-0.76514 -1.79637,-1.41382 -2.82765,-1.79642 -1.14769,-0.51561 -2.31203,-0.64868 -3.59279,-0.64868 -1.29741,0 -2.57816,0.26613 -3.7425,0.64868 -1.01463,0.51566 -2.0459,1.16434 -2.82765,1.92949 -0.76514,0.76514 -1.41383,1.79636 -1.79638,2.82766 -0.51565,1.0313 -0.76514,2.1956 -0.76514,3.3433 h 18.26334 c 0,-1.2808 -0.26613,-2.4451 -0.78175,-3.4764 m -36.64313,-14.52086 c -1.92949,-1.41382 -4.25813,-2.0625 -7.20223,-2.0625 -1.16434,0 -2.32864,0.13285 -3.47633,0.38238 -1.16434,0.26613 -2.17897,0.64868 -3.09383,1.16434 -0.89816,0.51561 -1.53024,1.28075 -2.17896,2.17896 -0.64868,0.89817 -0.7651,2.06251 -0.7651,3.47633 0,1.28076 0.38238,2.31203 1.14769,3.09378 0.78175,0.76515 1.79637,1.41387 3.09378,1.92949 1.28076,0.51561 2.69458,0.8982 4.35793,1.28075 1.67996,0.38238 3.34327,0.64869 5.02327,1.03128 1.67995,0.38238 3.34326,0.89825 5.02322,1.41385 1.66335,0.5156 3.07717,1.2807 4.37458,2.1789 1.28075,0.8982 2.31203,2.0625 3.07713,3.3433 0.76514,1.4139 1.16434,3.0938 1.16434,5.1563 0,2.179 -0.51562,4.1085 -1.54689,5.6554 -1.03128,1.5469 -2.31203,2.8276 -3.85892,3.8589 -1.54689,1.0312 -3.34331,1.6633 -5.27275,2.179 -1.92948,0.5156 -3.85892,0.6486 -5.92147,0.6486 -2.4451,0 -4.62402,-0.2661 -6.68657,-0.8982 -2.0459,-0.6487 -3.97534,-1.4138 -5.52223,-2.7112 -1.54693,-1.1477 -2.82769,-2.6946 -3.85892,-4.624 -0.89821,-1.7964 -1.41387,-3.992 -1.41387,-6.5536 h 5.38921 c 0,1.7964 0.39898,3.2103 1.03127,4.491 0.64868,1.2974 1.54689,2.3287 2.71123,3.0938 1.14769,0.7652 2.44506,1.4138 3.97534,1.7964 1.54689,0.3824 3.09378,0.6487 4.64067,0.6487 1.28076,0 2.56156,-0.1328 3.85892,-0.3824 1.28076,-0.2661 2.4451,-0.6487 3.45973,-1.1643 1.03127,-0.5156 1.81302,-1.2808 2.4451,-2.312 0.64872,-1.0313 0.91485,-2.1956 0.91485,-3.7259 0,-1.4138 -0.39898,-2.5781 -1.16434,-3.4763 -0.76514,-0.8982 -1.79641,-1.68 -3.09378,-2.1956 -1.2808,-0.5157 -2.69462,-1.0313 -4.37458,-1.4139 -1.66331,-0.3823 -3.34326,-0.7651 -5.00661,-1.0312 -1.67996,-0.2495 -3.34331,-0.7651 -5.02327,-1.2808 -1.6633,-0.5156 -3.07713,-1.1477 -4.37453,-1.9294 -1.28076,-0.76518 -2.31204,-1.79646 -3.07718,-3.07721 -0.78175,-1.29737 -1.1643,-2.82765 -1.1643,-4.75709 0,-2.06255 0.38238,-3.99199 1.29737,-5.53892 0.89821,-1.54689 2.0459,-2.82765 3.45972,-3.85893 1.41383,-1.03123 3.09382,-1.79637 4.8902,-2.17892 1.79641,-0.51566 3.72585,-0.78179 5.65534,-0.78179 2.19557,0 4.25812,0.26613 6.05449,0.78179 1.79642,0.51562 3.47637,1.28076 4.8902,2.44506 1.41382,1.14773 2.56151,2.42849 3.34326,4.10845 0.76514,1.6633 1.2808,3.59278 1.2808,5.92142 h -5.27279 c -0.24952,-2.71123 -1.41382,-4.89015 -3.21019,-6.30402 m -44.89325,37.04236 h -5.27275 v -43.86199 h 5.27275 z m 0,0 m -8.48299,0 h -3.72585 c -1.41383,0 -2.4451,-0.399 -3.22685,-1.1643 -0.76514,-0.7652 -1.14769,-2.0626 -1.14769,-3.7259 -1.41382,1.6633 -3.09378,2.9607 -5.02326,3.7259 -1.92944,0.7651 -3.99199,1.1643 -6.17096,1.1643 -1.41382,0 -2.82765,-0.1329 -4.1084,-0.5156 -1.29741,-0.2662 -2.4451,-0.6487 -3.34331,-1.2974 -0.91481,-0.6321 -1.67996,-1.5303 -2.32864,-2.6946 -0.51566,-1.1644 -0.89821,-2.6946 -0.89821,-4.2415 0,-1.7964 0.26614,-3.2102 0.89821,-4.2415 0.64868,-1.1644 1.41383,-2.0625 2.4451,-2.7112 1.03123,-0.6321 2.19557,-1.1477 3.47633,-1.5303 1.28076,-0.399 2.57816,-0.6487 3.99199,-0.9148 1.41382,-0.2496 2.82765,-0.499 4.10845,-0.6321 1.28075,-0.1328 2.44505,-0.3824 3.47633,-0.6487 1.03127,-0.2495 1.79641,-0.6487 2.31203,-1.1643 0.51562,-0.499 0.89821,-1.1477 0.89821,-2.179 0,-1.1643 -0.24953,-2.06251 -0.63208,-2.69459 -0.39898,-0.64868 -1.03127,-1.1643 -1.67995,-1.54689 -0.64869,-0.38238 -1.41383,-0.64868 -2.31204,-0.78175 -0.8982,-0.11625 -1.67995,-0.11625 -2.44509,-0.11625 -2.17897,0 -4.10841,0.38238 -5.52223,1.1477 -1.54689,0.78174 -2.32869,2.31203 -2.4451,4.64068 h -5.27275 c 0.11625,-1.92945 0.49897,-3.47634 1.28076,-4.89017 0.76514,-1.41382 1.66331,-2.4451 2.96071,-3.21024 1.28076,-0.78175 2.69458,-1.41382 4.24147,-1.81302 1.54694,-0.38238 3.21024,-0.49901 5.00666,-0.49901 1.41382,0 2.82765,0.11625 4.25812,0.24953 1.41383,0.13285 2.69458,0.64872 3.85892,1.16434 1.1477,0.51561 2.04586,1.41382 2.69459,2.56151 0.64868,1.16434 1.03127,2.57817 1.03127,4.37458 v 15.81828 c 0,1.1643 0.13285,2.0625 0.24953,2.5781 0.13285,0.5156 0.64868,0.7652 1.41382,0.7652 h 1.54689 z m -8.48298,-16.8495 c -0.64868,0.5156 -1.54689,0.7651 -2.57812,1.0312 -1.03128,0.2496 -2.19562,0.3824 -3.34331,0.5157 -1.16434,0.1162 -2.31203,0.2495 -3.60944,0.5156 -1.14769,0.1163 -2.31203,0.499 -3.2102,0.8982 -0.89821,0.3824 -1.66335,1.0313 -2.31203,1.6633 -0.64872,0.6487 -0.89821,1.7964 -0.89821,2.9607 0,0.7652 0.13286,1.5469 0.51562,2.0626 0.38238,0.499 0.76514,1.0146 1.41387,1.4138 0.63203,0.3824 1.14769,0.6321 1.92943,0.7652 0.76515,0.1328 1.5469,0.2661 2.31204,0.2661 1.6633,0 3.21024,-0.2661 4.37454,-0.6487 1.14769,-0.3824 2.17896,-1.0313 2.96075,-1.68 0.7651,-0.6321 1.41383,-1.4138 1.66331,-2.312 0.26613,-0.8982 0.51562,-1.5469 0.51562,-2.3121 z m 0,0 m -24.56736,-15.56879 v 4.62406 h -6.30402 v 20.32593 c 0,0.6486 0,1.1643 0.13285,1.4138 0.11625,0.2661 0.24953,0.6487 0.49901,0.8982 0.26613,0.2661 0.64873,0.399 1.16434,0.399 0.51562,0 1.16434,0.1162 2.06251,0.1162 h 2.4451 v 4.6407 h -3.99199 c -1.41383,0 -2.4451,-0.1329 -3.47633,-0.2661 -1.01463,-0.1163 -1.79642,-0.5157 -2.31203,-1.0313 -0.63208,-0.5156 -1.03128,-1.1477 -1.28076,-2.0459 -0.26613,-0.8982 -0.38238,-2.0625 -0.38238,-3.6094 v -20.84151 h -5.40581 v -4.62407 h 5.40581 v -8.9986 h 5.27275 v 8.86554 z m 0,0 m -25.98118,-11.4437 h 5.27274 v 5.27274 h -5.27274 z m 5.27274,43.86199 h -5.27274 v -32.41829 h 5.27274 z m 0,0 m -14.67054,8.8655 c -2.31204,2.5782 -6.17096,3.8589 -11.17757,3.8589 -1.54689,0 -2.96072,-0.1328 -4.50761,-0.5156 -1.54693,-0.3824 -2.96075,-0.8982 -4.10845,-1.5469 -1.16434,-0.632 -2.32863,-1.6633 -3.09378,-2.8276 -0.76514,-1.1477 -1.28075,-2.6946 -1.41382,-4.3746 h 5.27275 c 0,0.9149 0.38238,1.813 0.8982,2.4451 0.51562,0.6487 1.28076,1.1643 2.06251,1.5469 0.76514,0.3824 1.66335,0.7651 2.57817,0.8982 0.8982,0.1329 1.79641,0.2661 2.69458,0.2661 1.67995,0 3.21024,-0.2661 4.37458,-0.8982 1.14769,-0.6487 2.17896,-1.4138 2.96071,-2.4451 0.76514,-1.0312 1.28076,-2.312 1.66331,-3.7424 0.38238,-1.4139 0.51566,-3.0772 0.51566,-4.8736 v -2.0625 h -0.13286 c -0.8982,1.9294 -2.31203,3.2102 -4.10844,4.1084 -1.79638,0.8982 -3.72586,1.4138 -5.78837,1.4138 -2.31203,0 -4.5076,-0.3823 -6.17095,-1.2807 -1.67996,-0.8982 -3.22685,-1.7964 -4.37454,-3.3433 -1.16434,-1.4139 -2.06255,-3.2103 -2.69462,-5.1397 -0.64869,-1.9295 -0.89817,-3.992 -0.89817,-6.171 0,-1.9294 0.24953,-3.8589 0.7651,-5.7884 0.51566,-2.0625 1.2808,-3.74243 2.4451,-5.40578 1.14769,-1.67996 2.69462,-2.69458 4.491,-3.72586 1.81302,-1.03123 4.25812,-1.54689 6.9527,-1.54689 2.06255,0 3.85892,0.38238 5.52227,1.28076 1.67996,0.89821 2.96072,1.92948 3.99199,3.72586 h 0.13285 v -5.13968 h 4.8902 v 29.57399 c -0.13285,5.2894 -1.29741,9.1483 -3.7425,11.7098 m -6.68657,-14.2713 c 1.16429,-0.7818 2.19557,-1.68 2.96071,-2.8277 0.76514,-1.1643 1.28076,-2.4451 1.67996,-3.992 0.38238,-1.5469 0.51561,-2.9607 0.51561,-4.3745 0,-1.4139 -0.13285,-2.6946 -0.51561,-4.1085 -0.39899,-1.4138 -0.91482,-2.5781 -1.54689,-3.74242 -0.78175,-1.01467 -1.67996,-1.92948 -2.82765,-2.56156 -1.16434,-0.64868 -2.57817,-1.03123 -4.12506,-1.03123 -1.53028,0 -3.07717,0.24952 -4.24151,0.89816 -1.14769,0.64873 -2.17897,1.54689 -2.96072,2.57817 -0.76514,1.03128 -1.28075,2.31208 -1.6633,3.72588 -0.38238,1.4138 -0.51566,2.8276 -0.51566,4.3746 0,1.4138 0.13285,2.8276 0.38238,4.3745 0.26613,1.4138 0.76514,2.6946 1.54689,3.8589 0.64872,1.1477 1.66335,2.0459 2.82769,2.8277 1.1643,0.7651 2.57812,1.0312 4.24147,1.0312 1.67996,0 3.09378,-0.3989 4.24147,-1.0312 m -28.67559,-38.45619 h 5.27274 v 5.27274 h -5.27274 z m 5.27274,43.97839 h -5.27274 v -32.53469 h 5.27274 z m 0,0 m -32.2852,-43.97839 c 6.81964,0 11.95936,1.67995 15.70182,5.13968 3.59279,3.47637 5.52228,8.74912 5.52228,15.70181 0,3.7259 -0.38238,6.9361 -1.28076,9.7638 -0.78179,2.8276 -2.06255,5.2727 -3.85892,7.2022 -1.79642,1.9294 -3.85893,3.4763 -6.55355,4.5076 -2.71123,1.0313 -5.78836,1.5469 -9.53087,1.5469 h -15.03649 v -43.99506 z m 0.51566,38.97179 c 0.64868,0 1.54689,0 2.44506,-0.1328 1.03127,-0.1329 2.06254,-0.3824 3.09382,-0.7652 1.14769,-0.399 2.17896,-0.8982 3.34326,-1.6799 1.03128,-0.7652 2.06255,-1.7964 2.96076,-3.0772 0.89817,-1.2974 1.53024,-2.8443 2.17892,-4.7571 0.51566,-1.9295 0.89821,-4.2582 0.89821,-6.9527 0,-2.69462 -0.24952,-5.0233 -0.76514,-7.0692 -0.51562,-2.06251 -1.29736,-3.85892 -2.57812,-5.27275 -1.14774,-1.41382 -2.69463,-2.57816 -4.491,-3.34326 -1.81302,-0.78179 -4.12506,-1.16434 -6.81964,-1.16434 h -9.89681 v 34.08165 z m 0,0 m 268.67745,-97.62077 v 5.65534 h 0.11624 c 2.19562,-3.72586 5.65534,-5.65534 10.29601,-5.65534 2.06255,0 3.85892,0.26613 5.27275,0.78179 1.41382,0.51562 2.56156,1.28076 3.34331,2.31203 0.76514,1.03123 1.41382,2.17897 1.79637,3.59279 0.38238,1.41383 0.51566,2.96072 0.51566,4.64067 v 21.09103 h -5.27275 v -21.73971 c 0,-1.92948 -0.64868,-3.47637 -1.66331,-4.62406 -1.16434,-1.16435 -2.71123,-1.67996 -4.77378,-1.67996 -1.53024,0 -2.94406,0.24952 -4.1084,0.76514 -1.16434,0.51562 -2.19562,1.1643 -2.96072,2.06251 -0.76514,0.89821 -1.41386,1.92948 -1.79641,3.09378 -0.38238,1.14769 -0.64868,2.4451 -0.64868,3.85892 v 18.26338 h -5.27275 v -32.41831 z m 0,0 m -14.53749,29.70708 c -2.44509,1.81302 -5.40581,2.71123 -8.9986,2.71123 -2.57816,0 -4.77373,-0.38238 -6.57015,-1.16434 -1.79637,-0.76514 -3.47637,-1.92948 -4.75713,-3.34331 -1.28076,-1.41382 -2.17897,-3.21019 -2.82765,-5.13968 -0.64868,-1.92944 -1.03127,-4.12505 -1.03127,-6.5535 0,-2.32868 0.38238,-4.50765 1.16434,-6.43709 0.76514,-1.92948 1.79641,-3.60944 3.07717,-5.15633 1.29736,-1.53024 2.96071,-2.56151 4.75709,-3.34326 1.81306,-0.76514 3.85892,-1.14774 6.05454,-1.14774 2.82764,0 5.13968,0.51566 7.06916,1.66335 1.92944,1.16435 3.34326,2.57817 4.5076,4.37454 1.14769,1.81303 1.92944,3.74251 2.31204,5.78841 0.38237,2.0625 0.64868,4.12505 0.51561,5.92143 h -23.80222 c 0,1.41382 0.13286,2.69462 0.51562,3.85892 0.38238,1.14769 1.03127,2.31203 1.79642,3.21024 0.78175,0.89821 1.81302,1.67996 3.09378,2.31203 1.28075,0.51562 2.71123,0.91482 4.5076,0.91482 2.17897,0 3.99199,-0.51562 5.40581,-1.54689 1.39722,-1.03128 2.81105,-2.57817 3.32666,-4.64068 h 5.15633 c -0.78175,3.34327 -2.82765,6.0545 -5.27275,7.71785 m -1.2974,-19.92669 c -0.51562,-1.03127 -1.14769,-2.06255 -1.91284,-2.82765 -0.78174,-0.78179 -1.81302,-1.41382 -2.84425,-1.81302 -1.14773,-0.51566 -2.31203,-0.63207 -3.59279,-0.63207 -1.2808,0 -2.57816,0.24952 -3.72586,0.63207 -1.03127,0.51562 -2.06254,1.03123 -2.84429,1.92944 -0.76515,0.78175 -1.41383,1.67996 -1.79642,2.8443 -0.51562,1.01462 -0.76514,2.17896 -0.76514,3.3433 h 18.3798 c -0.11625,-1.16434 -0.38238,-2.32868 -0.89821,-3.47637 m -67.13192,-9.78039 v 5.27279 h 0.13285 c 2.4451,-3.47638 5.78836,-5.27279 10.29601,-5.27279 1.92944,0 3.72585,0.39898 5.38916,1.16434 1.67996,0.76514 2.71123,2.17896 3.34331,4.10845 1.03123,-1.66335 2.4451,-2.96076 4.25812,-3.85893 1.79637,-0.8982 3.72586,-1.41386 5.77176,-1.41386 1.54689,0 3.09378,0.13285 4.37453,0.51566 1.29741,0.38238 2.4451,0.8982 3.34331,1.54689 0.91482,0.64868 1.67996,1.6633 2.19557,2.82764 0.51566,1.16435 0.76514,2.4451 0.76514,4.10845 v 23.41967 h -5.27274 v -20.97461 c 0,-1.03123 -0.13286,-1.79637 -0.24953,-2.69458 -0.13285,-0.89821 -0.51566,-1.54689 -0.89821,-2.19558 -0.51561,-0.63207 -1.03127,-1.14769 -1.92948,-1.41382 -0.91481,-0.24953 -1.81302,-0.51566 -3.09378,-0.51566 -2.56151,0 -4.62402,0.78179 -6.03789,2.19562 -1.41382,1.41382 -2.19557,3.34326 -2.19557,5.78836 v 19.92669 h -5.27275 V 933.0362 c 0,-1.03124 -0.13285,-1.92944 -0.24952,-2.82765 -0.13286,-0.89821 -0.51566,-1.54689 -0.89821,-2.19558 -0.51562,-0.63207 -1.03127,-1.01462 -1.81302,-1.41382 -0.76514,-0.38238 -1.79642,-0.51566 -2.94411,-0.51566 -1.54689,0 -2.82765,0.26613 -3.85892,0.91486 -1.1643,0.63203 -1.92944,1.28076 -2.71123,2.17892 -0.7651,0.89821 -1.1477,1.68 -1.41383,2.57817 -0.24952,0.89821 -0.51561,1.66335 -0.51561,2.31203 v 19.92669 h -5.27279 v -32.53473 z m 0,0 m -32.40167,0 v 5.65534 h 0.13286 c 2.17896,-3.72586 5.65533,-5.65534 10.27936,-5.65534 2.06255,0 3.85892,0.26613 5.27279,0.89821 1.41382,0.51565 2.57812,1.2974 3.34326,2.31203 0.78179,1.03127 1.41382,2.19561 1.79642,3.60944 0.39898,1.41382 0.51561,2.96071 0.51561,4.62402 v 21.09103 h -5.27274 V 932.2711 c 0,-1.92949 -0.49901,-3.47638 -1.66335,-4.64072 -1.1643,-1.14769 -2.69459,-1.6633 -4.75709,-1.6633 -1.54689,0 -2.96076,0.24952 -4.12506,0.76514 -1.14769,0.51561 -2.17896,1.1643 -2.94411,2.0625 -0.78174,0.89821 -1.41382,1.92949 -1.81302,3.07718 -0.38238,1.1643 -0.51561,2.4451 -0.51561,3.87553 v 18.24673 h -5.27279 v -32.53473 z m 0,0 m -123.08632,9.91346 c 0.64873,-1.92948 1.67996,-3.74251 2.96072,-5.15633 1.29741,-1.41383 2.96076,-2.56152 4.8902,-3.47633 1.92948,-0.89821 4.10844,-1.2808 6.68657,-1.2808 2.57816,0 4.75713,0.38238 6.68661,1.2808 1.92944,0.91481 3.47633,2.0625 4.89015,3.47633 1.2808,1.41382 2.31204,3.22685 2.96076,5.15633 0.63203,1.92944 1.03123,4.1084 1.03123,6.42044 0,2.31203 -0.39898,4.37458 -1.03123,6.30402 -0.64872,1.92948 -1.67996,3.72585 -2.96076,5.13968 -1.28075,1.41382 -2.96071,2.57816 -4.89015,3.47637 -1.92948,0.89821 -4.10845,1.28076 -6.68661,1.28076 -2.57813,0 -4.75709,-0.38238 -6.68657,-1.28076 -1.92944,-0.89821 -3.59279,-1.92948 -4.8902,-3.47637 -1.28076,-1.41383 -2.31199,-3.2102 -2.96072,-5.13968 -0.63207,-1.92944 -1.03127,-4.10841 -1.03127,-6.30402 0,-2.17897 0.39899,-4.491 1.03127,-6.42044 m 5.27275,11.31063 c 0.51566,1.41383 1.16434,2.69458 2.19562,3.60944 0.8982,1.01463 1.92944,1.66331 3.21019,2.31199 1.2808,0.63208 2.4451,0.76514 3.85893,0.76514 1.41386,0 2.69462,-0.24952 3.85892,-0.76514 1.16434,-0.51561 2.31203,-1.29736 3.21024,-2.31199 0.91481,-1.03127 1.54689,-2.19561 2.19561,-3.60944 0.64869,-1.41382 0.7651,-3.09378 0.7651,-5.02326 0,-1.91283 -0.24952,-3.59279 -0.7651,-5.00661 -0.51565,-1.41383 -1.16434,-2.69459 -2.19561,-3.72586 -0.89821,-1.03127 -1.92944,-1.81302 -3.21024,-2.32864 -1.1643,-0.49901 -2.44506,-0.76514 -3.85892,-0.76514 -1.41383,0 -2.69459,0.26613 -3.85893,0.76514 -1.16429,0.51562 -2.31199,1.29737 -3.21019,2.32864 -0.89821,1.03127 -1.54689,2.17897 -2.19562,3.72586 -0.49897,1.41382 -0.7651,3.09378 -0.7651,5.00661 0,1.92948 0.26613,3.60944 0.7651,5.02326 m -22.37174,9.64729 c -2.57817,1.03127 -5.13968,1.54693 -7.71785,1.54693 -3.21024,0 -6.17095,-0.64872 -8.74912,-1.79642 -2.56151,-1.16434 -4.75713,-2.57816 -6.5535,-4.64067 -1.79642,-2.06255 -3.21024,-4.37458 -4.12506,-7.06916 -0.8982,-2.71123 -1.41382,-5.40581 -1.41382,-8.23346 0,-3.21024 0.39899,-6.17095 1.29736,-9.13167 0.89821,-2.96076 2.17897,-5.40585 3.97539,-7.58478 1.81302,-2.19561 3.85892,-3.85892 6.57015,-5.13972 2.57812,-1.29736 5.6553,-1.92944 9.13167,-1.92944 2.31203,0 4.62402,0.24953 6.68657,0.76514 2.06251,0.51562 3.99199,1.41383 5.6553,2.57817 1.67999,1.14769 3.09382,2.69458 4.10844,4.49095 1.16434,1.81302 1.92944,3.99199 2.32864,6.55355 h -5.92143 c -0.24952,-1.66335 -0.76514,-3.07718 -1.54689,-4.35793 -0.76514,-1.16434 -1.79641,-2.19562 -2.82769,-2.96072 -1.14769,-0.78179 -2.44505,-1.41386 -3.85892,-1.79641 -1.41382,-0.39899 -3.09378,-0.51562 -4.75709,-0.51562 -2.69462,0 -4.89019,0.51562 -6.81968,1.53024 -1.92944,1.03128 -3.45972,2.4451 -4.62402,4.25812 -1.16434,1.66335 -2.06255,3.72586 -2.71123,5.90482 -0.63207,2.19562 -0.89821,4.50761 -0.89821,6.81964 0,2.31203 0.26614,4.50765 1.03128,6.55355 0.64868,2.0625 1.67995,3.99199 2.82765,5.53888 1.2974,1.6633 2.84429,2.96071 4.77373,3.85892 1.92948,0.89817 3.97538,1.41382 6.42048,1.41382 2.31203,0 4.37454,-0.38238 6.03789,-1.16434 1.67996,-0.76514 3.22685,-1.79637 4.50761,-3.07717 1.16434,-1.29737 2.19557,-2.82765 2.71123,-4.50761 0.49901,-1.6633 0.8982,-2.69458 0.76514,-4.62406 H 502.599 v -4.89015 h 18.77896 v 22.8874 h -4.75709 v -6.17096 c -1.68,2.4451 -3.85892,3.85893 -6.30402,4.89016" />
  </g>
</svg>
