<?xml version="1.0" encoding="iso-8859-1"?>
<!-- Generator: Adobe Illustrator 26.0.1, SVG Export Plug-In . SVG Version: 6.00 Build 0)  -->
<svg version="1.1" id="Layer_1" xmlns="http://www.w3.org/2000/svg" xmlns:xlink="http://www.w3.org/1999/xlink" x="0px" y="0px"
	 viewBox="0 0 500 500" style="enable-background:new 0 0 500 500;" xml:space="preserve">
<g id="watermark_1_">
	<g>
		<g id="watermark" style="opacity:0.61;">
			<g>
				<g>
					<g>
						<g>
							<polygon style="fill:#000000;" points="213.765,461.172 208.204,474.017 205.268,474.017 199.726,461.172 202.938,461.172 
								206.846,470.347 210.81,461.172 							"/>
						</g>
						<g>
							<path style="fill:#000000;" d="M223.507,469.741h-7.469c0.275,1.23,1.321,1.982,2.826,1.982c1.046,0,1.798-0.312,2.477-0.954
								l1.523,1.651c-0.917,1.046-2.294,1.597-4.074,1.597c-3.413,0-5.634-2.147-5.634-5.083c0-2.954,2.257-5.083,5.267-5.083
								c2.899,0,5.138,1.945,5.138,5.12C223.562,469.191,223.526,469.503,223.507,469.741 M216.002,468.071h4.863
								c-0.202-1.248-1.138-2.055-2.422-2.055C217.139,466.016,216.204,466.805,216.002,468.071"/>
						</g>
						<g>
							<path style="fill:#000000;" d="M224.735,468.934c0-2.973,2.294-5.083,5.505-5.083c2.074,0,3.707,0.899,4.423,2.514
								l-2.22,1.193c-0.532-0.936-1.321-1.358-2.221-1.358c-1.45,0-2.587,1.009-2.587,2.734c0,1.725,1.138,2.734,2.587,2.734
								c0.899,0,1.688-0.404,2.221-1.358l2.22,1.211c-0.716,1.578-2.349,2.495-4.423,2.495
								C227.029,474.017,224.735,471.907,224.735,468.934"/>
						</g>
						<g>
							<path style="fill:#000000;" d="M242.828,473.393c-0.587,0.422-1.45,0.624-2.331,0.624c-2.33,0-3.688-1.193-3.688-3.542
								v-4.055h-1.523v-2.202h1.523v-2.404h2.863v2.404h2.459v2.202h-2.459v4.019c0,0.844,0.458,1.303,1.229,1.303
								c0.422,0,0.844-0.128,1.156-0.367L242.828,473.393z"/>
						</g>
					</g>
					<g>
						<path style="fill:#000000;" d="M262.474,463.997v2.643c-0.238-0.018-0.422-0.037-0.642-0.037
							c-1.578,0-2.624,0.862-2.624,2.753v4.661h-2.863v-9.873h2.734v1.303C259.776,464.493,260.951,463.997,262.474,463.997"/>
					</g>
					<g>
						<path style="fill:#000000;" d="M263.299,472.53l1.009-2.239c1.083,0.789,2.697,1.339,4.239,1.339
							c1.762,0,2.477-0.587,2.477-1.376c0-2.404-7.469-0.752-7.469-5.524c0-2.184,1.762-4,5.413-4c1.615,0,3.267,0.385,4.459,1.138
							l-0.918,2.257c-1.193-0.679-2.422-1.009-3.56-1.009c-1.761,0-2.44,0.66-2.44,1.468c0,2.367,7.468,0.734,7.468,5.45
							c0,2.147-1.78,3.982-5.45,3.982C266.492,474.017,264.437,473.411,263.299,472.53"/>
					</g>
					<g>
						<path style="fill:#000000;" d="M285.428,469.741h-7.469c0.275,1.23,1.321,1.982,2.826,1.982c1.046,0,1.798-0.312,2.477-0.954
							l1.523,1.651c-0.918,1.046-2.294,1.597-4.074,1.597c-3.413,0-5.634-2.147-5.634-5.083c0-2.954,2.257-5.083,5.267-5.083
							c2.9,0,5.138,1.945,5.138,5.12C285.484,469.191,285.447,469.503,285.428,469.741 M277.923,468.071h4.863
							c-0.202-1.248-1.138-2.055-2.422-2.055C279.061,466.016,278.125,466.805,277.923,468.071"/>
					</g>
					<g>
						<path style="fill:#000000;" d="M297.007,469.741h-7.469c0.275,1.23,1.321,1.982,2.826,1.982c1.046,0,1.798-0.312,2.477-0.954
							l1.523,1.651c-0.918,1.046-2.294,1.597-4.074,1.597c-3.413,0-5.634-2.147-5.634-5.083c0-2.954,2.257-5.083,5.267-5.083
							c2.899,0,5.138,1.945,5.138,5.12C297.062,469.191,297.025,469.503,297.007,469.741 M289.501,468.071h4.863
							c-0.202-1.248-1.138-2.055-2.422-2.055C290.639,466.016,289.703,466.805,289.501,468.071"/>
					</g>
					<g>
						<polygon style="fill:#000000;" points="303.208,470.145 301.831,471.503 301.831,474.017 298.969,474.017 298.969,460.401 
							301.831,460.401 301.831,468.108 306.016,464.144 309.429,464.144 305.318,468.328 309.796,474.017 306.327,474.017 						"/>
					</g>
					<g>
						<path style="fill:#000000;" d="M256.601,475.359L256.601,475.359l-2.86-2.86c-0.435,0.508-0.953,0.943-1.534,1.284
							c-0.092,0.069-0.186,0.136-0.283,0.199l3.027,3.027c0.456,0.456,1.195,0.456,1.65,0
							C257.057,476.554,257.057,475.815,256.601,475.359"/>
					</g>
					<g>
						<path style="fill:#000000;" d="M249.984,463.244c0.221-0.173,0.495-0.281,0.797-0.281c0.042,0,0.083,0.002,0.124,0.006
							c-0.214-0.156-0.478-0.249-0.764-0.249c-0.395,0-0.744,0.18-0.981,0.458c-0.051,0-0.1,0.006-0.151,0.008
							c0.039-0.077,0.064-0.162,0.064-0.255c0-0.234-0.143-0.434-0.346-0.519c0.087,0.126,0.138,0.279,0.138,0.445
							c0,0.122-0.031,0.237-0.081,0.341c-2.811,0.201-5.03,2.539-5.03,5.4c0,2.993,2.426,5.42,5.42,5.42
							c2.993,0,5.42-2.426,5.42-5.42C254.595,465.879,252.593,463.635,249.984,463.244 M247.983,464.656
							c0.435,0,0.844,0.112,1.199,0.309c0.374-0.245,0.82-0.387,1.299-0.387c0.711,0,1.348,0.312,1.784,0.806
							c-0.435-0.379-1.004-0.61-1.627-0.61c-0.449,0-0.87,0.12-1.234,0.329c-0.079,0.046-0.156,0.096-0.229,0.15
							c-0.065-0.048-0.133-0.093-0.204-0.134c-0.369-0.219-0.8-0.344-1.26-0.344c-0.3,0-0.588,0.054-0.854,0.152
							C247.196,464.754,247.578,464.656,247.983,464.656 M251.772,469.098c0.115,0.305,0.181,0.634,0.181,0.979
							c0,1.534-1.244,2.777-2.778,2.777c-1.534,0-2.777-1.243-2.777-2.777c0-0.345,0.066-0.674,0.181-0.979
							c-0.62-0.382-1.035-1.064-1.035-1.846c0-1.197,0.971-2.168,2.168-2.168c0.565,0,1.078,0.218,1.463,0.572
							c0.386-0.354,0.899-0.572,1.464-0.572c1.197,0,2.168,0.971,2.168,2.168C252.807,468.034,252.392,468.716,251.772,469.098"/>
					</g>
					<g>
						<path style="fill:#000000;" d="M251.666,467.061c0,0.497-0.404,0.901-0.901,0.901c-0.497,0-0.901-0.404-0.901-0.901
							s0.404-0.901,0.901-0.901c0.101,0,0.197,0.017,0.287,0.047c-0.03,0.062-0.045,0.132-0.045,0.204
							c0,0.273,0.221,0.494,0.494,0.494c0.05,0,0.099-0.008,0.146-0.022C251.66,466.941,251.666,467,251.666,467.061"/>
					</g>
					<g>
						<path style="fill:#000000;" d="M248.255,467.061c0,0.376-0.305,0.681-0.681,0.681c-0.376,0-0.681-0.305-0.681-0.681
							s0.305-0.681,0.681-0.681c0.076,0,0.149,0.013,0.217,0.035c-0.023,0.047-0.034,0.1-0.034,0.155
							c0,0.206,0.167,0.374,0.374,0.374c0.038,0,0.075-0.006,0.11-0.017C248.25,466.97,248.255,467.015,248.255,467.061"/>
					</g>
					<g>
						<g>
							<g>
								<rect x="242.908" y="467.83" style="fill:#000000;" width="0.616" height="0.616"/>
							</g>
							<g>
								<rect x="254.827" y="467.83" style="fill:#000000;" width="0.616" height="0.616"/>
							</g>
							<g>
								<path style="fill:#000000;" d="M255.205,468.082h-0.14c0-3.248-2.642-5.89-5.89-5.89c-3.248,0-5.89,2.642-5.89,5.89h-0.14
									c0-1.611,0.627-3.125,1.766-4.264c1.139-1.139,2.653-1.766,4.264-1.766c1.611,0,3.125,0.627,4.264,1.766
									C254.578,464.957,255.205,466.471,255.205,468.082"/>
							</g>
						</g>
						<g>
							<rect x="248.868" y="461.814" style="fill:#000000;" width="0.616" height="0.616"/>
						</g>
						<g>
							<rect x="244.95" y="462.052" style="fill:#000000;" width="8.45" height="0.14"/>
						</g>
						<g>
							<path style="fill:#000000;" d="M245.174,462.15c0,0.108-0.088,0.196-0.196,0.196c-0.108,0-0.196-0.088-0.196-0.196
								c0-0.108,0.088-0.196,0.196-0.196C245.086,461.954,245.174,462.042,245.174,462.15"/>
						</g>
						<g>
							<path style="fill:#000000;" d="M253.596,462.15c0,0.108-0.088,0.196-0.196,0.196c-0.108,0-0.196-0.088-0.196-0.196
								c0-0.108,0.088-0.196,0.196-0.196C253.509,461.954,253.596,462.042,253.596,462.15"/>
						</g>
					</g>
				</g>
				<g>
					<path style="fill:#000000;" d="M314.356,473.409c0,1.559-2.364,1.559-2.364,0C311.993,471.851,314.356,471.851,314.356,473.409
						z"/>
				</g>
				<g>
					<g>
						<g>
							<path style="fill:#000000;" d="M161.739,466.549l1.772,6.088l1.855-6.088h2.215l-2.823,8.14h-2.33l-0.837-2.396l-0.722-2.708
								l-0.722,2.708l-0.837,2.396h-2.33l-2.839-8.14h2.231l1.855,6.088l1.756-6.088H161.739z"/>
						</g>
						<g>
							<path style="fill:#000000;" d="M176.713,466.549l1.772,6.088l1.855-6.088h2.215l-2.823,8.14h-2.33l-0.837-2.396l-0.722-2.708
								l-0.722,2.708l-0.837,2.396h-2.33l-2.839-8.14h2.231l1.855,6.088l1.756-6.088H176.713z"/>
						</g>
						<g>
							<path style="fill:#000000;" d="M191.687,466.549l1.772,6.088l1.855-6.088h2.215l-2.823,8.14h-2.33l-0.837-2.396l-0.722-2.708
								l-0.722,2.708l-0.837,2.396h-2.33l-2.839-8.14h2.231l1.855,6.088l1.756-6.088H191.687z"/>
						</g>
					</g>
					<g>
						<path style="fill:#000000;" d="M200.908,473.52c0,1.559-2.364,1.559-2.364,0C198.545,471.962,200.908,471.962,200.908,473.52z
							"/>
					</g>
					<g>
						<path style="fill:#000000;" d="M322.71,473.409c-0.935,0.919-1.919,1.28-3.117,1.28c-2.346,0-4.3-1.411-4.3-4.282
							s1.953-4.284,4.3-4.284c1.149,0,2.035,0.329,2.921,1.199l-1.264,1.329c-0.476-0.428-1.066-0.64-1.623-0.64
							c-1.346,0-2.33,0.985-2.33,2.396c0,1.542,1.05,2.362,2.297,2.362c0.64,0,1.28-0.18,1.772-0.672L322.71,473.409z"/>
					</g>
					<g>
						<path style="fill:#000000;" d="M331.805,470.472c0,2.33-1.591,4.217-4.217,4.217c-2.626,0-4.201-1.887-4.201-4.217
							c0-2.314,1.609-4.217,4.185-4.217C330.149,466.255,331.805,468.158,331.805,470.472z M325.389,470.472
							c0,1.231,0.739,2.38,2.199,2.38c1.46,0,2.199-1.149,2.199-2.38c0-1.215-0.854-2.396-2.199-2.396
							C326.144,468.077,325.389,469.258,325.389,470.472z"/>
					</g>
					<g>
						<path style="fill:#000000;" d="M338.572,474.689v-4.332c0-1.068-0.559-2.035-1.658-2.035c-1.082,0-1.722,0.967-1.722,2.035
							v4.332h-2.003v-8.107h1.855l0.148,0.985c0.426-0.82,1.362-1.116,2.133-1.116c0.969,0,1.937,0.394,2.396,1.51
							c0.723-1.149,1.658-1.478,2.708-1.478c2.297,0,3.43,1.412,3.43,3.84v4.365h-2.003v-4.365c0-1.066-0.442-1.97-1.526-1.97
							c-1.082,0-1.756,0.935-1.756,2.003v4.332H338.572z"/>
					</g>
				</g>
			</g>
		</g>
		<g style="opacity:0.61;">
			<g>
				<g>
					<path style="fill:#000000;" d="M345.988,431.299c-0.006-1.224-0.959-2.121-2.189-2.14c-0.924-0.014-0.832,0.12-0.834-0.867
						c-0.003-1.097-0.007-2.194,0.003-3.292c0.003-0.379-0.112-0.691-0.362-0.976c-2.342-2.668-4.678-5.342-7.019-8.011
						c-0.12-0.137-0.275-0.244-0.414-0.366c-6.214,0-12.427,0-18.641,0c-0.794,0.293-1.14,0.868-1.138,1.709
						c0.01,3.748,0.004,7.496,0.004,11.243c0,0.556-0.003,0.589-0.55,0.551c-1.497-0.102-2.516,0.986-2.497,2.492
						c0.044,3.476,0.013,6.953,0.014,10.429c0.001,1.58,0.867,2.443,2.45,2.449c0.582,0.002,0.582,0.002,0.582,0.6
						c0,2.219-0.001,4.438,0.001,6.657c0.001,1.192,0.58,1.771,1.768,1.771c8.013,0.001,16.027,0.001,24.04,0
						c1.168,0,1.755-0.583,1.757-1.745c0.002-2.256,0-4.512,0.001-6.768c0-0.512,0.002-0.511,0.52-0.515
						c0.271-0.002,0.541,0.008,0.809-0.058c0.996-0.246,1.69-1.044,1.694-2.069C346.003,438.696,346.005,434.997,345.988,431.299z
						 M317.537,417.162c5.337,0,10.674,0,16.01,0c0.548,0,0.554,0.007,0.554,0.561c0.001,2.243-0.001,4.486,0.001,6.73
						c0.001,0.811,0.249,1.059,1.06,1.059c1.91,0.001,3.821,0,5.731,0.001c0.458,0,0.479,0.021,0.481,0.483
						c0.003,0.887,0.002,1.775,0,2.662c-0.001,0.477-0.024,0.498-0.504,0.499c-3.895,0.001-7.79,0-11.684,0
						c-3.882,0-7.765,0-11.647,0c-0.55,0-0.552-0.001-0.552-0.561c-0.001-3.624-0.001-7.247,0-10.871
						C316.987,417.166,316.991,417.162,317.537,417.162z M340.822,451.579c-3.883,0.001-7.766,0-11.65,0c-3.871,0-7.742,0-11.613,0
						c-0.572,0-0.574-0.002-0.574-0.579c-0.001-1.997-0.001-3.994,0.001-5.991c0-0.464,0.023-0.486,0.478-0.487
						c7.803-0.001,15.607-0.001,23.41,0c0.478,0,0.499,0.02,0.499,0.503c0.002,1.997,0.001,3.994,0,5.991
						C341.375,451.574,341.37,451.579,340.822,451.579z"/>
				</g>
				<g>
					<g>
						<rect x="327.418" y="417.053" style="fill:#000000;" width="1.757" height="1.054"/>
					</g>
					<g>
						<rect x="325.662" y="418.107" style="fill:#000000;" width="1.757" height="1.054"/>
					</g>
					<g>
						<rect x="327.418" y="419.161" style="fill:#000000;" width="1.757" height="1.054"/>
					</g>
					<g>
						<rect x="325.662" y="420.215" style="fill:#000000;" width="1.757" height="1.054"/>
					</g>
					<g>
						<rect x="327.418" y="421.269" style="fill:#000000;" width="1.757" height="1.054"/>
					</g>
					<g>
						<rect x="325.662" y="422.323" style="fill:#000000;" width="1.757" height="1.054"/>
					</g>
					<g>
						<rect x="327.418" y="423.378" style="fill:#000000;" width="1.757" height="1.054"/>
					</g>
					<g>
						<rect x="325.662" y="424.432" style="fill:#000000;" width="1.757" height="1.054"/>
					</g>
					<g>
						<rect x="327.418" y="425.486" style="fill:#000000;" width="1.757" height="1.054"/>
					</g>
					<g>
						<rect x="325.662" y="426.54" style="fill:#000000;" width="1.757" height="1.054"/>
					</g>
					<g>
						<rect x="327.418" y="427.594" style="fill:#000000;" width="1.757" height="1.054"/>
					</g>
					<g>
						<rect x="325.662" y="428.648" style="fill:#000000;" width="1.757" height="1.054"/>
					</g>
				</g>
			</g>
			<g>
				<path style="fill:#000000;" d="M187.637,431.299c-0.006-1.224-0.959-2.121-2.189-2.14c-0.924-0.014-0.832,0.12-0.834-0.867
					c-0.003-1.097-0.007-2.194,0.003-3.292c0.003-0.379-0.112-0.691-0.362-0.976c-2.342-2.668-4.678-5.342-7.019-8.011
					c-0.12-0.137-0.275-0.244-0.414-0.366c-6.214,0-12.427,0-18.641,0c-0.794,0.293-1.14,0.868-1.138,1.709
					c0.01,3.748,0.004,7.496,0.004,11.243c0,0.556-0.003,0.589-0.55,0.551c-1.497-0.102-2.516,0.986-2.497,2.492
					c0.044,3.476,0.013,6.953,0.014,10.429c0.001,1.58,0.867,2.443,2.45,2.449c0.582,0.002,0.582,0.002,0.582,0.6
					c0,2.219-0.001,4.438,0.001,6.657c0.001,1.192,0.58,1.771,1.768,1.771c8.013,0.001,16.027,0.001,24.04,0
					c1.168,0,1.755-0.583,1.757-1.745c0.002-2.256,0-4.512,0.001-6.768c0-0.512,0.002-0.511,0.52-0.515
					c0.271-0.002,0.541,0.008,0.809-0.058c0.996-0.246,1.69-1.044,1.694-2.069C187.652,438.696,187.655,434.997,187.637,431.299z
					 M159.187,417.162c5.337,0,10.674,0,16.01,0c0.548,0,0.554,0.007,0.554,0.561c0.001,2.243-0.001,4.486,0.001,6.73
					c0.001,0.811,0.249,1.059,1.06,1.059c1.91,0.001,3.821,0,5.731,0.001c0.458,0,0.479,0.021,0.481,0.483
					c0.003,0.887,0.002,1.775,0,2.662c-0.001,0.477-0.024,0.498-0.504,0.499c-3.895,0.001-7.79,0-11.684,0
					c-3.882,0-7.765,0-11.647,0c-0.55,0-0.552-0.001-0.552-0.561c-0.001-3.624-0.001-7.247,0-10.871
					C158.636,417.166,158.64,417.162,159.187,417.162z M182.472,451.579c-3.883,0.001-7.766,0-11.65,0c-3.871,0-7.742,0-11.613,0
					c-0.572,0-0.574-0.002-0.574-0.579c-0.001-1.997-0.001-3.994,0.001-5.991c0-0.464,0.023-0.486,0.478-0.487
					c7.803-0.001,15.607-0.001,23.41,0c0.478,0,0.499,0.02,0.499,0.503c0.002,1.997,0.001,3.994,0,5.991
					C183.024,451.574,183.019,451.579,182.472,451.579z"/>
			</g>
			<g>
				<path style="fill:#000000;" d="M159.779,440.669v-7.897h2.779c0.375,0,0.726,0.061,1.053,0.182
					c0.327,0.121,0.612,0.292,0.855,0.513c0.242,0.221,0.434,0.483,0.573,0.789c0.14,0.305,0.21,0.642,0.21,1.009
					c0,0.375-0.07,0.715-0.21,1.02c-0.14,0.305-0.331,0.568-0.573,0.789c-0.243,0.221-0.528,0.392-0.855,0.513
					c-0.327,0.121-0.678,0.182-1.053,0.182h-1.29v2.901H159.779z M162.58,436.356c0.39,0,0.684-0.111,0.882-0.331
					c0.199-0.22,0.298-0.474,0.298-0.761c0-0.14-0.024-0.276-0.072-0.408c-0.048-0.132-0.121-0.248-0.221-0.347
					c-0.099-0.099-0.223-0.178-0.37-0.237c-0.147-0.059-0.32-0.089-0.518-0.089h-1.312v2.173H162.58z"/>
				<path style="fill:#000000;" d="M166.308,432.771h1.731l3.177,5.294h0.088l-0.088-1.522v-3.772h1.478v7.897h-1.566l-3.353-5.592
					h-0.088l0.088,1.522v4.07h-1.467V432.771z"/>
				<path style="fill:#000000;" d="M177.922,436.334h3.872c0.022,0.089,0.04,0.195,0.055,0.32c0.014,0.125,0.022,0.25,0.022,0.375
					c0,0.507-0.077,0.985-0.231,1.434c-0.154,0.449-0.397,0.849-0.728,1.202c-0.353,0.375-0.776,0.666-1.268,0.871
					c-0.493,0.206-1.055,0.309-1.688,0.309c-0.574,0-1.114-0.103-1.622-0.309c-0.507-0.206-0.948-0.492-1.323-0.86
					c-0.375-0.367-0.673-0.803-0.894-1.307c-0.221-0.504-0.331-1.053-0.331-1.649c0-0.595,0.11-1.145,0.331-1.649
					c0.221-0.504,0.518-0.939,0.894-1.307c0.375-0.367,0.816-0.654,1.323-0.86c0.507-0.206,1.048-0.309,1.622-0.309
					c0.64,0,1.211,0.11,1.715,0.331c0.504,0.221,0.935,0.526,1.296,0.915l-1.025,1.004c-0.258-0.272-0.544-0.48-0.861-0.623
					c-0.316-0.143-0.695-0.215-1.136-0.215c-0.361,0-0.703,0.065-1.026,0.193c-0.324,0.129-0.607,0.311-0.85,0.546
					c-0.242,0.235-0.436,0.52-0.579,0.855c-0.143,0.335-0.215,0.708-0.215,1.119c0,0.412,0.072,0.785,0.215,1.12
					c0.143,0.335,0.338,0.62,0.584,0.855c0.246,0.235,0.531,0.418,0.855,0.546c0.323,0.129,0.669,0.193,1.037,0.193
					c0.419,0,0.773-0.061,1.064-0.182c0.29-0.121,0.538-0.278,0.744-0.469c0.148-0.132,0.275-0.3,0.381-0.502
					c0.106-0.202,0.189-0.428,0.248-0.678h-2.482V436.334z"/>
			</g>
			<g>
				<path style="fill:#000000;" d="M224.019,431.299c-0.006-1.224-0.959-2.121-2.189-2.14c-0.924-0.014-0.832,0.12-0.834-0.867
					c-0.003-1.097-0.007-2.194,0.003-3.292c0.003-0.379-0.112-0.691-0.362-0.976c-2.342-2.668-4.678-5.342-7.019-8.011
					c-0.12-0.137-0.275-0.244-0.414-0.366c-6.214,0-12.427,0-18.641,0c-0.794,0.293-1.14,0.868-1.138,1.709
					c0.01,3.748,0.004,7.496,0.004,11.243c0,0.556-0.003,0.589-0.55,0.551c-1.497-0.102-2.516,0.986-2.497,2.492
					c0.044,3.476,0.013,6.953,0.014,10.429c0.001,1.58,0.867,2.443,2.45,2.449c0.582,0.002,0.582,0.002,0.582,0.6
					c0,2.219-0.001,4.438,0.001,6.657c0.001,1.192,0.58,1.771,1.768,1.771c8.013,0.001,16.027,0.001,24.04,0
					c1.168,0,1.755-0.583,1.757-1.745c0.002-2.256,0-4.512,0.001-6.768c0-0.512,0.002-0.511,0.52-0.515
					c0.271-0.002,0.541,0.008,0.809-0.058c0.997-0.246,1.69-1.044,1.694-2.069C224.034,438.696,224.036,434.997,224.019,431.299z
					 M195.568,417.162c5.337,0,10.674,0,16.01,0c0.548,0,0.554,0.007,0.554,0.561c0.001,2.243-0.001,4.486,0.001,6.73
					c0.001,0.811,0.249,1.059,1.06,1.059c1.91,0.001,3.821,0,5.731,0.001c0.458,0,0.479,0.021,0.481,0.483
					c0.003,0.887,0.002,1.775,0,2.662c-0.001,0.477-0.024,0.498-0.504,0.499c-3.895,0.001-7.79,0-11.684,0
					c-3.882,0-7.765,0-11.647,0c-0.55,0-0.552-0.001-0.552-0.561c-0.001-3.624-0.001-7.247,0-10.871
					C195.018,417.166,195.022,417.162,195.568,417.162z M218.854,451.579c-3.883,0.001-7.766,0-11.65,0c-3.871,0-7.742,0-11.613,0
					c-0.572,0-0.574-0.002-0.574-0.579c-0.001-1.997-0.001-3.994,0.001-5.991c0-0.464,0.023-0.486,0.478-0.487
					c7.803-0.001,15.607-0.001,23.41,0c0.478,0,0.499,0.02,0.499,0.503c0.002,1.997,0.001,3.994,0,5.991
					C219.406,451.574,219.401,451.579,218.854,451.579z"/>
			</g>
			<g>
				<path style="fill:#000000;" d="M205.111,432.771h1.699l2.967,7.897h-1.644l-0.651-1.886h-3.044l-0.651,1.886h-1.643
					L205.111,432.771z M206.997,437.415l-0.706-1.974l-0.287-0.96h-0.088l-0.287,0.96l-0.706,1.974H206.997z"/>
				<path style="fill:#000000;" d="M211.331,434.536c-0.125,0-0.245-0.024-0.359-0.072c-0.114-0.048-0.213-0.114-0.298-0.199
					c-0.084-0.084-0.151-0.182-0.198-0.292c-0.048-0.11-0.072-0.232-0.072-0.364s0.024-0.254,0.072-0.364
					c0.048-0.11,0.114-0.208,0.198-0.292c0.084-0.084,0.184-0.151,0.298-0.198c0.114-0.048,0.233-0.072,0.359-0.072
					c0.257,0,0.478,0.09,0.662,0.27c0.184,0.181,0.276,0.399,0.276,0.656s-0.092,0.476-0.276,0.656
					C211.809,434.446,211.589,434.536,211.331,434.536z M210.615,440.669v-5.404h1.445v5.404H210.615z"/>
			</g>
			<g>
				<path style="fill:#000000;" d="M261.044,431.299c-0.006-1.224-0.959-2.121-2.189-2.14c-0.924-0.014-0.832,0.12-0.834-0.867
					c-0.003-1.097-0.007-2.194,0.003-3.292c0.003-0.379-0.112-0.691-0.362-0.976c-2.342-2.668-4.678-5.342-7.019-8.011
					c-0.12-0.137-0.275-0.244-0.414-0.366c-6.214,0-12.427,0-18.641,0c-0.794,0.293-1.14,0.868-1.138,1.709
					c0.01,3.748,0.004,7.496,0.004,11.243c0,0.556-0.003,0.589-0.55,0.551c-1.497-0.102-2.516,0.986-2.497,2.492
					c0.044,3.476,0.013,6.953,0.014,10.429c0.001,1.58,0.867,2.443,2.45,2.449c0.582,0.002,0.582,0.002,0.582,0.6
					c0,2.219-0.001,4.438,0.001,6.657c0.001,1.192,0.58,1.771,1.768,1.771c8.013,0.001,16.027,0.001,24.04,0
					c1.168,0,1.755-0.583,1.757-1.745c0.002-2.256,0-4.512,0.001-6.768c0-0.512,0.002-0.511,0.52-0.515
					c0.271-0.002,0.541,0.008,0.809-0.058c0.996-0.246,1.69-1.044,1.694-2.069C261.059,438.696,261.061,434.997,261.044,431.299z
					 M232.593,417.162c5.337,0,10.674,0,16.01,0c0.548,0,0.554,0.007,0.554,0.561c0.001,2.243-0.001,4.486,0.001,6.73
					c0.001,0.811,0.249,1.059,1.06,1.059c1.91,0.001,3.821,0,5.731,0.001c0.458,0,0.479,0.021,0.481,0.483
					c0.003,0.887,0.002,1.775,0,2.662c-0.001,0.477-0.024,0.498-0.504,0.499c-3.895,0.001-7.79,0-11.684,0
					c-3.882,0-7.765,0-11.647,0c-0.55,0-0.552-0.001-0.552-0.561c-0.001-3.624-0.001-7.247,0-10.871
					C232.042,417.166,232.047,417.162,232.593,417.162z M255.878,451.579c-3.883,0.001-7.766,0-11.65,0c-3.871,0-7.742,0-11.613,0
					c-0.572,0-0.574-0.002-0.574-0.579c-0.001-1.997-0.001-3.994,0.001-5.991c0-0.464,0.023-0.486,0.478-0.487
					c7.803-0.001,15.607-0.001,23.41,0c0.478,0,0.499,0.02,0.499,0.503c0.002,1.997,0.001,3.994,0,5.991
					C256.431,451.574,256.426,451.579,255.878,451.579z"/>
			</g>
			<g>
				<path style="fill:#000000;" d="M236.361,440.845c-0.338,0-0.662-0.048-0.971-0.143c-0.309-0.095-0.592-0.239-0.849-0.43
					c-0.257-0.191-0.481-0.425-0.673-0.7c-0.191-0.276-0.342-0.597-0.452-0.965l1.401-0.551c0.103,0.397,0.283,0.726,0.54,0.987
					c0.257,0.261,0.596,0.392,1.015,0.392c0.154,0,0.303-0.02,0.447-0.061c0.143-0.04,0.272-0.099,0.386-0.176
					s0.204-0.175,0.27-0.292c0.066-0.118,0.099-0.254,0.099-0.408c0-0.147-0.026-0.279-0.077-0.397
					c-0.051-0.117-0.138-0.227-0.259-0.331c-0.121-0.103-0.28-0.202-0.475-0.298c-0.195-0.095-0.435-0.195-0.722-0.298l-0.485-0.176
					c-0.213-0.073-0.429-0.173-0.645-0.298c-0.217-0.125-0.413-0.276-0.59-0.452c-0.177-0.176-0.322-0.384-0.436-0.623
					c-0.114-0.239-0.171-0.509-0.171-0.81c0-0.309,0.06-0.597,0.182-0.866c0.121-0.268,0.294-0.503,0.518-0.706
					c0.224-0.202,0.492-0.36,0.805-0.474s0.66-0.171,1.042-0.171c0.397,0,0.74,0.053,1.031,0.16
					c0.291,0.107,0.537,0.243,0.739,0.408c0.202,0.165,0.366,0.348,0.491,0.546c0.125,0.199,0.217,0.386,0.276,0.563l-1.312,0.551
					c-0.074-0.221-0.208-0.419-0.402-0.596c-0.195-0.176-0.462-0.265-0.8-0.265c-0.324,0-0.592,0.075-0.805,0.226
					c-0.213,0.151-0.32,0.348-0.32,0.59c0,0.235,0.103,0.436,0.309,0.601c0.206,0.165,0.533,0.325,0.982,0.48l0.497,0.165
					c0.316,0.111,0.605,0.237,0.866,0.381c0.261,0.143,0.485,0.314,0.673,0.513c0.187,0.199,0.331,0.425,0.43,0.678
					c0.1,0.254,0.149,0.546,0.149,0.877c0,0.412-0.083,0.767-0.248,1.064c-0.165,0.298-0.377,0.542-0.634,0.734
					c-0.258,0.191-0.548,0.335-0.872,0.43C236.986,440.797,236.67,440.845,236.361,440.845z"/>
				<path style="fill:#000000;" d="M239.516,432.771h1.61l1.633,4.754l0.287,1.015h0.088l0.309-1.015l1.699-4.754h1.61l-2.879,7.897
					h-1.566L239.516,432.771z"/>
				<path style="fill:#000000;" d="M251.097,436.334h3.871c0.022,0.089,0.04,0.195,0.055,0.32c0.015,0.125,0.023,0.25,0.023,0.375
					c0,0.507-0.078,0.985-0.232,1.434c-0.154,0.449-0.397,0.849-0.728,1.202c-0.353,0.375-0.775,0.666-1.268,0.871
					c-0.493,0.206-1.055,0.309-1.688,0.309c-0.574,0-1.114-0.103-1.621-0.309c-0.507-0.206-0.949-0.492-1.324-0.86
					c-0.375-0.367-0.673-0.803-0.894-1.307c-0.22-0.504-0.331-1.053-0.331-1.649c0-0.595,0.11-1.145,0.331-1.649
					c0.221-0.504,0.518-0.939,0.894-1.307c0.375-0.367,0.816-0.654,1.324-0.86c0.507-0.206,1.047-0.309,1.621-0.309
					c0.64,0,1.211,0.11,1.715,0.331c0.504,0.221,0.936,0.526,1.296,0.915l-1.026,1.004c-0.257-0.272-0.544-0.48-0.861-0.623
					c-0.316-0.143-0.694-0.215-1.136-0.215c-0.36,0-0.702,0.065-1.026,0.193c-0.323,0.129-0.607,0.311-0.849,0.546
					c-0.243,0.235-0.436,0.52-0.579,0.855c-0.143,0.335-0.215,0.708-0.215,1.119c0,0.412,0.072,0.785,0.215,1.12
					c0.143,0.335,0.338,0.62,0.585,0.855c0.246,0.235,0.531,0.418,0.854,0.546c0.324,0.129,0.669,0.193,1.037,0.193
					c0.419,0,0.774-0.061,1.064-0.182c0.29-0.121,0.539-0.278,0.745-0.469c0.147-0.132,0.274-0.3,0.38-0.502
					c0.107-0.202,0.189-0.428,0.248-0.678h-2.482V436.334z"/>
			</g>
			<g>
				<path style="fill:#000000;" d="M297.3,431.299c-0.006-1.224-0.959-2.121-2.189-2.14c-0.924-0.014-0.832,0.12-0.834-0.867
					c-0.003-1.097-0.007-2.194,0.003-3.292c0.003-0.379-0.112-0.691-0.362-0.976c-2.342-2.668-4.678-5.342-7.019-8.011
					c-0.12-0.137-0.275-0.244-0.414-0.366c-6.214,0-12.427,0-18.641,0c-0.794,0.293-1.14,0.868-1.138,1.709
					c0.01,3.748,0.004,7.496,0.004,11.243c0,0.556-0.003,0.589-0.55,0.551c-1.497-0.102-2.516,0.986-2.497,2.492
					c0.044,3.476,0.013,6.953,0.014,10.429c0.001,1.58,0.867,2.443,2.45,2.449c0.582,0.002,0.582,0.002,0.582,0.6
					c0,2.219-0.001,4.438,0.001,6.657c0.001,1.192,0.58,1.771,1.768,1.771c8.013,0.001,16.027,0.001,24.04,0
					c1.168,0,1.755-0.583,1.757-1.745c0.002-2.256,0-4.512,0.001-6.768c0-0.512,0.002-0.511,0.52-0.515
					c0.271-0.002,0.541,0.008,0.809-0.058c0.996-0.246,1.69-1.044,1.694-2.069C297.315,438.696,297.318,434.997,297.3,431.299z
					 M268.85,417.162c5.337,0,10.674,0,16.01,0c0.548,0,0.554,0.007,0.554,0.561c0.001,2.243-0.001,4.486,0.001,6.73
					c0.001,0.811,0.249,1.059,1.06,1.059c1.91,0.001,3.821,0,5.731,0.001c0.458,0,0.479,0.021,0.481,0.483
					c0.003,0.887,0.002,1.775,0,2.662c-0.001,0.477-0.024,0.498-0.504,0.499c-3.895,0.001-7.79,0-11.684,0
					c-3.882,0-7.765,0-11.647,0c-0.55,0-0.552-0.001-0.552-0.561c-0.001-3.624-0.001-7.247,0-10.871
					C268.299,417.166,268.303,417.162,268.85,417.162z M292.135,451.579c-3.883,0.001-7.766,0-11.65,0c-3.871,0-7.742,0-11.613,0
					c-0.572,0-0.574-0.002-0.574-0.579c-0.001-1.997-0.001-3.994,0.001-5.991c0-0.464,0.023-0.486,0.478-0.487
					c7.803-0.001,15.607-0.001,23.41,0c0.478,0,0.499,0.02,0.499,0.503c0.001,1.997,0.001,3.994,0,5.991
					C292.687,451.574,292.682,451.579,292.135,451.579z"/>
			</g>
			<g>
				<path style="fill:#000000;" d="M272.966,434.183v1.831h3.165v1.412h-3.165v1.831h3.518v1.412h-5.007v-7.897h5.007v1.412H272.966
					z"/>
				<path style="fill:#000000;" d="M277.852,440.669v-7.897h2.779c0.375,0,0.726,0.061,1.053,0.182
					c0.327,0.121,0.612,0.292,0.855,0.513c0.243,0.221,0.434,0.483,0.574,0.789c0.14,0.305,0.209,0.642,0.209,1.009
					c0,0.375-0.07,0.715-0.209,1.02c-0.14,0.305-0.331,0.568-0.574,0.789c-0.243,0.221-0.528,0.392-0.855,0.513
					c-0.327,0.121-0.678,0.182-1.053,0.182h-1.29v2.901H277.852z M280.653,436.356c0.389,0,0.684-0.111,0.882-0.331
					c0.199-0.22,0.298-0.474,0.298-0.761c0-0.14-0.024-0.276-0.072-0.408c-0.048-0.132-0.121-0.248-0.221-0.347
					c-0.099-0.099-0.222-0.178-0.37-0.237c-0.147-0.059-0.32-0.089-0.518-0.089h-1.312v2.173H280.653z"/>
				<path style="fill:#000000;" d="M286.797,440.845c-0.338,0-0.662-0.048-0.971-0.143c-0.309-0.095-0.592-0.239-0.849-0.43
					c-0.257-0.191-0.482-0.425-0.673-0.7c-0.191-0.276-0.342-0.597-0.452-0.965l1.401-0.551c0.103,0.397,0.283,0.726,0.541,0.987
					c0.257,0.261,0.595,0.392,1.015,0.392c0.154,0,0.303-0.02,0.447-0.061c0.143-0.04,0.272-0.099,0.386-0.176
					c0.114-0.077,0.204-0.175,0.27-0.292c0.066-0.118,0.1-0.254,0.1-0.408c0-0.147-0.026-0.279-0.077-0.397
					c-0.051-0.117-0.138-0.227-0.259-0.331c-0.121-0.103-0.279-0.202-0.474-0.298c-0.195-0.095-0.436-0.195-0.723-0.298
					l-0.485-0.176c-0.213-0.073-0.428-0.173-0.645-0.298c-0.217-0.125-0.414-0.276-0.59-0.452c-0.176-0.176-0.322-0.384-0.436-0.623
					c-0.114-0.239-0.171-0.509-0.171-0.81c0-0.309,0.061-0.597,0.182-0.866c0.121-0.268,0.294-0.503,0.518-0.706
					c0.224-0.202,0.493-0.36,0.805-0.474c0.312-0.114,0.66-0.171,1.042-0.171c0.397,0,0.741,0.053,1.031,0.16
					c0.29,0.107,0.537,0.243,0.739,0.408c0.202,0.165,0.365,0.348,0.491,0.546c0.125,0.199,0.217,0.386,0.276,0.563l-1.312,0.551
					c-0.074-0.221-0.208-0.419-0.403-0.596c-0.195-0.176-0.462-0.265-0.799-0.265c-0.324,0-0.592,0.075-0.805,0.226
					c-0.213,0.151-0.32,0.348-0.32,0.59c0,0.235,0.103,0.436,0.309,0.601c0.206,0.165,0.533,0.325,0.982,0.48l0.496,0.165
					c0.316,0.111,0.605,0.237,0.866,0.381c0.261,0.143,0.485,0.314,0.673,0.513c0.187,0.199,0.331,0.425,0.43,0.678
					c0.099,0.254,0.149,0.546,0.149,0.877c0,0.412-0.083,0.767-0.248,1.064c-0.165,0.298-0.377,0.542-0.634,0.734
					c-0.258,0.191-0.548,0.335-0.872,0.43C287.422,440.797,287.105,440.845,286.797,440.845z"/>
			</g>
			<g>
				<path style="fill:#000000;" d="M321.394,439.168l4.004-4.985h-3.827v-1.412h5.559v1.5l-3.96,4.985h4.004v1.412h-5.779V439.168z"
					/>
				<path style="fill:#000000;" d="M328.409,432.771h1.489v7.897h-1.489V432.771z"/>
				<path style="fill:#000000;" d="M331.486,440.669v-7.897h2.779c0.375,0,0.726,0.061,1.053,0.182
					c0.327,0.121,0.612,0.292,0.855,0.513s0.434,0.483,0.574,0.789c0.14,0.305,0.209,0.642,0.209,1.009
					c0,0.375-0.07,0.715-0.209,1.02c-0.14,0.305-0.331,0.568-0.574,0.789c-0.243,0.221-0.528,0.392-0.855,0.513
					c-0.327,0.121-0.678,0.182-1.053,0.182h-1.29v2.901H331.486z M334.288,436.356c0.389,0,0.684-0.111,0.882-0.331
					c0.199-0.22,0.298-0.474,0.298-0.761c0-0.14-0.024-0.276-0.072-0.408c-0.048-0.132-0.121-0.248-0.221-0.347
					c-0.099-0.099-0.222-0.178-0.37-0.237c-0.147-0.059-0.32-0.089-0.518-0.089h-1.312v2.173H334.288z"/>
			</g>
		</g>
		<g style="opacity:0.61;">
			<path style="fill:#000000;" d="M300.133,433.27h9.067v2.242h-9.067V433.27z M300.133,437.136h9.067v2.243h-9.067V437.136z"/>
		</g>
	</g>
	<g style="opacity:0.61;">
		<path style="fill:#000000;" d="M156.756,478.878h1.607c1.263,0,2.114,0.812,2.114,1.974c0,1.161-0.851,1.973-2.114,1.973h-1.607
			V478.878z M158.34,482.464c1.049,0,1.725-0.665,1.725-1.612c0-0.947-0.677-1.613-1.725-1.613h-1.167v3.225H158.34z"/>
		<path style="fill:#000000;" d="M165.139,480.851c0-1.15,0.879-2.007,2.075-2.007c1.184,0,2.069,0.851,2.069,2.007
			c0,1.156-0.885,2.007-2.069,2.007C166.019,482.858,165.139,482.002,165.139,480.851z M168.866,480.851
			c0-0.942-0.705-1.635-1.652-1.635c-0.953,0-1.663,0.693-1.663,1.635c0,0.941,0.71,1.635,1.663,1.635
			C168.162,482.486,168.866,481.793,168.866,480.851z"/>
		<path style="fill:#000000;" d="M179.596,478.878l-1.331,3.947h-0.44l-1.156-3.366l-1.161,3.366h-0.434l-1.331-3.947h0.429
			l1.139,3.394l1.178-3.394h0.389l1.161,3.411l1.156-3.411H179.596z"/>
		<path style="fill:#000000;" d="M187.731,478.878v3.947h-0.344l-2.537-3.202v3.202h-0.417v-3.947h0.344l2.543,3.203v-3.203H187.731
			z"/>
		<path style="fill:#000000;" d="M193.093,478.878h0.417v3.586h2.21v0.361h-2.627V478.878z"/>
		<path style="fill:#000000;" d="M200.061,480.851c0-1.15,0.879-2.007,2.075-2.007c1.184,0,2.069,0.851,2.069,2.007
			c0,1.156-0.885,2.007-2.069,2.007C200.941,482.858,200.061,482.002,200.061,480.851z M203.788,480.851
			c0-0.942-0.705-1.635-1.652-1.635c-0.953,0-1.663,0.693-1.663,1.635c0,0.941,0.71,1.635,1.663,1.635
			C203.083,482.486,203.788,481.793,203.788,480.851z"/>
		<path style="fill:#000000;" d="M211.636,481.77h-2.199l-0.474,1.054h-0.434l1.804-3.947h0.412l1.804,3.947h-0.44L211.636,481.77z
			 M211.484,481.432l-0.947-2.12l-0.947,2.12H211.484z"/>
		<path style="fill:#000000;" d="M217.28,478.878h1.607c1.263,0,2.114,0.812,2.114,1.974c0,1.161-0.851,1.973-2.114,1.973h-1.607
			V478.878z M218.864,482.464c1.049,0,1.725-0.665,1.725-1.612c0-0.947-0.677-1.613-1.725-1.613h-1.167v3.225H218.864z"/>
		<path style="fill:#000000;" d="M234.041,481.77h-2.199l-0.474,1.054h-0.434l1.804-3.947h0.412l1.804,3.947h-0.44L234.041,481.77z
			 M233.889,481.432l-0.947-2.12l-0.947,2.12H233.889z"/>
		<path style="fill:#000000;" d="M239.685,478.878h0.417v3.586h2.21v0.361h-2.627V478.878z"/>
		<path style="fill:#000000;" d="M247.082,478.878h0.417v3.586h2.21v0.361h-2.627V478.878z"/>
		<path style="fill:#000000;" d="M260.449,479.239v1.551h2.041v0.361h-2.041v1.675h-0.417v-3.947h2.706v0.361H260.449z"/>
		<path style="fill:#000000;" d="M267.678,478.878h0.417v3.947h-0.417V478.878z"/>
		<path style="fill:#000000;" d="M273.456,478.878h0.417v3.586h2.21v0.361h-2.627V478.878z"/>
		<path style="fill:#000000;" d="M283.644,482.464v0.361h-2.791v-3.947h2.706v0.361h-2.289v1.404h2.041v0.355h-2.041v1.466H283.644z
			"/>
		<path style="fill:#000000;" d="M294.672,479.239v1.551h2.041v0.361h-2.041v1.675h-0.417v-3.947h2.706v0.361H294.672z"/>
		<path style="fill:#000000;" d="M301.5,480.851c0-1.15,0.879-2.007,2.075-2.007c1.184,0,2.069,0.851,2.069,2.007
			c0,1.156-0.885,2.007-2.069,2.007C302.379,482.858,301.5,482.002,301.5,480.851z M305.226,480.851
			c0-0.942-0.705-1.635-1.652-1.635c-0.953,0-1.663,0.693-1.663,1.635c0,0.941,0.71,1.635,1.663,1.635
			C304.522,482.486,305.226,481.793,305.226,480.851z"/>
		<path style="fill:#000000;" d="M313.351,482.825l-0.902-1.269c-0.102,0.011-0.203,0.017-0.316,0.017h-1.06v1.252h-0.417v-3.947
			h1.477c1.004,0,1.613,0.507,1.613,1.353c0,0.62-0.327,1.054-0.902,1.24l0.964,1.353H313.351z M313.328,480.231
			c0-0.632-0.417-0.992-1.207-0.992h-1.048v1.979h1.048C312.911,481.218,313.328,480.851,313.328,480.231z"/>
		<path style="fill:#000000;" d="M322.907,478.878v3.947h-0.4v-3.158l-1.551,2.656h-0.197l-1.551-2.639v3.14h-0.4v-3.947h0.344
			l1.714,2.926l1.697-2.926H322.907z"/>
		<path style="fill:#000000;" d="M330.744,481.77h-2.199l-0.473,1.054h-0.434l1.804-3.947h0.411l1.804,3.947h-0.44L330.744,481.77z
			 M330.592,481.432l-0.947-2.12l-0.947,2.12H330.592z"/>
		<path style="fill:#000000;" d="M336.957,479.239h-1.387v-0.361h3.192v0.361h-1.387v3.586h-0.417V479.239z"/>
		<path style="fill:#000000;" d="M343.063,482.346l0.164-0.321c0.282,0.276,0.784,0.479,1.302,0.479c0.739,0,1.06-0.31,1.06-0.699
			c0-1.083-2.43-0.417-2.43-1.877c0-0.581,0.451-1.083,1.455-1.083c0.446,0,0.908,0.13,1.224,0.35l-0.141,0.333
			c-0.338-0.22-0.733-0.327-1.083-0.327c-0.722,0-1.043,0.321-1.043,0.716c0,1.083,2.43,0.429,2.43,1.866
			c0,0.581-0.462,1.077-1.472,1.077C343.937,482.858,343.356,482.65,343.063,482.346z"/>
	</g>
</g>
<g>
</g>
<g>
	<path d="M81.942,172.417c-1.496,0.127-2.423-0.975-2.129-2.375c0.098-0.468,0.338-0.853,0.732-1.137
		c0.203-0.148,0.438-0.276,0.587-0.468c0.32-0.415,0.091-0.916-0.44-1.002c-0.164-0.026-0.338,0.01-0.502-0.013
		c-1.047-0.148-1.797-0.935-1.84-1.92c-0.039-0.891,0.656-1.764,1.605-2.009c0.121-0.032,0.251-0.052,0.375-0.044
		c0.587,0.04,0.848-0.286,0.893-0.815c0.049-0.585-0.45-0.493-0.786-0.593c-0.874-0.259-1.494-0.768-1.633-1.715
		c-0.112-0.771,0.145-1.413,0.78-1.877c0.688-0.501,1.424-0.472,2.139-0.086c0.508,0.275,0.831,0.237,1.098-0.322
		c0.308-0.645,0.312-0.691-0.41-0.926c-1.057-0.344-1.529-0.924-1.538-1.884c-0.006-0.815,0.545-1.629,1.262-1.861
		c0.925-0.302,1.823,0.011,2.429,0.852c0.144,0.199,0.267,0.414,0.439,0.681c0.545-0.309,0.89-0.597,1.09-1.023
		c-0.092-0.38-0.454-0.498-0.662-0.752c-0.779-0.946-0.649-2.151,0.315-2.887c0.927-0.709,2.182-0.473,2.849,0.545
		c0.114,0.173,0.191,0.372,0.267,0.567c0.334,0.845,0.329,0.83,1.142,0.544c0.469-0.165,0.744-0.351,0.467-0.903
		c-0.148-0.294-0.246-0.622-0.218-0.973c0.079-1.008,0.903-1.84,1.883-1.885c0.999-0.045,1.871,0.671,2.035,1.695
		c0.039,0.246,0.034,0.503,0.018,0.755c-0.04,0.612,0.382,0.661,0.82,0.702c0.515,0.045,0.71-0.14,0.771-0.704
		c0.163-1.532,0.753-2.102,1.986-2.102c1.361,0,2.241,1.163,1.872,2.484c-0.034,0.121-0.086,0.238-0.143,0.351
		c-0.209,0.415-0.351,0.789,0.298,0.95c0.56,0.139,0.785-0.054,0.755-0.625c-0.023-0.438,0.169-0.82,0.42-1.165
		c0.577-0.795,1.634-1.057,2.459-0.623c0.868,0.455,1.292,1.419,1.012,2.344c-0.072,0.238-0.194,0.464-0.313,0.686
		c-0.136,0.255-0.168,0.485,0.132,0.628c0.308,0.148,0.575,0.097,0.729-0.242c0.087-0.189,0.135-0.401,0.24-0.58
		c0.616-1.051,1.695-1.411,2.681-0.906c0.975,0.501,1.392,1.634,0.823,2.684c-0.362,0.667-0.212,1.004,0.368,1.295
		c1.436,0.72,1.809,1.929,1.789,3.45c-0.054,3.909-0.018,7.819-0.018,11.728c0,0.211,0.003,0.421-0.008,0.631
		c-0.053,1.059-0.824,1.537-1.79,1.12c-0.262-0.112-0.392-0.318-0.418-0.579c-0.035-0.376-0.049-0.755-0.052-1.132
		c-0.029-3.447-0.098-6.894-0.056-10.34c0.016-1.351-0.424-2.121-1.7-2.723c-3.331-1.568-6.797-2.67-10.374-3.465
		c-2.879-0.64-5.603-0.283-8.064,1.414c-2.556,1.764-3.98,4.263-4.573,7.276c-0.506,2.568-0.103,5.01,0.984,7.364
		c0.405,0.877,0.815,1.753,1.19,2.642c0.402,0.954,0.377,0.974-0.696,1.187c-0.165,0.033-0.328,0.073-0.493,0.105
		c-0.675,0.13-1.148-0.093-1.368-0.775c-0.05-0.159-0.145-0.305-0.194-0.464C83.054,172.54,82.671,172.355,81.942,172.417z"/>
	<path d="M111.677,154.141c-0.038-0.85,0.694-1.595,1.58-1.61c0.961-0.016,1.611,0.593,1.626,1.524
		c0.015,0.927-0.657,1.667-1.52,1.672C112.547,155.733,111.713,154.949,111.677,154.141z"/>
	<path d="M113.301,156.405c0.864-0.019,1.568,0.69,1.586,1.597c0.019,0.969-0.575,1.606-1.518,1.628c-0.91,0.021-1.65-0.632-1.7-1.5
		C111.618,157.221,112.37,156.426,113.301,156.405z"/>
	<path d="M111.595,162.046c0.053-0.888,0.874-1.638,1.765-1.609c1.013,0.033,1.737,0.81,1.678,1.803
		c-0.059,0.992-0.862,1.682-1.872,1.606C112.287,163.782,111.542,162.928,111.595,162.046z"/>
	<path d="M111.574,166.4c0.047-0.973,0.849-1.701,1.836-1.668c0.965,0.032,1.722,0.839,1.708,1.822
		c-0.014,1.017-0.888,1.866-1.869,1.816C112.24,168.317,111.521,167.471,111.574,166.4z"/>
	<path d="M111.407,171.152c-0.03-1.031,0.873-1.953,1.905-1.944c1.062,0.009,1.811,0.755,1.832,1.827
		c0.023,1.118-0.762,1.947-1.845,1.949C112.327,172.986,111.436,172.123,111.407,171.152z"/>
	<path d="M113.392,152.184c-2.348,0.038-4.266-1.837-4.28-4.185c-0.014-2.368,1.841-4.252,4.195-4.26
		c2.332-0.008,4.255,1.9,4.265,4.232C117.582,150.167,115.616,152.148,113.392,152.184z"/>
	<path d="M107.525,140.388c-0.014-1.973-0.008-3.948-0.004-5.923c0-0.251,0.021-0.503,0.052-0.752
		c0.02-0.172,0.101-0.337,0.281-0.379c0.242-0.057,0.39,0.086,0.481,0.297c0.101,0.231,0.196,0.466,0.303,0.693
		c0.529,1.117,1.469,1.698,2.623,1.971c0.734,0.173,0.951-0.023,0.847-0.752c-0.196-1.356-0.934-2.3-2.207-2.836
		c-0.392-0.165-1.112-0.144-1.017-0.703c0.093-0.551,0.771-0.337,1.2-0.35c1.091-0.03,2.184-0.01,3.277-0.01
		c1.05,0,2.1-0.003,3.151,0.001c0.293,0.001,0.588,0.011,0.879,0.042c0.216,0.023,0.414,0.11,0.434,0.368
		c0.016,0.203-0.138,0.288-0.298,0.35c-0.275,0.105-0.551,0.203-0.826,0.305c-1.327,0.488-1.942,1.543-2.209,2.844
		c-0.131,0.636,0.11,0.861,0.767,0.741c1.129-0.206,2.043-0.751,2.611-1.784c0.121-0.22,0.207-0.459,0.322-0.683
		c0.112-0.218,0.197-0.522,0.491-0.503c0.381,0.025,0.419,0.372,0.419,0.664c0.008,2.31,0.005,4.62-0.001,6.929
		c0,0.26-0.068,0.54-0.328,0.63c-0.353,0.122-0.537-0.159-0.675-0.423c-0.502-0.961-1.213-1.705-2.213-2.151
		c-0.154-0.069-0.299-0.162-0.459-0.207c-0.275-0.079-0.578-0.246-0.839-0.033c-0.267,0.218-0.165,0.544-0.095,0.821
		c0.336,1.346,1.079,2.349,2.421,2.846c0.361,0.134,1.001,0.088,0.879,0.659c-0.103,0.488-0.693,0.365-1.095,0.367
		c-2.226,0.011-4.453,0.006-6.678,0.005c-0.168,0-0.337,0.001-0.503-0.018c-0.288-0.034-0.645-0.02-0.669-0.416
		c-0.024-0.38,0.315-0.444,0.597-0.527c1.572-0.466,2.478-1.51,2.705-3.132c0.083-0.601-0.106-0.796-0.691-0.646
		c-1.197,0.307-2.053,1.091-2.756,2.074c-0.223,0.312-0.284,0.939-0.837,0.743C107.389,141.343,107.529,140.789,107.525,140.388z"/>
	<path d="M143.279,175.554c-0.912-0.143-1.831-0.254-2.751-0.341c-0.466-0.043-1.117-0.452-1.351,0.165
		c-0.197,0.519,0.511,0.676,0.859,0.921c1.242,0.873,1.938,2.083,2.238,3.529c0.145,0.698-0.159,0.951-0.839,0.756
		c-1.693-0.488-2.71-1.604-3.048-3.341c-0.067-0.346,0.016-0.895-0.487-0.886c-0.454,0.009-0.438,0.53-0.511,0.888
		c-0.025,0.122-0.021,0.251-0.037,0.376c-0.3,2.417-0.606,4.834-0.9,7.252c-0.053,0.435-0.298,1.017,0.269,1.207
		c0.416,0.141,0.524-0.449,0.765-0.715c0.14-0.155,0.238-0.347,0.372-0.508c0.838-1.003,1.894-1.655,3.175-1.914
		c0.82-0.165,1.061,0.106,0.732,0.862c-0.626,1.443-1.686,2.491-3.098,3.183c-0.541,0.265-1.11,0.386-1.711,0.324
		c-1.295-0.135-2.588-0.279-3.882-0.413c-1.475-0.151-2.46-0.999-3.151-2.238c-0.503-0.905-0.36-1.785,0.235-2.599
		c0.444-0.606,1.122-0.866,1.639-0.628c0.625,0.285,0.784,0.828,0.752,1.464c-0.019,0.382-0.1,0.744-0.251,1.099
		c-0.092,0.216-0.291,0.433-0.121,0.699c0.202,0.144,0.397,0.078,0.593-0.003c1.687-0.693,2.564-2.934,1.831-4.68
		c-0.674-1.605-2.074-2.06-3.604-1.192c-0.381,0.216-0.667,0.608-1.131,0.708c-0.211-0.51,0.032-0.886,0.172-1.269
		c0.346-0.948,0.726-1.883,1.061-2.833c0.727-2.062,0.406-4.055-0.44-6.003c-0.168-0.386-0.387-0.747-0.693-1.046
		c-0.521-0.511-0.871-0.555-1.426-0.086c-0.315,0.266-0.597,0.598-0.818,0.949c-1.172,1.86-1.563,3.881-1.112,6.039
		c0.223,1.067,0.53,2.118,0.775,3.183c0.067,0.291,0.169,0.625-0.085,0.934c-0.476-0.409-0.862-0.797-1.303-1.109
		c-1.196-0.843-2.453-0.622-3.311,0.545c-1.049,1.427-0.839,3.664,0.466,4.837c0.332,0.299,0.691,0.579,1.283,0.439
		c-0.218-0.704-0.291-1.363-0.242-2.034c0.042-0.572,0.334-0.941,0.863-1.119c0.559-0.188,0.97,0.067,1.325,0.481
		c0.709,0.825,0.792,2.021,0.169,2.915c-0.852,1.223-2.078,1.891-3.519,1.934c-1.633,0.049-3.281-0.037-4.904-0.22
		c-1.991-0.223-3.523-1.971-3.572-3.826c-0.014-0.532,0.207-0.69,0.68-0.584c0.204,0.045,0.4,0.13,0.594,0.208
		c1.215,0.491,2.154,1.296,2.768,2.46c0.16,0.304,0.299,0.655,0.727,0.537c0.43-0.117,0.331-0.526,0.367-0.845
		c0.014-0.125,0.008-0.252,0.008-0.379c0-2.228,0.009-4.456-0.009-6.685c-0.003-0.394,0.177-0.983-0.304-1.114
		c-0.642-0.174-0.622,0.534-0.795,0.902c-0.667,1.427-1.807,2.17-3.327,2.38c-0.618,0.085-0.785-0.069-0.714-0.661
		c0.164-1.373,0.749-2.491,2.045-3.123c0.452-0.221,0.926-0.397,1.395-0.579c0.221-0.087,0.357-0.216,0.322-0.463
		c-0.03-0.207-0.209-0.261-0.371-0.278c-0.334-0.034-0.671-0.048-1.007-0.049c-2.397-0.004-4.793-0.003-7.191-0.001
		c-0.294,0.001-0.589,0.005-0.882,0.03c-0.203,0.018-0.445,0.024-0.505,0.284c-0.076,0.333,0.178,0.428,0.419,0.517
		c0.237,0.086,0.476,0.169,0.713,0.252c1.147,0.402,1.914,1.192,2.325,2.324c0.197,0.54,0.578,1.172,0.053,1.638
		c-0.449,0.397-1.037,0.018-1.547-0.14c-1.335-0.413-2.016-1.437-2.481-2.664c-0.092-0.241-0.209-0.483-0.536-0.392
		c-0.254,0.071-0.26,0.315-0.265,0.516c-0.019,0.799-0.028,1.597-0.026,2.396c0.003,1.851,0.009,3.701,0.025,5.55
		c0.003,0.246,0.029,0.52,0.362,0.574c0.252,0.04,0.382-0.127,0.498-0.307c0.158-0.249,0.295-0.511,0.467-0.748
		c0.679-0.944,1.532-1.672,2.656-2.034c0.9-0.29,1.166-0.045,1.002,0.897c-0.339,1.951-1.768,3.272-3.805,3.446
		c-1.337,0.114-2.681,0.158-4.024,0.213c-1.177,0.049-2.242-0.32-3.195-0.989c-1.094-0.767-1.519-1.91-1.195-3.071
		c0.256-0.915,0.999-1.496,1.716-1.341c0.694,0.15,1.047,0.84,0.996,1.809c-0.024,0.453-0.376,0.861-0.16,1.383
		c0.622,0.085,1.036-0.29,1.365-0.71c0.963-1.23,1.139-2.621,0.517-4.034c-0.773-1.754-2.464-2.078-3.92-0.823
		c-0.338,0.291-0.664,0.601-1.067,0.968c-0.115-0.65,0.013-1.133,0.134-1.62c0.255-1.019,0.565-2.029,0.737-3.062
		c0.386-2.33-0.245-4.426-1.731-6.233c-0.794-0.965-1.432-0.887-2.05,0.196c-1.225,2.146-1.576,4.414-0.756,6.791
		c0.315,0.913,0.696,1.804,1.019,2.714c0.134,0.375,0.353,0.756,0.174,1.293c-0.511-0.327-0.943-0.649-1.413-0.896
		c-1.199-0.632-2.291-0.324-3.075,0.79c-0.331,0.468-0.453,0.999-0.525,1.534c-0.193,1.451,0.902,3.322,2.117,3.687
		c0.461,0.138,0.655-0.026,0.536-0.484c-0.115-0.445-0.315-0.874-0.387-1.325c-0.097-0.613,0.271-1.26,0.771-1.46
		c0.59-0.237,1.052-0.005,1.466,0.421c0.719,0.742,0.9,1.695,0.483,2.676c-0.578,1.36-1.655,2.106-3.063,2.339
		c-1.074,0.179-2.217,0.063-3.249,0.36c-2.337,0.674-4.875-1.636-5.55-3.429c-0.29-0.77-0.071-1.056,0.724-0.864
		c1.388,0.337,2.575,1.016,3.394,2.233c0.165,0.243,0.31,0.501,0.479,0.741c0.13,0.185,0.31,0.29,0.54,0.182
		c0.169-0.079,0.227-0.235,0.212-0.418c-0.025-0.293-0.039-0.587-0.074-0.878c-0.289-2.377-0.555-4.757-0.892-7.128
		c-0.064-0.454,0.095-1.266-0.468-1.305c-0.72-0.05-0.541,0.795-0.664,1.269c-0.41,1.587-1.465,2.506-2.969,2.97
		c-0.625,0.193-0.866-0.026-0.81-0.685c0.021-0.249,0.102-0.493,0.174-0.733c0.418-1.398,1.31-2.421,2.525-3.188
		c0.212-0.134,0.485-0.27,0.418-0.563c-0.082-0.365-0.426-0.38-0.717-0.343c-1.249,0.158-2.503,0.298-3.741,0.524
		c-0.845,0.154-1.185,0.662-1.172,1.536c0.004,0.291,0.057,0.584,0.098,0.874c0.464,3.244,0.983,6.48,1.374,9.732
		c0.154,1.274,0.568,2.248,1.756,2.814c0.112,0.053,0.212,0.136,0.314,0.211c1.107,0.795,1.148,1.03,0.376,2.123
		c-0.363,0.515-0.762,1.008-1.079,1.551c-0.53,0.911-0.245,1.44,0.781,1.52c0.334,0.025,0.671,0.016,1.008,0.016h53.736
		c0.337,0,0.675,0.01,1.009-0.019c0.935-0.082,1.206-0.517,0.824-1.332c-0.124-0.264-0.297-0.508-0.463-0.749
		c-0.309-0.45-0.66-0.874-0.94-1.341c-0.421-0.699-0.357-0.996,0.283-1.503c0.394-0.314,0.796-0.623,1.223-0.89
		c0.66-0.41,0.945-0.97,1.05-1.749c0.486-3.622,1.037-7.235,1.557-10.852C144.932,176.329,144.513,175.747,143.279,175.554z
		 M101.722,192.041c-0.203,0.044-0.414,0.073-0.622,0.081c-1.676,0.059-3.356,0.038-4.869,0.259
		c-1.282-0.016-1.754-0.423-1.821-1.435c-0.074-1.157,0.302-1.668,1.45-1.758c1.84-0.143,3.683-0.244,5.526-0.304
		c1.096-0.035,1.515,0.405,1.601,1.486C103.071,191.406,102.767,191.81,101.722,192.041z M115.586,190.724
		c-0.549,0.577-1.114,1.137-1.681,1.696c-0.355,0.351-0.724,0.386-1.095,0.01c-0.589-0.596-1.185-1.186-1.774-1.782
		c-0.261-0.264-0.39-0.589-0.145-0.902c0.597-0.76,1.292-1.427,2.034-2.045c0.091-0.076,0.228-0.096,0.317-0.132
		c0.256-0.008,0.437,0.098,0.588,0.249c0.594,0.59,1.192,1.177,1.769,1.784C115.942,189.962,115.926,190.368,115.586,190.724z
		 M132.232,190.894c-0.058,1.099-0.567,1.504-1.995,1.483c-1.534-0.23-3.211-0.168-4.879-0.266
		c-1.268-0.073-1.652-0.461-1.682-1.544c-0.038-1.324,0.342-1.734,1.708-1.688c1.712,0.057,3.422,0.161,5.131,0.273
		C131.902,189.241,132.297,189.664,132.232,190.894z"/>
	<path d="M148.197,165.575c-0.053,1.009-0.683,1.696-1.713,1.86c-0.165,0.026-0.339-0.003-0.503,0.03
		c-0.602,0.117-0.794,0.661-0.382,1.1c0.14,0.15,0.347,0.236,0.507,0.371c0.725,0.616,0.979,1.467,0.68,2.25
		c-0.298,0.781-1.108,1.417-1.972,1.263c-0.941-0.168-1.269,0.295-1.56,1.006c-0.168,0.41-0.246,0.939-0.826,1.003
		c-0.638,0.071-1.268-0.063-1.851-0.288c-0.35-0.134-0.198-0.498-0.076-0.771c0.495-1.113,1.017-2.216,1.488-3.339
		c1.75-4.176,1.313-8.146-1.319-11.807c-1.879-2.616-4.544-3.944-7.743-4.099c-0.908-0.045-1.843,0.134-2.743,0.323
		c-3.296,0.695-6.509,1.653-9.569,3.096c-2.441,1.152-2.47,1.128-2.491,3.862c-0.023,3.027-0.009,6.054-0.01,9.081
		c0,0.548-0.029,1.088-0.163,1.625c-0.165,0.661-0.664,0.669-1.185,0.659c-0.54-0.01-0.879-0.242-0.895-0.825
		c-0.009-0.336-0.026-0.672-0.026-1.008c-0.001-4.036,0.049-8.073-0.027-12.108c-0.028-1.441,0.478-2.434,1.705-3.094
		c0.578-0.31,0.737-0.596,0.38-1.267c-0.599-1.129-0.154-2.242,0.932-2.742c1.011-0.466,2.01-0.068,2.621,1.049
		c0.1,0.184,0.154,0.396,0.266,0.57c0.216,0.331,0.517,0.222,0.776,0.076c0.226-0.127,0.217-0.352,0.066-0.539
		c-0.342-0.42-0.42-0.905-0.392-1.422c0.056-0.975,0.781-1.745,1.744-1.847c0.908-0.097,1.831,0.577,2.049,1.512
		c0.047,0.202,0.044,0.416,0.062,0.626c0.044,0.543,0.396,0.572,0.813,0.483c0.438-0.093,0.541-0.365,0.357-0.746
		c-0.149-0.31-0.223-0.627-0.235-0.97c-0.039-1.139,0.572-1.924,1.601-2.042c1.236-0.143,2.036,0.458,2.229,1.664
		c0.063,0.391-0.09,0.877,0.442,1.078c0.689,0.26,1.175-0.085,1.213-0.859c0.062-1.274,0.553-1.975,1.509-2.153
		c1.629-0.303,2.751,0.943,2.238,2.629c-0.213,0.704,0.009,0.916,0.558,1.098c0.676,0.225,0.828,0.145,1.064-0.567
		c0.519-1.558,2.127-2.058,3.264-1.012c0.799,0.733,0.8,2-0.074,2.921c-0.377,0.399-0.59,0.661-0.107,1.119
		c0.548,0.52,0.652,0.546,1.132-0.086c0.365-0.479,0.753-0.905,1.38-1.019c0.987-0.18,1.894,0.319,2.228,1.228
		c0.35,0.951-0.039,1.963-0.961,2.468c-0.326,0.178-0.736,0.175-1.018,0.448c-0.061,0.337,0.173,0.56,0.303,0.814
		c0.164,0.317,0.423,0.373,0.738,0.183c0.179-0.109,0.368-0.212,0.568-0.274c1.019-0.317,2.083,0.201,2.473,1.19
		c0.361,0.913-0.049,1.976-0.974,2.459c-0.257,0.134-0.548,0.214-0.83,0.29c-0.341,0.091-0.492,0.29-0.455,0.64
		c0.033,0.319,0.151,0.568,0.502,0.63c0.249,0.044,0.505,0.056,0.744,0.125C147.754,163.814,148.254,164.521,148.197,165.575z"/>
	<path d="M114.343,115.645c-30.225-0.541-54.992,23.907-54.992,53.89c0,30.229,24.719,54.081,53.894,53.964
		c29.205,0.146,53.987-23.483,54.034-53.812C167.325,139.205,142.643,116.151,114.343,115.645z M113.271,217.19
		c-26.21,0.003-47.98-21.532-47.575-48.384c0.389-25.721,21.569-47.017,47.99-46.827c25.342,0.183,47.224,20.478,47.252,47.557
		C160.966,196.572,139.084,217.194,113.271,217.19z"/>
	<path style="fill:#000000;" d="M31.31,249.388c0,43.612,0,87.225-0.001,130.837c0,0.589-0.008,1.177-0.017,1.766
		c-0.009,0.59-0.256,0.968-0.899,0.968c-1.514,0-3.027,0-4.541-0.008c-0.577-0.003-0.822-0.34-0.829-0.888
		c-0.008-0.673-0.023-1.345-0.023-2.018C25,306.657,25,233.269,25,159.881c0-13.921,0-27.841,0.001-41.762
		c0-0.505,0.019-1.009,0.02-1.514c0.002-0.634,0.339-0.91,0.947-0.91c1.472,0.001,2.943,0,4.415,0.003
		c0.637,0.001,0.899,0.364,0.908,0.96c0.009,0.589,0.018,1.177,0.018,1.766C31.31,162.079,31.31,205.733,31.31,249.388z"/>
	<path d="M162.246,259.542c-0.551,1.444-1.108,2.885-1.651,4.332c-4.814,12.822-9.625,25.645-14.437,38.468
		c-0.089,0.236-0.189,0.468-0.268,0.707c-0.152,0.459-0.471,0.674-0.947,0.674c-1.555,0.001-3.111-0.007-4.666,0.01
		c-0.762,0.008-0.966-0.523-1.18-1.094c-0.985-2.637-1.984-5.269-2.973-7.905c-4.249-11.329-8.494-22.659-12.747-33.986
		c-0.16-0.425-0.279-0.878-0.594-1.23c-0.39,0.056-0.284,0.365-0.295,0.581c-0.024,0.461-0.012,0.925-0.012,1.387
		c0,13.37,0.001,26.741-0.002,40.112c-0.001,2.23,0.102,2.142-2.132,2.148c-1.177,0.003-2.355,0.019-3.532-0.015
		c-0.955-0.027-1.07-0.165-1.131-1.117c-0.021-0.335-0.012-0.672-0.012-1.009c0-16.566-0.001-33.132,0-49.698
		c0-2.158,0.003-2.16,2.153-2.161c2.018-0.002,4.036-0.004,6.055,0.001c1.637,0.004,1.649,0.005,2.245,1.586
		c1.851,4.915,3.693,9.833,5.537,14.751c3.436,9.166,6.868,18.333,10.314,27.495c0.123,0.328,0.136,0.762,0.584,0.911
		c0.421-0.233,0.452-0.689,0.595-1.067c5.308-14.073,10.609-28.148,15.909-42.223c0.54-1.435,0.533-1.446,2.085-1.45
		c2.312-0.006,4.625-0.014,6.937,0.007c1.184,0.011,1.284,0.136,1.325,1.31c0.01,0.294,0.006,0.589,0.006,0.883
		c0,16.524,0.002,33.048-0.002,49.572c0,2.34,0.121,2.216-2.181,2.224c-1.177,0.005-2.355,0.019-3.531-0.017
		c-0.882-0.027-1.017-0.177-1.077-1.037c-0.032-0.46-0.017-0.925-0.017-1.387c-0.001-13.37,0-26.741-0.004-40.111
		c0-0.537,0.055-1.083-0.085-1.61C162.426,259.569,162.336,259.555,162.246,259.542z"/>
	<path d="M243.867,302.793c-0.921-1.542-1.432-3.224-1.74-4.969c-0.313-1.78-0.444-3.585-0.538-5.388
		c-0.14-2.688-0.28-5.371-1.003-7.984c-0.893-3.234-2.826-5.482-6.123-6.436c-0.236-0.069-0.51-0.051-0.763-0.343
		c0.079-0.103,0.115-0.194,0.18-0.225c0.227-0.106,0.464-0.189,0.696-0.283c2.97-1.191,5.235-3.148,6.59-6.088
		c1.493-3.24,1.783-6.642,1.175-10.108c-0.794-4.528-3.432-7.652-7.591-9.541c-2.653-1.204-5.472-1.65-8.344-1.668
		c-7.779-0.045-15.556-0.014-23.335-0.016c-2.347-0.001-2.183-0.02-2.184,2.232c-0.003,16.524-0.001,33.047-0.001,49.57
		c0,0.379-0.01,0.758,0.016,1.136c0.061,0.892,0.158,1.014,1.057,1.043c1.176,0.039,2.354,0.026,3.532,0.019
		c2.754-0.018,2.521,0.233,2.526-2.508c0.01-6.348-0.001-12.697,0.01-19.046c0.001-1.359,0.105-1.441,1.416-1.476
		c0.169-0.004,0.337-0.003,0.505-0.003c5.172,0,10.344-0.003,15.514,0.004c0.588,0,1.18,0.008,1.763,0.076
		c2.754,0.326,4.803,1.655,5.955,4.242c0.498,1.12,0.797,2.295,1.055,3.49c0.728,3.386,0.805,6.834,0.968,10.271
		c0.062,1.308,0.183,2.6,0.638,3.837c0.232,0.632,0.616,1.099,1.37,1.099c2.06-0.001,4.121,0.024,6.18-0.006
		C244.184,303.711,244.291,303.502,243.867,302.793z M229.16,273.89c-1.787,0.529-3.631,0.728-5.478,0.746
		c-4.667,0.047-9.336,0.016-14.004,0.015c-0.252,0-0.505-0.008-0.756-0.02c-0.551-0.029-0.847-0.322-0.876-0.873
		c-0.015-0.294-0.021-0.588-0.021-0.882c-0.001-5.089-0.004-10.177,0.001-15.266c0.001-1.78,0.029-1.803,1.875-1.807
		c2.648-0.004,5.298-0.001,7.948,0c2.65,0,5.299-0.016,7.948,0.008c1.433,0.013,2.841,0.213,4.212,0.676
		c2.549,0.863,4.173,2.627,4.956,5.148c0.715,2.305,0.684,4.647-0.029,6.957C234.046,271.472,231.945,273.066,229.16,273.89z"/>
	<path d="M104.613,381.584c-2.777-3.211-5.538-6.436-8.346-9.618c-0.664-0.752-0.849-1.36-0.347-2.325
		c1.773-3.399,2.618-7.076,2.968-10.876c0.087-0.95-0.132-1.226-1.094-1.253c-1.219-0.033-2.44-0.026-3.659-0.005
		c-1.119,0.019-1.31,0.177-1.404,1.316c-0.1,1.219-0.326,2.414-0.575,3.606c-0.189,0.906-0.429,1.798-0.756,2.666
		c-0.196,0.52-0.462,0.54-0.821,0.167c-0.117-0.121-0.236-0.24-0.343-0.37c-2.696-3.279-5.396-6.555-8.08-9.844
		c-0.709-0.869-0.688-0.926,0.245-1.518c1.888-1.199,3.66-2.54,5.188-4.184c2.502-2.69,3.959-5.781,3.865-9.55
		c-0.087-3.457-1.479-6.214-4.314-8.119c-4.396-2.951-9.198-3.336-14.095-1.551c-4.588,1.673-7.287,6.282-6.714,11.497
		c0.322,2.913,1.578,5.37,3.258,7.676c0.691,0.951,1.395,1.895,2.072,2.858c0.439,0.625,0.395,0.781-0.247,1.192
		c-0.212,0.135-0.448,0.232-0.669,0.352c-1.928,1.045-3.755,2.236-5.436,3.649c-4.571,3.842-6.473,8.706-5.417,14.598
		c0.922,5.144,3.79,8.809,8.734,10.707c2.542,0.975,5.197,1.321,7.916,1.269c5.852-0.114,10.838-2.072,14.584-6.739
		c0.589-0.733,0.676-0.732,1.322,0.011c1.379,1.586,2.764,3.167,4.096,4.792c0.583,0.712,1.223,1.041,2.159,1.009
		c1.848-0.059,3.699-0.013,5.55-0.02c0.37-0.003,0.758,0.071,1.181-0.201C105.254,382.248,104.912,381.93,104.613,381.584z
		 M76.479,335.215c0.802-0.269,1.618-0.45,2.469-0.424c4.191,0.023,7.471,3.591,5.545,8.531c-0.497,1.276-1.335,2.335-2.301,3.281
		c-1.054,1.028-2.223,1.92-3.455,2.733c-0.544,0.36-0.939,0.414-1.385-0.16c-1.211-1.558-2.523-3.042-3.484-4.781
		c-0.678-1.226-1.165-2.515-1.166-3.944C72.7,337.975,74.127,336.001,76.479,335.215z M87.332,372.948
		c-2.709,3.35-6.121,5.303-10.537,5.263c-3.771-0.024-6.966-1.34-9.015-4.583c-2.204-3.489-1.703-7.072,0.344-10.476
		c1.29-2.142,3.322-3.527,5.386-4.843c0.495-0.315,1.019-0.585,1.517-0.897c0.519-0.323,0.9-0.242,1.297,0.244
		c1.409,1.722,2.855,3.413,4.281,5.121c2.231,2.677,4.46,5.355,6.681,8.041C88.161,371.874,88.166,371.917,87.332,372.948z"/>
	<path d="M105.777,276.817c0,8.325,0.001,16.65-0.001,24.975c-0.001,1.944-0.006,1.948-1.948,1.952
		c-1.387,0.003-2.775,0.018-4.162-0.014c-0.955-0.022-1.081-0.168-1.142-1.11c-0.027-0.419-0.014-0.841-0.014-1.261
		c-0.001-6.811,0.001-13.623-0.002-20.434c-0.001-1.898-0.008-1.906-1.877-1.907c-8.199-0.003-16.398-0.003-24.597,0
		c-1.857,0.001-1.863,0.009-1.864,1.92c-0.003,6.938,0,13.875-0.003,20.813c-0.001,1.989-0.006,1.992-2.045,1.994
		c-1.345,0.002-2.691,0.018-4.036-0.015c-0.955-0.023-1.079-0.169-1.143-1.11c-0.025-0.377-0.014-0.756-0.014-1.135
		c-0.001-16.524-0.001-33.048,0-49.572c0-2.165,0.003-2.165,2.147-2.168c1.093-0.001,2.186-0.004,3.28,0.001
		c1.782,0.008,1.807,0.032,1.811,1.871c0.005,2.691,0.002,5.382,0.002,8.073c0,3.7,0,7.4,0.001,11.1
		c0,0.378-0.011,0.758,0.017,1.135c0.062,0.84,0.161,0.942,0.96,1.016c0.292,0.027,0.588,0.019,0.882,0.019
		c8.199,0.001,16.398,0.003,24.597-0.001c1.874-0.001,1.882-0.009,1.883-1.89c0.004-6.307,0.002-12.614,0.002-18.921
		c0-0.42-0.013-0.842,0.012-1.261c0.053-0.9,0.235-1.111,1.144-1.126c1.681-0.029,3.364-0.03,5.045,0.005
		c0.851,0.018,1.001,0.209,1.055,1.068c0.026,0.419,0.013,0.841,0.013,1.261C105.777,260.335,105.777,268.576,105.777,276.817z"/>
	<path d="M326.485,349.251c0.507-0.138,0.657-0.572,0.913-0.879c2.865-3.447,6.568-5.125,11.012-5.258
		c1.52-0.046,3.026,0.048,4.5,0.443c2.768,0.741,4.938,2.268,6.309,4.836c0.138,0.258,0.292,0.507,0.444,0.758
		c0.019,0.031,0.067,0.044,0.172,0.107c0.468-0.164,0.703-0.646,1.015-1.008c2.953-3.42,6.682-5.112,11.193-5.141
		c2.162-0.014,4.275,0.234,6.32,0.964c3.615,1.289,5.709,3.863,6.402,7.602c0.184,0.991,0.245,1.997,0.243,3.011
		c-0.013,8.706-0.009,17.412-0.006,26.118c0.001,2.36-0.005,2.169-2.241,2.179c-1.051,0.005-2.104,0.019-3.154-0.017
		c-0.878-0.03-1.01-0.18-1.072-1.044c-0.03-0.419-0.016-0.841-0.016-1.261c-0.001-7.865-0.006-15.729,0.005-23.594
		c0.002-1.1-0.079-2.187-0.323-3.255c-0.59-2.575-2.102-4.313-4.754-4.778c-2.253-0.395-4.532-0.389-6.709,0.479
		c-3.7,1.476-5.865,4.669-5.879,8.742c-0.025,7.36-0.008,14.72-0.009,22.08c0,0.463,0.01,0.926-0.008,1.388
		c-0.043,1.11-0.141,1.228-1.247,1.25c-1.303,0.026-2.608,0.027-3.911-0.001c-1.093-0.024-1.2-0.152-1.248-1.268
		c-0.023-0.546-0.012-1.093-0.012-1.64c-0.001-7.066,0.014-14.131-0.012-21.197c-0.006-1.635-0.015-3.28-0.379-4.892
		c-0.765-3.387-2.859-5.054-6.355-5.134c-1.703-0.039-3.375,0.067-4.919,0.842c-3.929,1.972-6.022,5.233-6.099,9.571
		c-0.125,7.063-0.028,14.131-0.038,21.196c-0.004,2.755,0.242,2.516-2.501,2.535c-0.883,0.006-1.767,0.017-2.649-0.011
		c-1.061-0.033-1.157-0.138-1.213-1.155c-0.016-0.294-0.01-0.589-0.01-0.883c0-11.608-0.001-23.216,0-34.823
		c0-2.053,0.005-2.054,2.097-2.058c0.883-0.002,1.767-0.014,2.649,0.008c1.16,0.03,1.267,0.142,1.295,1.342
		c0.021,0.925,0,1.85,0.013,2.776C326.309,348.537,326.238,348.922,326.485,349.251z"/>
	<path d="M127.442,355.041c-0.017-3.228,0.707-7.593,2.355-11.796c3.752-9.565,12.193-15.298,22.477-15.363
		c3.658-0.023,7.218,0.369,10.621,1.754c6.373,2.593,10.392,7.229,11.985,13.937c0.402,1.694,0.312,1.799-1.424,1.808
		c-1.388,0.007-2.776,0.012-4.163-0.004c-1.21-0.014-1.247-0.028-1.57-1.185c-0.611-2.185-1.638-4.126-3.2-5.786
		c-1.937-2.057-4.318-3.32-7.042-3.952c-3.684-0.854-7.353-0.775-10.936,0.472c-4.601,1.601-7.68,4.852-9.637,9.23
		c-1.318,2.948-1.956,6.056-2.17,9.276c-0.327,4.933,0.15,9.753,2.098,14.324c2.781,6.525,7.704,10.092,14.868,10.445
		c2.592,0.128,5.118-0.099,7.54-1.094c3.521-1.447,5.966-4.001,7.563-7.403c0.845-1.801,1.337-3.71,1.588-5.684
		c0.147-1.155,0.27-1.274,1.425-1.288c1.598-0.021,3.196-0.024,4.794,0.009c0.911,0.019,1.11,0.207,0.994,1.037
		c-0.981,6.987-3.691,12.994-9.814,17.012c-2.941,1.929-6.224,2.94-9.688,3.341c-3.871,0.449-7.721,0.275-11.486-0.81
		c-7.271-2.093-12.08-6.868-14.849-13.803C128.082,365.286,127.449,360.854,127.442,355.041z"/>
	<path d="M327.62,286.097c0.376-0.028,0.756-0.015,1.134-0.015c4.12-0.001,8.238,0,12.357,0c2.522,0,5.044,0,7.567-0.001
		c1.933,0,3.867,0.013,5.8-0.009c1.147-0.013,1.38-0.283,1.32-1.445c-0.025-0.502-0.132-1.002-0.144-1.503
		c-0.05-2.202-0.459-4.347-1.098-6.44c-1.098-3.6-2.814-6.858-5.765-9.293c-4.636-3.826-10.022-4.434-15.595-2.981
		c-6.47,1.687-10.467,6.176-12.426,12.441c-1.869,5.971-1.349,11.903,1.08,17.615c2.12,4.98,5.858,8.214,11.176,9.512
		c2.467,0.602,4.962,0.756,7.492,0.522c5.668-0.521,10.047-3.065,12.846-8.11c0.633-1.142,1.071-2.372,1.402-3.636
		c0.326-1.245,0.197-1.418-1.051-1.437c-1.177-0.019-2.354-0.013-3.532-0.003c-1.315,0.011-1.332,0.013-1.774,1.267
		c-0.852,2.416-2.378,4.212-4.715,5.314c-2.084,0.984-4.29,1.171-6.529,0.961c-3.909-0.363-7.086-2.007-9.069-5.536
		c-1.071-1.905-1.599-3.967-1.528-6.161C326.596,286.29,326.749,286.159,327.62,286.097z M326.639,279.324
		c0.192-1.514,0.659-2.954,1.408-4.285c2.406-4.272,6.43-6.025,10.876-5.545c4.747,0.512,8.365,3.731,9.561,8.301
		c0.149,0.566,0.304,1.136,0.313,1.732c0.01,0.559-0.227,0.879-0.802,0.902c-0.377,0.015-0.756,0.027-1.134,0.027
		c-3.069,0.001-6.137,0.001-9.207,0.001c-3.027,0-6.054,0-9.081-0.001c-0.336,0-0.674,0.011-1.008-0.015
		C326.71,280.37,326.53,280.186,326.639,279.324z"/>
	<path d="M255.856,286.085c0.337-0.008,0.672-0.003,1.009-0.003h12.11v-0.005c4.415,0,8.831,0.009,13.246-0.005
		c1.128-0.004,1.446-0.29,1.387-1.283c-0.158-2.685-0.371-5.365-1.173-7.957c-1.128-3.636-2.805-6.96-5.795-9.425
		c-4.718-3.891-10.186-4.483-15.837-2.927c-6.606,1.818-10.558,6.509-12.388,12.959c-1.64,5.785-1.08,11.512,1.257,17.021
		c1.785,4.207,4.792,7.269,9.137,8.885c2.958,1.1,6.015,1.408,9.161,1.175c4.28-0.318,8.007-1.771,10.973-4.957
		c1.88-2.019,3.042-4.417,3.706-7.067c0.247-0.989,0.088-1.156-0.992-1.176c-1.219-0.024-2.439-0.015-3.659-0.005
		c-1.298,0.011-1.308,0.016-1.766,1.281c-1.242,3.429-3.687,5.428-7.244,6.095c-2.009,0.376-4.016,0.305-6.006-0.154
		c-5.51-1.273-8.45-5.856-8.592-10.901C254.351,286.213,254.479,286.115,255.856,286.085z M254.476,279.199
		c0.314-1.928,0.973-3.732,2.118-5.342c2.746-3.86,7.493-5.155,11.757-4.068c4.296,1.096,7.55,4.719,8.216,9.108
		c0.198,1.305,0.003,1.525-1.369,1.557c-0.083,0.001-0.168,0.001-0.252,0.001c-3.153,0-6.307,0-9.46,0.001h-8.956
		c-0.337-0.001-0.674,0.009-1.009-0.011C254.519,280.388,254.314,280.192,254.476,279.199z"/>
	<path d="M446.607,286.106c0.377-0.016,0.756-0.023,1.134-0.024c4.204-0.001,8.409,0,12.614,0c0-0.001,0-0.003,0-0.003
		c4.372,0,8.745,0.006,13.117-0.004c1.441-0.004,1.518-0.082,1.528-1.481c0.025-3.749-0.667-7.358-2.211-10.782
		c-1.52-3.374-3.706-6.189-7.004-8.021c-2.719-1.51-5.64-2.058-8.734-2.001c-6.72,0.124-11.747,3.143-15.137,8.854
		c-2.338,3.937-3.167,8.256-2.84,12.831c0.221,3.091,0.811,6.073,2.043,8.92c2.039,4.714,5.477,7.891,10.417,9.365
		c2.43,0.725,4.919,0.95,7.464,0.784c2.117-0.139,4.169-0.483,6.132-1.296c4.889-2.023,7.698-5.794,9.016-10.794
		c0.242-0.916,0.067-1.114-0.917-1.133c-1.345-0.025-2.693,0.026-4.036-0.018c-0.81-0.028-1.264,0.298-1.441,1.071
		c-0.045,0.203-0.129,0.399-0.203,0.596c-1.002,2.641-2.823,4.46-5.52,5.309c-3.472,1.093-6.908,0.869-10.191-0.686
		c-3.663-1.737-6.434-6.68-6.085-10.605C445.8,286.438,446.048,286.13,446.607,286.106z M445.953,279.305
		c0.628-4.286,3.312-8.457,8.397-9.603c6.518-1.47,12.674,2.719,13.695,9.322c0.189,1.221,0.05,1.417-1.197,1.423
		c-3.318,0.018-6.637,0.006-9.955,0.006v0.004h-9.201c-0.251,0-0.505,0.006-0.756-0.006
		C445.964,280.4,445.81,280.273,445.953,279.305z"/>
	<path d="M313.018,355.03c-1.804-5.282-5.337-8.999-10.643-10.861c-3.39-1.19-6.909-1.389-10.453-0.823
		c-6.391,1.021-10.968,4.45-13.535,10.421c-1.586,3.692-2.118,7.562-1.831,11.579c0.198,2.756,0.722,5.415,1.817,7.944
		c1.585,3.662,4.046,6.553,7.61,8.449c2.965,1.577,6.143,2.208,9.474,2.185c1.011,0.009,2.012-0.032,3.017-0.173
		c6.878-0.968,11.747-4.586,14.282-11.07C315.029,366.865,315.03,360.921,313.018,355.03z M306.218,370.885
		c-3.173,7.963-12.297,9.159-17.679,5.108c-2.339-1.761-3.75-4.175-4.518-6.953c-1.016-3.677-1.038-7.394,0.01-11.062
		c1.076-3.76,3.196-6.728,6.908-8.335c1.45-0.628,2.974-0.874,4.349-0.808c5.313-0.149,9.278,3.085,10.93,7.309
		C308.136,361.043,308.166,365.994,306.218,370.885z"/>
	<path d="M236.474,383.942c-4.029-0.009-7.408-0.488-10.541-2.155c-4.031-2.145-6.021-5.581-6.415-10.038
		c-0.066-0.752,0.05-0.906,0.817-0.924c1.513-0.037,3.027-0.003,4.54-0.016c0.67-0.006,0.976,0.315,1.081,0.963
		c0.087,0.535,0.237,1.069,0.43,1.576c0.663,1.742,1.913,2.951,3.587,3.706c1.585,0.715,3.257,1.128,5.007,1.127
		c1.763-0.001,3.531,0.118,5.277-0.272c1.197-0.268,2.34-0.643,3.39-1.306c2.456-1.553,3.076-5.705,0.358-7.801
		c-1.223-0.944-2.608-1.523-4.065-1.95c-2.542-0.744-5.151-1.216-7.727-1.818c-2.337-0.546-4.614-1.252-6.776-2.33
		c-6.893-3.438-6.553-12.804-1.106-16.581c2.602-1.804,5.499-2.724,8.597-2.959c3.543-0.27,7.068-0.03,10.44,1.218
		c4.559,1.688,6.93,5.179,7.414,10.038c0.067,0.669-0.15,0.939-0.855,0.956c-1.554,0.038-3.111,0.01-4.666,0.006
		c-0.551-0.001-0.827-0.304-0.941-0.827c-0.718-3.312-2.971-4.963-6.14-5.491c-2.504-0.417-5.022-0.432-7.483,0.349
		c-0.763,0.242-1.457,0.612-2.113,1.096c-1.804,1.331-2.138,4.704,0.043,6.39c0.91,0.703,1.927,1.187,3.004,1.566
		c2.307,0.812,4.71,1.239,7.082,1.791c2.619,0.61,5.257,1.164,7.716,2.298c2.78,1.282,4.999,3.133,5.799,6.24
		c1.146,4.45-0.195,9.666-5.023,12.501c-2.285,1.342-4.773,2.048-7.379,2.406C238.532,383.88,237.235,383.962,236.474,383.942z"/>
	<path d="M397.062,383.941c-3.394-0.024-6.702-0.452-9.779-2.021c-4.01-2.045-6.085-5.4-6.633-9.783
		c-0.137-1.099,0.032-1.3,1.091-1.322c1.387-0.029,2.775,0.011,4.162-0.013c0.715-0.012,1.089,0.297,1.198,0.996
		c0.524,3.349,2.708,5.148,5.806,5.88c3.658,0.863,7.339,0.935,10.889-0.557c2.119-0.891,3.132-2.606,3.071-4.888
		c-0.036-1.346-0.579-2.438-1.597-3.294c-1.213-1.02-2.645-1.627-4.145-2.07c-2.541-0.75-5.15-1.217-7.727-1.819
		c-2.337-0.546-4.606-1.265-6.777-2.327c-6.862-3.358-6.704-12.581-1.324-16.478c2.608-1.889,5.543-2.816,8.682-3.07
		c3.542-0.286,7.065-0.056,10.444,1.185c4.535,1.665,6.886,5.027,7.427,9.743c0.122,1.066-0.066,1.268-1.151,1.291
		c-1.345,0.028-2.691-0.012-4.036,0.012c-0.692,0.013-1.107-0.246-1.263-0.942c-0.802-3.57-3.378-5.075-6.702-5.514
		c-1.952-0.258-3.944-0.251-5.898,0.186c-1.078,0.241-2.09,0.636-2.976,1.309c-2.139,1.624-2.192,4.761-0.099,6.435
		c0.929,0.743,2,1.226,3.12,1.614c2.949,1.02,6.033,1.491,9.046,2.249c2.204,0.554,4.405,1.117,6.426,2.188
		c4.588,2.433,5.915,6.123,5.211,10.846c-0.624,4.184-3.257,6.801-6.99,8.427C403.525,383.515,400.332,383.963,397.062,383.941z"/>
	<path d="M426.762,298.088c-0.515,0.646-1.009,1.312-1.55,1.936c-2.512,2.896-5.739,4.27-9.526,4.489
		c-2.195,0.127-4.362,0.035-6.491-0.545c-3.475-0.947-5.927-3.033-7.213-6.446c-0.828-2.197-1.131-4.49-1.144-6.801
		c-0.046-8.115-0.018-16.231-0.018-24.347c0-0.21-0.006-0.421,0.01-0.63c0.064-0.852,0.229-1.069,1.051-1.089
		c1.471-0.036,2.944-0.035,4.414,0.003c0.748,0.02,0.93,0.247,0.989,1.016c0.032,0.418,0.017,0.841,0.017,1.261
		c0.001,7.863,0.003,15.726-0.002,23.59c-0.001,0.97,0.033,1.934,0.28,2.878c0.724,2.771,2.46,4.574,5.252,5.212
		c2.79,0.637,5.543,0.351,8.108-0.932c3.26-1.63,4.932-4.442,5.559-7.948c0.171-0.953,0.246-1.912,0.245-2.884
		c-0.012-6.77-0.008-13.54-0.005-20.31c0.001-1.897,0.008-1.9,1.878-1.906c1.177-0.004,2.355-0.02,3.532,0.014
		c0.902,0.026,1.077,0.231,1.134,1.138c0.018,0.293,0.01,0.589,0.01,0.883c0,11.648,0.001,23.295,0,34.943
		c0,2.055-0.004,2.056-2.002,2.06c-1.009,0.002-2.019,0.019-3.027-0.012c-0.983-0.03-1.168-0.212-1.187-1.212
		c-0.028-1.422-0.007-2.845-0.007-4.267C426.967,298.151,426.864,298.12,426.762,298.088z"/>
	<path d="M367.217,270.276c0.42-0.021,0.511-0.4,0.69-0.654c2.819-3.988,6.712-5.825,11.545-5.822
		c1.726,0.001,3.433,0.05,5.133,0.451c4.379,1.032,6.964,3.809,8.115,8.072c0.544,2.015,0.578,4.072,0.581,6.132
		c0.01,7.822,0.004,15.644,0.004,23.466c0,0.252,0.005,0.506-0.021,0.756c-0.081,0.781-0.212,0.952-1.02,0.972
		c-1.471,0.037-2.943,0.009-4.415,0.007c-0.608-0.001-0.942-0.287-0.944-0.917c-0.001-0.462-0.016-0.925-0.016-1.387
		c-0.002-8.116,0-16.233-0.003-24.349c-0.001-2.204-0.707-4.113-2.347-5.646c-0.854-0.798-1.844-1.362-2.964-1.597
		c-3.86-0.81-7.447-0.255-10.52,2.394c-1.863,1.606-2.783,3.756-3.279,6.109c-0.252,1.196-0.33,2.41-0.328,3.635
		c0.011,6.308,0.005,12.616,0.005,18.924c0,0.378,0.002,0.757-0.001,1.135c-0.014,1.636-0.079,1.705-1.715,1.714
		c-1.177,0.007-2.355,0.019-3.532-0.009c-1.002-0.024-1.17-0.207-1.225-1.18c-0.017-0.294-0.008-0.589-0.008-0.883
		c0-11.649-0.001-23.297,0.001-34.946c0-2.015,0.005-2.015,2.043-2.02c0.673-0.002,1.346-0.002,2.019,0
		c1.983,0.006,1.983,0.007,1.988,2.05c0.002,0.883-0.011,1.767,0.009,2.649C367.015,269.651,366.905,270.012,367.217,270.276z"/>
	<path d="M207.6,377.36c-0.44,0.042-0.516,0.423-0.697,0.68c-2.748,3.9-6.568,5.738-11.273,5.89
		c-2.155,0.07-4.273-0.117-6.349-0.753c-3.752-1.149-5.985-3.73-7.062-7.408c-0.571-1.95-0.756-3.957-0.758-5.981
		c-0.006-7.986-0.003-15.973-0.003-23.959c0-0.21-0.003-0.421,0.01-0.63c0.059-0.973,0.154-1.106,1.105-1.129
		c1.386-0.033,2.774-0.034,4.161,0.001c0.944,0.024,1.038,0.154,1.089,1.143c0.022,0.419,0.011,0.84,0.012,1.261
		c0.001,7.608,0.006,15.216-0.005,22.824c-0.002,1.141,0.069,2.282,0.34,3.377c0.724,2.922,2.571,4.837,5.55,5.352
		c2.505,0.433,5.026,0.296,7.414-0.782c2.913-1.315,4.702-3.584,5.608-6.593c0.537-1.784,0.694-3.629,0.7-5.48
		c0.019-6.389,0.006-12.778,0.009-19.167c0.001-1.945,0.007-1.948,1.947-1.953c1.135-0.002,2.271-0.019,3.404,0.021
		c0.829,0.03,0.935,0.162,1.005,0.965c0.029,0.334,0.019,0.672,0.019,1.008c0.001,11.643,0.002,23.286,0,34.93
		c0,1.999-0.006,2.001-2.021,2.005c-0.967,0.002-1.934,0.019-2.9-0.015c-0.944-0.033-1.081-0.169-1.113-1.13
		c-0.035-1.092-0.002-2.186-0.023-3.278C207.759,378.159,207.884,377.727,207.6,377.36z"/>
	<path d="M301.75,296.768c0.453-0.266,0.464-0.772,0.599-1.185c2.115-6.422,4.213-12.849,6.317-19.274
		c1.111-3.393,2.218-6.786,3.336-10.176c0.491-1.488,0.502-1.489,2.02-1.498c1.261-0.007,2.522-0.012,3.783,0.002
		c1.306,0.014,1.386,0.13,0.926,1.395c-1.249,3.433-2.511,6.862-3.766,10.293c-3.116,8.519-6.23,17.038-9.346,25.557
		c-0.13,0.355-0.269,0.706-0.402,1.059c-0.185,0.491-0.54,0.72-1.065,0.719c-1.765-0.004-3.53-0.013-5.295,0.004
		c-0.822,0.008-1.033-0.573-1.257-1.18c-1.065-2.875-2.137-5.747-3.204-8.621c-3.376-9.094-6.75-18.189-10.128-27.283
		c-0.716-1.926-0.709-1.943,1.326-1.947c1.261-0.002,2.522-0.008,3.783,0.004c1.331,0.013,1.371,0.036,1.795,1.288
		c1.468,4.336,2.93,8.674,4.387,13.013c1.871,5.574,3.732,11.152,5.613,16.723C301.301,296.04,301.306,296.509,301.75,296.768z"/>
	<path d="M260.515,363.424c-0.001-3.911,0-7.822-0.001-11.733c0-0.294,0.007-0.589-0.011-0.883
		c-0.059-0.955-0.165-1.092-1.129-1.118c-1.387-0.037-2.776-0.002-4.163-0.027c-1.206-0.022-1.294-0.113-1.322-1.302
		c-0.023-0.967-0.02-1.935-0.003-2.902c0.023-1.31,0.103-1.386,1.479-1.404c1.219-0.016,2.439,0.005,3.659-0.011
		c1.394-0.018,1.478-0.099,1.485-1.536c0.013-2.776,0.004-5.551,0.007-8.327c0-0.336,0.006-0.673,0.021-1.009
		c0.024-0.547,0.308-0.877,0.861-0.883c1.556-0.016,3.112-0.038,4.667,0.003c0.703,0.019,0.894,0.27,0.915,1.083
		c0.033,1.303,0.015,2.607,0.017,3.911c0.003,1.808-0.012,3.617,0.01,5.425c0.014,1.187,0.135,1.31,1.305,1.328
		c1.64,0.025,3.28-0.002,4.92,0.018c1.286,0.016,1.376,0.106,1.4,1.352c0.02,1.009,0.024,2.019-0.003,3.028
		c-0.03,1.095-0.138,1.204-1.271,1.223c-1.556,0.026-3.112,0.008-4.668,0.015c-0.336,0.002-0.673,0.015-1.006,0.05
		c-0.382,0.041-0.612,0.269-0.643,0.655c-0.03,0.377-0.042,0.756-0.042,1.134c-0.002,7.444,0.018,14.887-0.013,22.331
		c-0.01,2.44,0.441,3.328,3.447,3.5c1.006,0.057,2.019-0.004,3.027,0.029c1.033,0.033,1.142,0.14,1.167,1.195
		c0.027,1.135,0.001,2.271,0,3.406c0,0.583-0.206,0.99-0.866,0.981c-2.728-0.04-5.465,0.247-8.18-0.232
		c-2.543-0.449-4.162-1.869-4.695-4.446c-0.214-1.031-0.375-2.063-0.373-3.121C260.52,371.246,260.516,367.335,260.515,363.424z"/>
	<path d="M81.942,172.417c-1.496,0.127-2.423-0.975-2.129-2.375c0.098-0.468,0.338-0.853,0.732-1.137
		c0.203-0.148,0.438-0.276,0.587-0.468c0.32-0.415,0.091-0.916-0.44-1.002c-0.164-0.026-0.338,0.01-0.502-0.013
		c-1.047-0.148-1.797-0.935-1.84-1.92c-0.039-0.891,0.656-1.764,1.605-2.009c0.121-0.032,0.251-0.052,0.375-0.044
		c0.587,0.04,0.848-0.286,0.893-0.815c0.049-0.585-0.45-0.493-0.786-0.593c-0.874-0.259-1.494-0.768-1.633-1.715
		c-0.112-0.771,0.145-1.413,0.78-1.877c0.688-0.501,1.424-0.472,2.139-0.086c0.508,0.275,0.831,0.237,1.098-0.322
		c0.308-0.645,0.312-0.691-0.41-0.926c-1.057-0.344-1.529-0.924-1.538-1.884c-0.006-0.815,0.545-1.629,1.262-1.861
		c0.925-0.302,1.823,0.011,2.429,0.852c0.144,0.199,0.267,0.414,0.439,0.681c0.545-0.309,0.89-0.597,1.09-1.023
		c-0.092-0.38-0.454-0.498-0.662-0.752c-0.779-0.946-0.649-2.151,0.315-2.887c0.927-0.709,2.182-0.473,2.849,0.545
		c0.114,0.173,0.191,0.372,0.267,0.567c0.334,0.845,0.329,0.83,1.142,0.544c0.469-0.165,0.744-0.351,0.467-0.903
		c-0.148-0.294-0.246-0.622-0.218-0.973c0.079-1.008,0.903-1.84,1.883-1.885c0.999-0.045,1.871,0.671,2.035,1.695
		c0.039,0.246,0.034,0.503,0.018,0.755c-0.04,0.612,0.382,0.661,0.82,0.702c0.515,0.045,0.71-0.14,0.771-0.704
		c0.163-1.532,0.753-2.102,1.986-2.102c1.361,0,2.241,1.163,1.872,2.484c-0.034,0.121-0.086,0.238-0.143,0.351
		c-0.209,0.415-0.351,0.789,0.298,0.95c0.56,0.139,0.785-0.054,0.755-0.625c-0.023-0.438,0.169-0.82,0.42-1.165
		c0.577-0.795,1.634-1.057,2.459-0.623c0.868,0.455,1.292,1.419,1.012,2.344c-0.072,0.238-0.194,0.464-0.313,0.686
		c-0.136,0.255-0.168,0.485,0.132,0.628c0.308,0.148,0.575,0.097,0.729-0.242c0.087-0.189,0.135-0.401,0.24-0.58
		c0.616-1.051,1.695-1.411,2.681-0.906c0.975,0.501,1.392,1.634,0.823,2.684c-0.362,0.667-0.212,1.004,0.368,1.295
		c1.436,0.72,1.809,1.929,1.789,3.45c-0.054,3.909-0.018,7.819-0.018,11.728c0,0.211,0.003,0.421-0.008,0.631
		c-0.053,1.059-0.824,1.537-1.79,1.12c-0.262-0.112-0.392-0.318-0.418-0.579c-0.035-0.376-0.049-0.755-0.052-1.132
		c-0.029-3.447-0.098-6.894-0.056-10.34c0.016-1.351-0.424-2.121-1.7-2.723c-3.331-1.568-6.797-2.67-10.374-3.465
		c-2.879-0.64-5.603-0.283-8.064,1.414c-2.556,1.764-3.98,4.263-4.573,7.276c-0.506,2.568-0.103,5.01,0.984,7.364
		c0.405,0.877,0.815,1.753,1.19,2.642c0.402,0.954,0.377,0.974-0.696,1.187c-0.165,0.033-0.328,0.073-0.493,0.105
		c-0.675,0.13-1.148-0.093-1.368-0.775c-0.05-0.159-0.145-0.305-0.194-0.464C83.054,172.54,82.671,172.355,81.942,172.417z"/>
	<path d="M111.677,154.141c-0.038-0.85,0.694-1.595,1.58-1.61c0.961-0.016,1.611,0.593,1.626,1.524
		c0.015,0.927-0.657,1.667-1.52,1.672C112.547,155.733,111.713,154.949,111.677,154.141z"/>
	<path d="M113.301,156.405c0.864-0.019,1.568,0.69,1.586,1.597c0.019,0.969-0.575,1.606-1.518,1.628c-0.91,0.021-1.65-0.632-1.7-1.5
		C111.618,157.221,112.37,156.426,113.301,156.405z"/>
	<path d="M111.595,162.046c0.053-0.888,0.874-1.638,1.765-1.609c1.013,0.033,1.737,0.81,1.678,1.803
		c-0.059,0.992-0.862,1.682-1.872,1.606C112.287,163.782,111.542,162.928,111.595,162.046z"/>
	<path d="M111.574,166.4c0.047-0.973,0.849-1.701,1.836-1.668c0.965,0.032,1.722,0.839,1.708,1.822
		c-0.014,1.017-0.888,1.866-1.869,1.816C112.24,168.317,111.521,167.471,111.574,166.4z"/>
	<path d="M111.407,171.152c-0.03-1.031,0.873-1.953,1.905-1.944c1.062,0.009,1.811,0.755,1.832,1.827
		c0.023,1.118-0.762,1.947-1.845,1.949C112.327,172.986,111.436,172.123,111.407,171.152z"/>
	<path d="M113.392,152.184c-2.348,0.038-4.266-1.837-4.28-4.185c-0.014-2.368,1.841-4.252,4.195-4.26
		c2.332-0.008,4.255,1.9,4.265,4.232C117.582,150.167,115.616,152.148,113.392,152.184z"/>
	<path d="M107.525,140.388c-0.014-1.973-0.008-3.948-0.004-5.923c0-0.251,0.021-0.503,0.052-0.752
		c0.02-0.172,0.101-0.337,0.281-0.379c0.242-0.057,0.39,0.086,0.481,0.297c0.101,0.231,0.196,0.466,0.303,0.693
		c0.529,1.117,1.469,1.698,2.623,1.971c0.734,0.173,0.951-0.023,0.847-0.752c-0.196-1.356-0.934-2.3-2.207-2.836
		c-0.392-0.165-1.112-0.144-1.017-0.703c0.093-0.551,0.771-0.337,1.2-0.35c1.091-0.03,2.184-0.01,3.277-0.01
		c1.05,0,2.1-0.003,3.151,0.001c0.293,0.001,0.588,0.011,0.879,0.042c0.216,0.023,0.414,0.11,0.434,0.368
		c0.016,0.203-0.138,0.288-0.298,0.35c-0.275,0.105-0.551,0.203-0.826,0.305c-1.327,0.488-1.942,1.543-2.209,2.844
		c-0.131,0.636,0.11,0.861,0.767,0.741c1.129-0.206,2.043-0.751,2.611-1.784c0.121-0.22,0.207-0.459,0.322-0.683
		c0.112-0.218,0.197-0.522,0.491-0.503c0.381,0.025,0.419,0.372,0.419,0.664c0.008,2.31,0.005,4.62-0.001,6.929
		c0,0.26-0.068,0.54-0.328,0.63c-0.353,0.122-0.537-0.159-0.675-0.423c-0.502-0.961-1.213-1.705-2.213-2.151
		c-0.154-0.069-0.299-0.162-0.459-0.207c-0.275-0.079-0.578-0.246-0.839-0.033c-0.267,0.218-0.165,0.544-0.095,0.821
		c0.336,1.346,1.079,2.349,2.421,2.846c0.361,0.134,1.001,0.088,0.879,0.659c-0.103,0.488-0.693,0.365-1.095,0.367
		c-2.226,0.011-4.453,0.006-6.678,0.005c-0.168,0-0.337,0.001-0.503-0.018c-0.288-0.034-0.645-0.02-0.669-0.416
		c-0.024-0.38,0.315-0.444,0.597-0.527c1.572-0.466,2.478-1.51,2.705-3.132c0.083-0.601-0.106-0.796-0.691-0.646
		c-1.197,0.307-2.053,1.091-2.756,2.074c-0.223,0.312-0.284,0.939-0.837,0.743C107.389,141.343,107.529,140.789,107.525,140.388z"/>
	<path d="M143.279,175.554c-0.912-0.143-1.831-0.254-2.751-0.341c-0.466-0.043-1.117-0.452-1.351,0.165
		c-0.197,0.519,0.511,0.676,0.859,0.921c1.242,0.873,1.938,2.083,2.238,3.529c0.145,0.698-0.159,0.951-0.839,0.756
		c-1.693-0.488-2.71-1.604-3.048-3.341c-0.067-0.346,0.016-0.895-0.487-0.886c-0.454,0.009-0.438,0.53-0.511,0.888
		c-0.025,0.122-0.021,0.251-0.037,0.376c-0.3,2.417-0.606,4.834-0.9,7.252c-0.053,0.435-0.298,1.017,0.269,1.207
		c0.416,0.141,0.524-0.449,0.765-0.715c0.14-0.155,0.238-0.347,0.372-0.508c0.838-1.003,1.894-1.655,3.175-1.914
		c0.82-0.165,1.061,0.106,0.732,0.862c-0.626,1.443-1.686,2.491-3.098,3.183c-0.541,0.265-1.11,0.386-1.711,0.324
		c-1.295-0.135-2.588-0.279-3.882-0.413c-1.475-0.151-2.46-0.999-3.151-2.238c-0.503-0.905-0.36-1.785,0.235-2.599
		c0.444-0.606,1.122-0.866,1.639-0.628c0.625,0.285,0.784,0.828,0.752,1.464c-0.019,0.382-0.1,0.744-0.251,1.099
		c-0.092,0.216-0.291,0.433-0.121,0.699c0.202,0.144,0.397,0.078,0.593-0.003c1.687-0.693,2.564-2.934,1.831-4.68
		c-0.674-1.605-2.074-2.06-3.604-1.192c-0.381,0.216-0.667,0.608-1.131,0.708c-0.211-0.51,0.032-0.886,0.172-1.269
		c0.346-0.948,0.726-1.883,1.061-2.833c0.727-2.062,0.406-4.055-0.44-6.003c-0.168-0.386-0.387-0.747-0.693-1.046
		c-0.521-0.511-0.871-0.555-1.426-0.086c-0.315,0.266-0.597,0.598-0.818,0.949c-1.172,1.86-1.563,3.881-1.112,6.039
		c0.223,1.067,0.53,2.118,0.775,3.183c0.067,0.291,0.169,0.625-0.085,0.934c-0.476-0.409-0.862-0.797-1.303-1.109
		c-1.196-0.843-2.453-0.622-3.311,0.545c-1.049,1.427-0.839,3.664,0.466,4.837c0.332,0.299,0.691,0.579,1.283,0.439
		c-0.218-0.704-0.291-1.363-0.242-2.034c0.042-0.572,0.334-0.941,0.863-1.119c0.559-0.188,0.97,0.067,1.325,0.481
		c0.709,0.825,0.792,2.021,0.169,2.915c-0.852,1.223-2.078,1.891-3.519,1.934c-1.633,0.049-3.281-0.037-4.904-0.22
		c-1.991-0.223-3.523-1.971-3.572-3.826c-0.014-0.532,0.207-0.69,0.68-0.584c0.204,0.045,0.4,0.13,0.594,0.208
		c1.215,0.491,2.154,1.296,2.768,2.46c0.16,0.304,0.299,0.655,0.727,0.537c0.43-0.117,0.331-0.526,0.367-0.845
		c0.014-0.125,0.008-0.252,0.008-0.379c0-2.228,0.009-4.456-0.009-6.685c-0.003-0.394,0.177-0.983-0.304-1.114
		c-0.642-0.174-0.622,0.534-0.795,0.902c-0.667,1.427-1.807,2.17-3.327,2.38c-0.618,0.085-0.785-0.069-0.714-0.661
		c0.164-1.373,0.749-2.491,2.045-3.123c0.452-0.221,0.926-0.397,1.395-0.579c0.221-0.087,0.357-0.216,0.322-0.463
		c-0.03-0.207-0.209-0.261-0.371-0.278c-0.334-0.034-0.671-0.048-1.007-0.049c-2.397-0.004-4.793-0.003-7.191-0.001
		c-0.294,0.001-0.589,0.005-0.882,0.03c-0.203,0.018-0.445,0.024-0.505,0.284c-0.076,0.333,0.178,0.428,0.419,0.517
		c0.237,0.086,0.476,0.169,0.713,0.252c1.147,0.402,1.914,1.192,2.325,2.324c0.197,0.54,0.578,1.172,0.053,1.638
		c-0.449,0.397-1.037,0.018-1.547-0.14c-1.335-0.413-2.016-1.437-2.481-2.664c-0.092-0.241-0.209-0.483-0.536-0.392
		c-0.254,0.071-0.26,0.315-0.265,0.516c-0.019,0.799-0.028,1.597-0.026,2.396c0.003,1.851,0.009,3.701,0.025,5.55
		c0.003,0.246,0.029,0.52,0.362,0.574c0.252,0.04,0.382-0.127,0.498-0.307c0.158-0.249,0.295-0.511,0.467-0.748
		c0.679-0.944,1.532-1.672,2.656-2.034c0.9-0.29,1.166-0.045,1.002,0.897c-0.339,1.951-1.768,3.272-3.805,3.446
		c-1.337,0.114-2.681,0.158-4.024,0.213c-1.177,0.049-2.242-0.32-3.195-0.989c-1.094-0.767-1.519-1.91-1.195-3.071
		c0.256-0.915,0.999-1.496,1.716-1.341c0.694,0.15,1.047,0.84,0.996,1.809c-0.024,0.453-0.376,0.861-0.16,1.383
		c0.622,0.085,1.036-0.29,1.365-0.71c0.963-1.23,1.139-2.621,0.517-4.034c-0.773-1.754-2.464-2.078-3.92-0.823
		c-0.338,0.291-0.664,0.601-1.067,0.968c-0.115-0.65,0.013-1.133,0.134-1.62c0.255-1.019,0.565-2.029,0.737-3.062
		c0.386-2.33-0.245-4.426-1.731-6.233c-0.794-0.965-1.432-0.887-2.05,0.196c-1.225,2.146-1.576,4.414-0.756,6.791
		c0.315,0.913,0.696,1.804,1.019,2.714c0.134,0.375,0.353,0.756,0.174,1.293c-0.511-0.327-0.943-0.649-1.413-0.896
		c-1.199-0.632-2.291-0.324-3.075,0.79c-0.331,0.468-0.453,0.999-0.525,1.534c-0.193,1.451,0.902,3.322,2.117,3.687
		c0.461,0.138,0.655-0.026,0.536-0.484c-0.115-0.445-0.315-0.874-0.387-1.325c-0.097-0.613,0.271-1.26,0.771-1.46
		c0.59-0.237,1.052-0.005,1.466,0.421c0.719,0.742,0.9,1.695,0.483,2.676c-0.578,1.36-1.655,2.106-3.063,2.339
		c-1.074,0.179-2.217,0.063-3.249,0.36c-2.337,0.674-4.875-1.636-5.55-3.429c-0.29-0.77-0.071-1.056,0.724-0.864
		c1.388,0.337,2.575,1.016,3.394,2.233c0.165,0.243,0.31,0.501,0.479,0.741c0.13,0.185,0.31,0.29,0.54,0.182
		c0.169-0.079,0.227-0.235,0.212-0.418c-0.025-0.293-0.039-0.587-0.074-0.878c-0.289-2.377-0.555-4.757-0.892-7.128
		c-0.064-0.454,0.095-1.266-0.468-1.305c-0.72-0.05-0.541,0.795-0.664,1.269c-0.41,1.587-1.465,2.506-2.969,2.97
		c-0.625,0.193-0.866-0.026-0.81-0.685c0.021-0.249,0.102-0.493,0.174-0.733c0.418-1.398,1.31-2.421,2.525-3.188
		c0.212-0.134,0.485-0.27,0.418-0.563c-0.082-0.365-0.426-0.38-0.717-0.343c-1.249,0.158-2.503,0.298-3.741,0.524
		c-0.845,0.154-1.185,0.662-1.172,1.536c0.004,0.291,0.057,0.584,0.098,0.874c0.464,3.244,0.983,6.48,1.374,9.732
		c0.154,1.274,0.568,2.248,1.756,2.814c0.112,0.053,0.212,0.136,0.314,0.211c1.107,0.795,1.148,1.03,0.376,2.123
		c-0.363,0.515-0.762,1.008-1.079,1.551c-0.53,0.911-0.245,1.44,0.781,1.52c0.334,0.025,0.671,0.016,1.008,0.016h53.736
		c0.337,0,0.675,0.01,1.009-0.019c0.935-0.082,1.206-0.517,0.824-1.332c-0.124-0.264-0.297-0.508-0.463-0.749
		c-0.309-0.45-0.66-0.874-0.94-1.341c-0.421-0.699-0.357-0.996,0.283-1.503c0.394-0.314,0.796-0.623,1.223-0.89
		c0.66-0.41,0.945-0.97,1.05-1.749c0.486-3.622,1.037-7.235,1.557-10.852C144.932,176.329,144.513,175.747,143.279,175.554z
		 M101.722,192.041c-0.203,0.044-0.414,0.073-0.622,0.081c-1.676,0.059-3.356,0.038-4.869,0.259
		c-1.282-0.016-1.754-0.423-1.821-1.435c-0.074-1.157,0.302-1.668,1.45-1.758c1.84-0.143,3.683-0.244,5.526-0.304
		c1.096-0.035,1.515,0.405,1.601,1.486C103.071,191.406,102.767,191.81,101.722,192.041z M115.586,190.724
		c-0.549,0.577-1.114,1.137-1.681,1.696c-0.355,0.351-0.724,0.386-1.095,0.01c-0.589-0.596-1.185-1.186-1.774-1.782
		c-0.261-0.264-0.39-0.589-0.145-0.902c0.597-0.76,1.292-1.427,2.034-2.045c0.091-0.076,0.228-0.096,0.317-0.132
		c0.256-0.008,0.437,0.098,0.588,0.249c0.594,0.59,1.192,1.177,1.769,1.784C115.942,189.962,115.926,190.368,115.586,190.724z
		 M132.232,190.894c-0.058,1.099-0.567,1.504-1.995,1.483c-1.534-0.23-3.211-0.168-4.879-0.266
		c-1.268-0.073-1.652-0.461-1.682-1.544c-0.038-1.324,0.342-1.734,1.708-1.688c1.712,0.057,3.422,0.161,5.131,0.273
		C131.902,189.241,132.297,189.664,132.232,190.894z"/>
	<path d="M148.197,165.575c-0.053,1.009-0.683,1.696-1.713,1.86c-0.165,0.026-0.339-0.003-0.503,0.03
		c-0.602,0.117-0.794,0.661-0.382,1.1c0.14,0.15,0.347,0.236,0.507,0.371c0.725,0.616,0.979,1.467,0.68,2.25
		c-0.298,0.781-1.108,1.417-1.972,1.263c-0.941-0.168-1.269,0.295-1.56,1.006c-0.168,0.41-0.246,0.939-0.826,1.003
		c-0.638,0.071-1.268-0.063-1.851-0.288c-0.35-0.134-0.198-0.498-0.076-0.771c0.495-1.113,1.017-2.216,1.488-3.339
		c1.75-4.176,1.313-8.146-1.319-11.807c-1.879-2.616-4.544-3.944-7.743-4.099c-0.908-0.045-1.843,0.134-2.743,0.323
		c-3.296,0.695-6.509,1.653-9.569,3.096c-2.441,1.152-2.47,1.128-2.491,3.862c-0.023,3.027-0.009,6.054-0.01,9.081
		c0,0.548-0.029,1.088-0.163,1.625c-0.165,0.661-0.664,0.669-1.185,0.659c-0.54-0.01-0.879-0.242-0.895-0.825
		c-0.009-0.336-0.026-0.672-0.026-1.008c-0.001-4.036,0.049-8.073-0.027-12.108c-0.028-1.441,0.478-2.434,1.705-3.094
		c0.578-0.31,0.737-0.596,0.38-1.267c-0.599-1.129-0.154-2.242,0.932-2.742c1.011-0.466,2.01-0.068,2.621,1.049
		c0.1,0.184,0.154,0.396,0.266,0.57c0.216,0.331,0.517,0.222,0.776,0.076c0.226-0.127,0.217-0.352,0.066-0.539
		c-0.342-0.42-0.42-0.905-0.392-1.422c0.056-0.975,0.781-1.745,1.744-1.847c0.908-0.097,1.831,0.577,2.049,1.512
		c0.047,0.202,0.044,0.416,0.062,0.626c0.044,0.543,0.396,0.572,0.813,0.483c0.438-0.093,0.541-0.365,0.357-0.746
		c-0.149-0.31-0.223-0.627-0.235-0.97c-0.039-1.139,0.572-1.924,1.601-2.042c1.236-0.143,2.036,0.458,2.229,1.664
		c0.063,0.391-0.09,0.877,0.442,1.078c0.689,0.26,1.175-0.085,1.213-0.859c0.062-1.274,0.553-1.975,1.509-2.153
		c1.629-0.303,2.751,0.943,2.238,2.629c-0.213,0.704,0.009,0.916,0.558,1.098c0.676,0.225,0.828,0.145,1.064-0.567
		c0.519-1.558,2.127-2.058,3.264-1.012c0.799,0.733,0.8,2-0.074,2.921c-0.377,0.399-0.59,0.661-0.107,1.119
		c0.548,0.52,0.652,0.546,1.132-0.086c0.365-0.479,0.753-0.905,1.38-1.019c0.987-0.18,1.894,0.319,2.228,1.228
		c0.35,0.951-0.039,1.963-0.961,2.468c-0.326,0.178-0.736,0.175-1.018,0.448c-0.061,0.337,0.173,0.56,0.303,0.814
		c0.164,0.317,0.423,0.373,0.738,0.183c0.179-0.109,0.368-0.212,0.568-0.274c1.019-0.317,2.083,0.201,2.473,1.19
		c0.361,0.913-0.049,1.976-0.974,2.459c-0.257,0.134-0.548,0.214-0.83,0.29c-0.341,0.091-0.492,0.29-0.455,0.64
		c0.033,0.319,0.151,0.568,0.502,0.63c0.249,0.044,0.505,0.056,0.744,0.125C147.754,163.814,148.254,164.521,148.197,165.575z"/>
	<path d="M143.279,175.554c-0.912-0.143-1.831-0.254-2.751-0.341c-0.466-0.043-1.117-0.452-1.351,0.165
		c-0.197,0.519,0.511,0.676,0.859,0.921c1.242,0.873,1.938,2.083,2.238,3.529c0.145,0.698-0.159,0.951-0.839,0.756
		c-1.693-0.488-2.71-1.604-3.048-3.341c-0.067-0.346,0.016-0.895-0.487-0.886c-0.454,0.009-0.438,0.53-0.511,0.888
		c-0.025,0.122-0.021,0.251-0.037,0.376c-0.3,2.417-0.606,4.834-0.9,7.252c-0.053,0.435-0.298,1.017,0.269,1.207
		c0.416,0.141,0.524-0.449,0.765-0.715c0.14-0.155,0.238-0.347,0.372-0.508c0.838-1.003,1.894-1.655,3.175-1.914
		c0.82-0.165,1.061,0.106,0.732,0.862c-0.626,1.443-1.686,2.491-3.098,3.183c-0.541,0.265-1.11,0.386-1.711,0.324
		c-1.295-0.135-2.588-0.279-3.882-0.413c-1.475-0.151-2.46-0.999-3.151-2.238c-0.503-0.905-0.36-1.785,0.235-2.599
		c0.444-0.606,1.122-0.866,1.639-0.628c0.625,0.285,0.784,0.828,0.752,1.464c-0.019,0.382-0.1,0.744-0.251,1.099
		c-0.092,0.216-0.291,0.433-0.121,0.699c0.202,0.144,0.397,0.078,0.593-0.003c1.687-0.693,2.564-2.934,1.831-4.68
		c-0.674-1.605-2.074-2.06-3.604-1.192c-0.381,0.216-0.667,0.608-1.131,0.708c-0.211-0.51,0.032-0.886,0.172-1.269
		c0.346-0.948,0.726-1.883,1.061-2.833c0.727-2.062,0.406-4.055-0.44-6.003c-0.168-0.386-0.387-0.747-0.693-1.046
		c-0.521-0.511-0.871-0.555-1.426-0.086c-0.315,0.266-0.597,0.598-0.818,0.949c-1.172,1.86-1.563,3.881-1.112,6.039
		c0.223,1.067,0.53,2.118,0.775,3.183c0.067,0.291,0.169,0.625-0.085,0.934c-0.476-0.409-0.862-0.797-1.303-1.109
		c-1.196-0.843-2.453-0.622-3.311,0.545c-1.049,1.427-0.839,3.664,0.466,4.837c0.332,0.299,0.691,0.579,1.283,0.439
		c-0.218-0.704-0.291-1.363-0.242-2.034c0.042-0.572,0.334-0.941,0.863-1.119c0.559-0.188,0.97,0.067,1.325,0.481
		c0.709,0.825,0.792,2.021,0.169,2.915c-0.852,1.223-2.078,1.891-3.519,1.934c-1.633,0.049-3.281-0.037-4.904-0.22
		c-1.991-0.223-3.523-1.971-3.572-3.826c-0.014-0.532,0.207-0.69,0.68-0.584c0.204,0.045,0.4,0.13,0.594,0.208
		c1.215,0.491,2.154,1.296,2.768,2.46c0.16,0.304,0.299,0.655,0.727,0.537c0.43-0.117,0.331-0.526,0.367-0.845
		c0.014-0.125,0.008-0.252,0.008-0.379c0-2.228,0.009-4.456-0.009-6.685c-0.003-0.394,0.177-0.983-0.304-1.114
		c-0.642-0.174-0.622,0.534-0.795,0.902c-0.667,1.427-1.807,2.17-3.327,2.38c-0.618,0.085-0.785-0.069-0.714-0.661
		c0.164-1.373,0.749-2.491,2.045-3.123c0.452-0.221,0.926-0.397,1.395-0.579c0.221-0.087,0.357-0.216,0.322-0.463
		c-0.03-0.207-0.209-0.261-0.371-0.278c-0.334-0.034-0.671-0.048-1.007-0.049c-2.397-0.004-4.793-0.003-7.191-0.001
		c-0.294,0.001-0.589,0.005-0.882,0.03c-0.203,0.018-0.445,0.024-0.505,0.284c-0.076,0.333,0.178,0.428,0.419,0.517
		c0.237,0.086,0.476,0.169,0.713,0.252c1.147,0.402,1.914,1.192,2.325,2.324c0.197,0.54,0.578,1.172,0.053,1.638
		c-0.449,0.397-1.037,0.018-1.547-0.14c-1.335-0.413-2.016-1.437-2.481-2.664c-0.092-0.241-0.209-0.483-0.536-0.392
		c-0.254,0.071-0.26,0.315-0.265,0.516c-0.019,0.799-0.028,1.597-0.026,2.396c0.003,1.851,0.009,3.701,0.025,5.55
		c0.003,0.246,0.029,0.52,0.362,0.574c0.252,0.04,0.382-0.127,0.498-0.307c0.158-0.249,0.295-0.511,0.467-0.748
		c0.679-0.944,1.532-1.672,2.656-2.034c0.9-0.29,1.166-0.045,1.002,0.897c-0.339,1.951-1.768,3.272-3.805,3.446
		c-1.337,0.114-2.681,0.158-4.024,0.213c-1.177,0.049-2.242-0.32-3.195-0.989c-1.094-0.767-1.519-1.91-1.195-3.071
		c0.256-0.915,0.999-1.496,1.716-1.341c0.694,0.15,1.047,0.84,0.996,1.809c-0.024,0.453-0.376,0.861-0.16,1.383
		c0.622,0.085,1.036-0.29,1.365-0.71c0.963-1.23,1.139-2.621,0.517-4.034c-0.773-1.754-2.464-2.078-3.92-0.823
		c-0.338,0.291-0.664,0.601-1.067,0.968c-0.115-0.65,0.013-1.133,0.134-1.62c0.255-1.019,0.565-2.029,0.737-3.062
		c0.386-2.33-0.245-4.426-1.731-6.233c-0.794-0.965-1.432-0.887-2.05,0.196c-1.225,2.146-1.576,4.414-0.756,6.791
		c0.315,0.913,0.696,1.804,1.019,2.714c0.134,0.375,0.353,0.756,0.174,1.293c-0.511-0.327-0.943-0.649-1.413-0.896
		c-1.199-0.632-2.291-0.324-3.075,0.79c-0.331,0.468-0.453,0.999-0.525,1.534c-0.193,1.451,0.902,3.322,2.117,3.687
		c0.461,0.138,0.655-0.026,0.536-0.484c-0.115-0.445-0.315-0.874-0.387-1.325c-0.097-0.613,0.271-1.26,0.771-1.46
		c0.59-0.237,1.052-0.005,1.466,0.421c0.719,0.742,0.9,1.695,0.483,2.676c-0.578,1.36-1.655,2.106-3.063,2.339
		c-1.074,0.179-2.217,0.063-3.249,0.36c-2.337,0.674-4.875-1.636-5.55-3.429c-0.29-0.77-0.071-1.056,0.724-0.864
		c1.388,0.337,2.575,1.016,3.394,2.233c0.165,0.243,0.31,0.501,0.479,0.741c0.13,0.185,0.31,0.29,0.54,0.182
		c0.169-0.079,0.227-0.235,0.212-0.418c-0.025-0.293-0.039-0.587-0.074-0.878c-0.289-2.377-0.555-4.757-0.892-7.128
		c-0.064-0.454,0.095-1.266-0.468-1.305c-0.72-0.05-0.541,0.795-0.664,1.269c-0.41,1.587-1.465,2.506-2.969,2.97
		c-0.625,0.193-0.866-0.026-0.81-0.685c0.021-0.249,0.102-0.493,0.174-0.733c0.418-1.398,1.31-2.421,2.525-3.188
		c0.212-0.134,0.485-0.27,0.418-0.563c-0.082-0.365-0.426-0.38-0.717-0.343c-1.249,0.158-2.503,0.298-3.741,0.524
		c-0.845,0.154-1.185,0.662-1.172,1.536c0.004,0.291,0.057,0.584,0.098,0.874c0.464,3.244,0.983,6.48,1.374,9.732
		c0.154,1.274,0.568,2.248,1.756,2.814c0.112,0.053,0.212,0.136,0.314,0.211c1.107,0.795,1.148,1.03,0.376,2.123
		c-0.363,0.515-0.762,1.008-1.079,1.551c-0.53,0.911-0.245,1.44,0.781,1.52c0.334,0.025,0.671,0.016,1.008,0.016h53.736
		c0.337,0,0.675,0.01,1.009-0.019c0.935-0.082,1.206-0.517,0.824-1.332c-0.124-0.264-0.297-0.508-0.463-0.749
		c-0.309-0.45-0.66-0.874-0.94-1.341c-0.421-0.699-0.357-0.996,0.283-1.503c0.394-0.314,0.796-0.623,1.223-0.89
		c0.66-0.41,0.945-0.97,1.05-1.749c0.486-3.622,1.037-7.235,1.557-10.852C144.932,176.329,144.513,175.747,143.279,175.554z
		 M101.722,192.041c-0.203,0.044-0.414,0.073-0.622,0.081c-1.676,0.059-3.356,0.038-4.869,0.259
		c-1.282-0.016-1.754-0.423-1.821-1.435c-0.074-1.157,0.302-1.668,1.45-1.758c1.84-0.143,3.683-0.244,5.526-0.304
		c1.096-0.035,1.515,0.405,1.601,1.486C103.071,191.406,102.767,191.81,101.722,192.041z M115.586,190.724
		c-0.549,0.577-1.114,1.137-1.681,1.696c-0.355,0.351-0.724,0.386-1.095,0.01c-0.589-0.596-1.185-1.186-1.774-1.782
		c-0.261-0.264-0.39-0.589-0.145-0.902c0.597-0.76,1.292-1.427,2.034-2.045c0.091-0.076,0.228-0.096,0.317-0.132
		c0.256-0.008,0.437,0.098,0.588,0.249c0.594,0.59,1.192,1.177,1.769,1.784C115.942,189.962,115.926,190.368,115.586,190.724z
		 M132.232,190.894c-0.058,1.099-0.567,1.504-1.995,1.483c-1.534-0.23-3.211-0.168-4.879-0.266
		c-1.268-0.073-1.652-0.461-1.682-1.544c-0.038-1.324,0.342-1.734,1.708-1.688c1.712,0.057,3.422,0.161,5.131,0.273
		C131.902,189.241,132.297,189.664,132.232,190.894z"/>
	<path d="M110.87,170.94c0,0.211,0.003,0.421-0.008,0.631c-0.053,1.059-0.824,1.537-1.79,1.12c-0.262-0.112-0.392-0.318-0.418-0.579
		c-0.035-0.376-0.049-0.755-0.052-1.132c-0.029-3.447-0.098-6.894-0.056-10.34c0.016-1.351-0.424-2.121-1.7-2.723
		c-3.331-1.568-6.797-2.67-10.374-3.465c-2.879-0.64-5.603-0.283-8.064,1.414c-2.556,1.764-3.98,4.263-4.573,7.276
		c-0.506,2.568-0.103,5.01,0.984,7.364c0.405,0.877,0.815,1.753,1.19,2.642c0.402,0.954,0.377,0.974-0.696,1.187
		c-0.165,0.033-0.328,0.073-0.493,0.105c-0.675,0.13-1.148-0.093-1.368-0.775c-0.05-0.159-0.145-0.305-0.194-0.464
		c-0.206-0.662-0.588-0.847-1.317-0.785c-1.496,0.127-2.423-0.975-2.129-2.375c0.098-0.468,0.338-0.853,0.732-1.137
		c0.203-0.148,0.438-0.276,0.587-0.468c0.32-0.415,0.091-0.916-0.44-1.002c-0.164-0.026-0.338,0.01-0.502-0.013
		c-1.047-0.148-1.797-0.935-1.84-1.92c-0.039-0.891,0.656-1.764,1.605-2.009c0.121-0.032,0.251-0.052,0.375-0.044
		c0.587,0.04,0.848-0.286,0.893-0.815c0.049-0.585-0.45-0.493-0.786-0.593c-0.874-0.259-1.494-0.768-1.633-1.715
		c-0.112-0.771,0.145-1.413,0.78-1.877c0.688-0.501,1.424-0.472,2.139-0.086c0.508,0.275,0.831,0.237,1.098-0.322
		c0.308-0.645,0.312-0.691-0.41-0.926c-1.057-0.344-1.529-0.924-1.538-1.884c-0.006-0.815,0.545-1.629,1.262-1.861
		c0.925-0.302,1.823,0.011,2.429,0.852c0.144,0.199,0.267,0.414,0.439,0.681c0.545-0.309,0.89-0.597,1.09-1.023
		c-0.092-0.38-0.454-0.498-0.662-0.752c-0.779-0.946-0.649-2.151,0.315-2.887c0.927-0.709,2.182-0.473,2.849,0.545
		c0.114,0.173,0.191,0.372,0.267,0.567c0.334,0.845,0.329,0.83,1.142,0.544c0.469-0.165,0.744-0.351,0.467-0.903
		c-0.148-0.294-0.246-0.622-0.218-0.973c0.079-1.008,0.903-1.84,1.883-1.885c0.999-0.045,1.871,0.671,2.035,1.695
		c0.039,0.246,0.034,0.503,0.018,0.755c-0.04,0.612,0.382,0.661,0.82,0.702c0.515,0.045,0.71-0.14,0.771-0.704
		c0.163-1.532,0.753-2.102,1.986-2.102c1.361,0,2.241,1.163,1.872,2.484c-0.034,0.121-0.086,0.238-0.143,0.351
		c-0.209,0.415-0.351,0.789,0.298,0.95c0.56,0.139,0.785-0.054,0.755-0.625c-0.023-0.438,0.169-0.82,0.42-1.165
		c0.577-0.795,1.634-1.057,2.459-0.623c0.868,0.455,1.292,1.419,1.012,2.344c-0.072,0.238-0.194,0.464-0.313,0.686
		c-0.136,0.255-0.168,0.485,0.132,0.628c0.308,0.148,0.575,0.097,0.729-0.242c0.087-0.189,0.135-0.401,0.24-0.58
		c0.616-1.051,1.695-1.411,2.681-0.906c0.975,0.501,1.392,1.634,0.823,2.684c-0.362,0.667-0.212,1.004,0.368,1.295
		c1.436,0.72,1.809,1.929,1.789,3.45C110.833,163.121,110.87,167.031,110.87,170.94z"/>
	<path d="M148.197,165.575c-0.053,1.009-0.683,1.696-1.713,1.86c-0.165,0.026-0.339-0.003-0.503,0.03
		c-0.602,0.117-0.794,0.661-0.382,1.1c0.14,0.15,0.347,0.236,0.507,0.371c0.725,0.616,0.979,1.467,0.68,2.25
		c-0.298,0.781-1.108,1.417-1.972,1.263c-0.941-0.168-1.269,0.295-1.56,1.006c-0.168,0.41-0.246,0.939-0.826,1.003
		c-0.638,0.071-1.268-0.063-1.851-0.288c-0.35-0.134-0.198-0.498-0.076-0.771c0.495-1.113,1.017-2.216,1.488-3.339
		c1.75-4.176,1.313-8.146-1.319-11.807c-1.879-2.616-4.544-3.944-7.743-4.099c-0.908-0.045-1.843,0.134-2.743,0.323
		c-3.296,0.695-6.509,1.653-9.569,3.096c-2.441,1.152-2.47,1.128-2.491,3.862c-0.023,3.027-0.009,6.054-0.01,9.081
		c0,0.548-0.029,1.088-0.163,1.625c-0.165,0.661-0.664,0.669-1.185,0.659c-0.54-0.01-0.879-0.242-0.895-0.825
		c-0.009-0.336-0.026-0.672-0.026-1.008c-0.001-4.036,0.049-8.073-0.027-12.108c-0.028-1.441,0.478-2.434,1.705-3.094
		c0.578-0.31,0.737-0.596,0.38-1.267c-0.599-1.129-0.154-2.242,0.932-2.742c1.011-0.466,2.01-0.068,2.621,1.049
		c0.1,0.184,0.154,0.396,0.266,0.57c0.216,0.331,0.517,0.222,0.776,0.076c0.226-0.127,0.217-0.352,0.066-0.539
		c-0.342-0.42-0.42-0.905-0.392-1.422c0.056-0.975,0.781-1.745,1.744-1.847c0.908-0.097,1.831,0.577,2.049,1.512
		c0.047,0.202,0.044,0.416,0.062,0.626c0.044,0.543,0.396,0.572,0.813,0.483c0.438-0.093,0.541-0.365,0.357-0.746
		c-0.149-0.31-0.223-0.627-0.235-0.97c-0.039-1.139,0.572-1.924,1.601-2.042c1.236-0.143,2.036,0.458,2.229,1.664
		c0.063,0.391-0.09,0.877,0.442,1.078c0.689,0.26,1.175-0.085,1.213-0.859c0.062-1.274,0.553-1.975,1.509-2.153
		c1.629-0.303,2.751,0.943,2.238,2.629c-0.213,0.704,0.009,0.916,0.558,1.098c0.676,0.225,0.828,0.145,1.064-0.567
		c0.519-1.558,2.127-2.058,3.264-1.012c0.799,0.733,0.8,2-0.074,2.921c-0.377,0.399-0.59,0.661-0.107,1.119
		c0.548,0.52,0.652,0.546,1.132-0.086c0.365-0.479,0.753-0.905,1.38-1.019c0.987-0.18,1.894,0.319,2.228,1.228
		c0.35,0.951-0.039,1.963-0.961,2.468c-0.326,0.178-0.736,0.175-1.018,0.448c-0.061,0.337,0.173,0.56,0.303,0.814
		c0.164,0.317,0.423,0.373,0.738,0.183c0.179-0.109,0.368-0.212,0.568-0.274c1.019-0.317,2.083,0.201,2.473,1.19
		c0.361,0.913-0.049,1.976-0.974,2.459c-0.257,0.134-0.548,0.214-0.83,0.29c-0.341,0.091-0.492,0.29-0.455,0.64
		c0.033,0.319,0.151,0.568,0.502,0.63c0.249,0.044,0.505,0.056,0.744,0.125C147.754,163.814,148.254,164.521,148.197,165.575z"/>
	<path d="M119.099,140.918c0,0.26-0.068,0.54-0.328,0.63c-0.353,0.122-0.537-0.159-0.675-0.423
		c-0.502-0.961-1.213-1.705-2.213-2.151c-0.154-0.069-0.299-0.162-0.459-0.207c-0.275-0.079-0.578-0.246-0.839-0.033
		c-0.267,0.218-0.165,0.544-0.095,0.821c0.336,1.346,1.079,2.349,2.421,2.846c0.361,0.134,1.001,0.088,0.879,0.659
		c-0.103,0.488-0.693,0.365-1.095,0.367c-2.226,0.011-4.453,0.006-6.678,0.005c-0.168,0-0.337,0.001-0.503-0.018
		c-0.288-0.034-0.645-0.02-0.669-0.416c-0.024-0.38,0.315-0.444,0.597-0.527c1.572-0.466,2.478-1.51,2.705-3.132
		c0.083-0.601-0.106-0.796-0.691-0.646c-1.197,0.307-2.053,1.091-2.756,2.074c-0.223,0.312-0.284,0.939-0.837,0.743
		c-0.474-0.168-0.334-0.722-0.338-1.123c-0.014-1.973-0.008-3.948-0.004-5.923c0-0.251,0.021-0.503,0.052-0.752
		c0.02-0.172,0.101-0.337,0.281-0.379c0.242-0.057,0.39,0.086,0.481,0.297c0.101,0.231,0.196,0.466,0.303,0.693
		c0.529,1.117,1.469,1.698,2.623,1.971c0.734,0.173,0.951-0.023,0.847-0.752c-0.196-1.356-0.934-2.3-2.207-2.836
		c-0.392-0.165-1.112-0.144-1.017-0.703c0.093-0.551,0.771-0.337,1.2-0.35c1.091-0.03,2.184-0.01,3.277-0.01
		c1.05,0,2.1-0.003,3.151,0.001c0.293,0.001,0.588,0.011,0.879,0.042c0.216,0.023,0.414,0.11,0.434,0.368
		c0.016,0.203-0.138,0.288-0.298,0.35c-0.275,0.105-0.551,0.203-0.826,0.305c-1.327,0.488-1.942,1.543-2.209,2.844
		c-0.131,0.636,0.11,0.861,0.767,0.741c1.129-0.206,2.043-0.751,2.611-1.784c0.121-0.22,0.207-0.459,0.322-0.683
		c0.112-0.218,0.197-0.522,0.491-0.503c0.381,0.025,0.419,0.372,0.419,0.664C119.108,136.299,119.105,138.609,119.099,140.918z"/>
	<path d="M117.572,147.971c0.01,2.195-1.956,4.176-4.18,4.213c-2.348,0.038-4.266-1.837-4.28-4.185
		c-0.014-2.368,1.841-4.252,4.195-4.26C115.639,143.732,117.562,145.639,117.572,147.971z"/>
	<path d="M115.145,171.034c0.023,1.118-0.762,1.947-1.845,1.949c-0.973,0.003-1.864-0.861-1.893-1.832
		c-0.03-1.031,0.873-1.953,1.905-1.944C114.375,169.216,115.123,169.962,115.145,171.034z"/>
	<path d="M115.118,166.554c-0.014,1.017-0.888,1.866-1.869,1.816c-1.009-0.053-1.729-0.898-1.676-1.97
		c0.047-0.973,0.849-1.701,1.836-1.668C114.375,164.764,115.132,165.571,115.118,166.554z"/>
	<path d="M115.039,162.24c-0.059,0.992-0.862,1.682-1.872,1.606c-0.879-0.064-1.624-0.919-1.571-1.801
		c0.053-0.888,0.874-1.638,1.765-1.609C114.374,160.47,115.098,161.247,115.039,162.24z"/>
	<path d="M114.887,158.002c0.019,0.969-0.575,1.606-1.518,1.628c-0.91,0.021-1.65-0.632-1.7-1.5c-0.052-0.908,0.7-1.703,1.631-1.725
		C114.165,156.386,114.87,157.095,114.887,158.002z"/>
	<path d="M114.883,154.055c0.015,0.927-0.657,1.667-1.52,1.672c-0.816,0.006-1.65-0.778-1.686-1.586
		c-0.038-0.85,0.694-1.595,1.58-1.61C114.218,152.515,114.868,153.124,114.883,154.055z"/>
</g>
</svg>
