<?xml version="1.0" encoding="utf-8"?>
<!-- Generator: Adobe Illustrator 28.4.1, SVG Export Plug-In . SVG Version: 6.00 Build 0)  -->
<svg version="1.0" id="katman_1" xmlns="http://www.w3.org/2000/svg" xmlns:xlink="http://www.w3.org/1999/xlink" x="0px" y="0px"
	 viewBox="0 0 841.9 595.3" style="enable-background:new 0 0 841.9 595.3;" xml:space="preserve">
<style type="text/css">
	.st0{fill:#000000;}
</style>
<g>
	<path id="arch" class="st0" d="M411.2,210.7c-13.2-10.4-30.1-13.9-46.3-9.8L118,262.2c-25.5,6.6-43.5,29.3-43.5,55.7v77.9H116
		v-77.9c0-7.3,4.9-13.6,12-15.5l246.9-61.5c5.3-1.3,8.9,0.8,10.8,2.3c1.8,1.4,4.8,4.6,4.8,10v83.3H432v-83.3
		C432.1,236.3,424.5,220.9,411.2,210.7z"/>
	<path id="ball" class="st0" d="M411.2,396.9c11.8,0,21.4-9.6,21.4-21.4c0-11.8-9.6-21.4-21.4-21.4c-11.8,0-21.4,9.6-21.4,21.4
		C389.8,387.3,399.4,396.9,411.2,396.9z"/>
	<g id="logo-text">
		<path id="n" class="st0" d="M521.3,239.7c-7.7-11.8-15.2-22.9-22.9-34.2h-10.2v51.2h9.7v-33.3h0.1c7.6,11.6,15.1,22.3,22.7,33.3
			h10.1v-51.2h-9.7v34.2C521.2,239.7,521.3,239.7,521.3,239.7z"/>
		<path id="a" class="st0" d="M550,236.2c-6.3,1.4-11.8,4.1-11.8,11c0,7.3,6.1,10.8,12.3,10.8c4.8,0,8.9-2.3,10.9-6h0.1
			c0,1.6,0.1,3.2,0.7,4.8h9.1c-0.7-2.9-1.3-5.5-1.3-11.5v-13.1c0-8.6-5.7-13.1-14.8-13.1c-7.1,0-13.8,2.8-16.2,10.4l8.7,2.9
			c1.3-4.1,4-5.7,7.1-5.7c3.6,0,5.7,2.1,5.7,4.7C561,234.2,558.3,234.5,550,236.2L550,236.2z M561,240.1v2.9c0,3.8-2.9,7.9-7.9,7.9
			c-2.9,0-4.9-1.3-4.9-3.9c0-2.8,2.8-4.1,5.6-4.8C555.9,241.6,559,240.8,561,240.1L561,240.1z"/>
		<path id="t" class="st0" d="M582.1,209.6v10.3H575v8.4h7.1V245c0,3.9,0,12.8,12.3,12.8c2.6,0,4.9-0.5,6.9-1.4v-8.3
			c-1.5,0.8-3.2,1.4-4.9,1.4c-4.9,0-4.9-4.2-4.9-7.7v-13.2h10v-8.4h-10v-10.4H582.1L582.1,209.6z"/>
		<path id="dot" class="st0" d="M612.3,203.2c-3.3,0-5.7,2.6-5.7,5.6c0,3.3,2.5,5.7,5.7,5.7c3.2,0,5.6-2.6,5.6-5.7
			C618,205.6,615.5,203.2,612.3,203.2z"/>
		<path id="i_00000097479586305283187670000002055164336939452599_" class="st0" d="M616.9,220.2h-9.3v36.7h9.3V220.2z"/>
		<path id="o" class="st0" d="M642.6,219c-11.1,0-18.9,8.1-18.9,19.5c0,11.5,7.7,19.5,18.9,19.5s18.9-8,18.9-19.5
			C661.5,227.2,653.7,219,642.6,219z M642.6,249.1c-5.5,0-9.4-4.5-9.4-10.7c0-6.2,3.9-10.7,9.4-10.7c5.5,0,9.4,4.2,9.4,10.7
			C652,244.7,648.1,249.1,642.6,249.1z"/>
		<path id="n_00000040565534271637094860000017626064265823688837_" class="st0" d="M668.1,220.2v36.7h9.3v-19
			c0-7,3.8-10.1,8.1-10.1c5.6,0,6.9,4.9,6.9,10v19h9.3v-23.1c0-10.1-6.1-14.6-12.8-14.6c-4.5,0-8.7,2.1-11.5,6.4h-0.1v-5.4h-9.1
			L668.1,220.2z"/>
		<path id="a_00000069371374796254844510000006881537425826406833_" class="st0" d="M719.7,236.2c-6.3,1.4-11.8,4.1-11.8,11
			c0,7.3,6.1,10.8,12.3,10.8c4.8,0,8.9-2.3,10.9-6h0.1c0,1.6,0.1,3.2,0.7,4.8h9.1c-0.7-2.9-1.3-5.5-1.3-11.5v-13.1
			c0-8.6-5.7-13.1-14.8-13.1c-7.1,0-13.8,2.8-16.2,10.4l8.7,2.9c1.3-4.1,4-5.7,7.1-5.7c3.6,0,5.7,2.1,5.7,4.7
			C730.6,234.2,728,234.5,719.7,236.2L719.7,236.2z M730.7,240.1v2.9c0,3.8-2.9,7.9-7.9,7.9c-2.9,0-4.9-1.3-4.9-3.9
			c0-2.8,2.8-4.1,5.6-4.8C725.7,241.6,728.8,240.8,730.7,240.1L730.7,240.1z"/>
		<path id="l" class="st0" d="M758,204.1h-9.3v52.6h9.3V204.1z"/>
		<path id="F" class="st0" d="M488.2,326.5h9.7v-20h21.9v-9.6H498v-12.4h23.3v-9.1h-33C488.2,275.3,488.2,326.5,488.2,326.5z"/>
		<path id="o_00000009551520034515674590000017164316918866519441_" class="st0" d="M525.2,308.2c0,11.5,7.7,19.5,18.9,19.5
			c11.1,0,18.9-8,18.9-19.5s-7.7-19.5-18.9-19.5C532.9,288.7,525.2,296.9,525.2,308.2z M544,297.5c5.5,0,9.4,4.2,9.4,10.7
			c0,6.2-3.9,10.7-9.4,10.7c-5.5,0-9.4-4.5-9.4-10.7S538.5,297.5,544,297.5z"/>
		<path id="o_00000176027449999885154320000000916697859961085619_" class="st0" d="M567.3,308.2c0,11.5,7.7,19.5,18.9,19.5
			s18.9-8,18.9-19.5s-7.7-19.5-18.9-19.5C575.2,288.7,567.3,296.9,567.3,308.2z M586.3,297.5c5.5,0,9.4,4.2,9.4,10.7
			c0,6.2-3.9,10.7-9.4,10.7s-9.4-4.5-9.4-10.7S580.8,297.5,586.3,297.5z"/>
		<path id="t_00000116936253460960473720000010645780162978592674_" class="st0" d="M614.7,289.9h-7.1v8.3h7.1v16.6
			c0,3.9,0,12.8,12.3,12.8c2.6,0,4.9-0.5,6.9-1.4v-8.1c-1.5,0.8-3.2,1.4-4.9,1.4c-4.9,0-4.9-4.2-4.9-7.7v-13.5h10V290h-10v-10.3
			h-9.3v10.2L614.7,289.9z"/>
		<path id="b" class="st0" d="M649.6,295.1v-21.2h-9.3v52.6h9.1v-4.8h0.1c2.1,3.3,5.7,6,11.1,6c8.7,0,16.6-7.3,16.6-19.6
			c0-10.7-6-19.3-15.9-19.3C656.6,288.7,652.4,290.7,649.6,295.1z M667.8,308.2c0,6.2-3.9,10.7-9.3,10.7s-9.3-4.2-9.3-10.7
			c0-6.2,3.9-10.7,9.3-10.7C664,297.5,667.8,302.1,667.8,308.2z"/>
		<path id="a_00000121270416843807809850000008368348393400940160_" class="st0" d="M682.8,299.3l8.7,2.9c1.3-4.1,4-5.7,7.1-5.7
			c3.6,0,5.7,2.1,5.7,4.7c0,2.9-2.6,3.2-10.9,4.9c-6.3,1.4-11.8,4.1-11.8,11c0,7.3,6.1,10.8,12.3,10.8c4.8,0,8.9-2.3,10.9-6h0.1
			c0,1.6,0.1,3.2,0.7,4.8h9.1c-0.7-2.9-1.3-5.5-1.3-11.5V302c0-8.6-5.7-13.1-14.8-13.1C691.9,288.7,685.1,291.5,682.8,299.3
			L682.8,299.3z M704.6,312.8c0,3.8-2.9,7.9-7.9,7.9c-2.9,0-4.9-1.3-4.9-3.9c0-2.8,2.8-4.1,5.6-4.8c2.1-0.5,5.3-1.3,7.1-2.1
			L704.6,312.8L704.6,312.8z"/>
		<path id="l_00000066482824152524817590000017457038003455281536_" class="st0" d="M731.8,273.8h-9.1v52.6h9.3v-52.6H731.8z"/>
		<path id="l_00000163035123558157820880000016276692727108762289_" class="st0" d="M750.1,273.8h-9.3v52.6h9.3V273.8z"/>
		<path id="M" class="st0" d="M488.2,396.2h10v-33h0.2c4.7,11,9.5,22,14.3,33h7.1c4.8-11,9.6-22,14.3-33h0.2v33h10V345h-12.1
			c-5.4,12-10.7,24-15.8,36.1h-0.1c-5.3-12-10.4-24.1-15.8-36.1h-12.1v51.2H488.2L488.2,396.2z"/>
		<path id="u" class="st0" d="M577.9,391.7c0,1.1,0.2,2.5,0.8,4.5h9.3c-0.7-2.9-1.3-5.4-1.3-11.5v-25.2h-9.3v19.7
			c0,5.3-2.9,9.3-7.7,9.3c-4.5,0-6.6-3.6-6.6-9.1v-19.8h-9.3v23.1c0,10,5.2,14.8,13.2,14.8C572.6,397.2,575.9,395.1,577.9,391.7z"/>
		<path id="s" class="st0" d="M623.2,385.4c0-7.7-6.8-9.6-10.3-10.7l-2.9-0.8c-2.9-0.8-6.4-1.9-6.4-4.6c0-2.1,1.8-3.4,4.2-3.4
			c3.2,0,4.9,2.2,5.7,4.6l8.6-2.8c-1.5-5.3-6.6-9.3-14.1-9.3c-7.9,0-13.8,4.5-13.8,11.6c0,6.8,5.4,9.5,10,10.9l3.9,1.3
			c2.5,0.7,5.3,1.5,5.3,4.2c0,2.6-2.6,3.4-4.8,3.4c-2.6,0-5.7-1.4-7.3-5.5l-8.6,2.8c1.6,6.2,7.6,10.3,15.9,10.3
			C617.6,397.2,623.2,392.7,623.2,385.4L623.2,385.4z"/>
		<path id="e" class="st0" d="M663.8,386.7l-8.7-3.4c-1.6,3.9-4.8,5.7-8.7,5.7c-4.8,0-8.9-3-9.7-8.6h27V378
			c0-13.5-8.6-19.6-17.6-19.6c-10.8,0-18.3,8.3-18.3,19.6c0,11.6,8.1,19.3,19,19.3C655.1,397.2,661.3,392.7,663.8,386.7L663.8,386.7
			z M645.9,366.3c4.1,0,7.9,2.2,8.6,7.9h-17.1C638.1,369.6,641.1,366.3,645.9,366.3L645.9,366.3z"/>
		<path id="u_00000080176622053034864450000017332388243236269958_" class="st0" d="M694,391.7c0,1.1,0.2,2.5,0.8,4.5h9.3
			c-0.7-2.9-1.3-5.4-1.3-11.5v-25.2h-9.3v19.7c0,5.3-2.9,9.3-7.7,9.3c-4.5,0-6.6-3.6-6.6-9.1v-19.8H670v23.1
			c0,10,5.2,14.8,13.2,14.8C688.8,397.2,692,395.1,694,391.7L694,391.7z"/>
		<path id="m" class="st0" d="M755.2,358.5c-3.9,0-8.4,1.6-11.8,6.8h-0.1c-2.1-4.5-6.4-6.8-10.9-6.8c-4.2,0-8.7,2.2-11.1,6.4h-0.1
			v-5.4H712v36.7h9.3v-18.9c0-7,3.8-10.1,7.9-10.1c5.3,0,6.4,4.8,6.4,9.7v19.1h9.3v-18.9c0-7,3.9-10.1,7.9-10.1
			c5.3,0,6.4,4.8,6.4,10v19h9.3V373C768.2,363.3,761.9,358.5,755.2,358.5L755.2,358.5z"/>
	</g>
</g>
</svg>
